
myfont = {"glyphs":{"0":{"ha":694,"x_min":57,"x_max":636,"o":"m 57 431 l 57 454 q 59 549 57 509 q 72 655 61 589 q 103 767 83 721 q 162 859 122 814 q 258 925 203 904 q 346 942 301 942 q 421 931 385 942 q 497 890 457 921 q 568 810 538 859 q 617 675 597 761 q 636 479 636 590 l 636 450 q 634 356 636 397 q 621 250 632 314 q 590 139 610 186 q 529 49 570 93 q 433 -16 489 5 q 346 -31 387 -31 q 272 -21 307 -31 q 195 19 236 -11 q 125 97 154 49 q 76 232 96 146 q 57 431 57 318 m 165 431 q 178 268 165 338 q 209 158 191 197 q 252 94 227 118 q 300 62 278 69 q 347 54 322 54 q 407 69 379 54 q 464 120 435 83 q 510 237 493 157 q 528 432 528 317 l 528 514 q 510 692 528 620 q 463 797 493 764 q 406 843 433 831 q 346 856 378 856 q 286 843 314 856 q 229 797 258 831 q 183 691 200 764 q 165 514 165 618 l 165 431 z "},"1":{"ha":694,"x_min":125,"x_max":590,"o":"m 125 770 l 125 850 q 390 942 292 850 l 416 942 l 416 82 l 590 82 l 590 0 l 132 0 l 132 82 l 306 82 l 306 802 q 125 770 223 770 z "},"2":{"ha":694,"x_min":57,"x_max":624,"o":"m 57 714 q 326 942 125 942 q 542 854 460 942 q 624 644 624 766 q 611 555 624 595 q 559 470 597 515 q 492 397 521 425 q 392 307 463 370 q 168 97 355 274 l 624 98 l 624 0 l 68 0 l 68 90 l 249 269 q 297 314 260 280 q 346 359 334 347 q 388 401 358 371 q 429 447 418 431 q 460 490 440 463 q 488 537 481 517 q 502 585 494 558 q 509 640 509 612 q 452 790 509 729 q 309 851 396 851 q 224 830 261 851 q 169 777 187 808 q 138 715 150 746 q 122 661 126 684 l 117 637 l 57 714 z "},"3":{"ha":694,"x_min":57,"x_max":635,"o":"m 57 113 l 72 197 q 177 103 117 138 q 272 62 237 68 q 339 56 307 56 q 463 111 416 56 q 510 253 510 167 q 465 391 510 334 q 332 449 419 449 l 231 449 l 231 534 q 288 539 264 537 q 319 543 313 542 q 330 543 326 543 q 439 610 397 555 q 482 729 482 664 q 443 823 482 787 q 342 859 404 859 q 149 754 220 859 q 126 714 140 742 l 77 790 q 345 942 172 941 q 523 879 450 942 q 596 729 596 817 q 441 492 596 579 q 586 393 537 458 q 635 250 635 328 q 551 54 635 138 q 340 -31 467 -31 q 57 113 170 -31 z "},"4":{"ha":694,"x_min":37,"x_max":654,"o":"m 37 237 q 37 304 37 237 q 53 347 37 321 l 389 909 l 517 909 l 517 322 l 654 322 l 654 237 l 517 237 l 517 0 l 406 0 l 406 237 l 37 237 m 146 322 l 414 322 l 414 859 q 374 736 406 807 q 315 616 343 665 q 193 404 288 567 q 146 322 163 351 z "},"5":{"ha":694,"x_min":53,"x_max":624,"o":"m 53 106 l 100 183 q 317 56 178 56 q 442 109 386 56 q 498 285 498 163 q 457 454 498 399 q 357 509 416 509 q 204 397 262 509 l 110 397 l 110 909 l 578 909 l 578 821 l 211 821 l 211 536 q 359 593 281 593 q 545 503 467 593 q 624 283 624 414 q 533 60 624 150 q 318 -31 441 -31 q 168 6 239 -31 q 53 106 98 43 z "},"6":{"ha":694,"x_min":58,"x_max":635,"o":"m 58 449 q 164 800 58 657 q 429 942 269 942 q 578 914 501 942 l 578 831 q 429 860 498 860 q 289 804 349 860 q 204 676 229 747 q 175 528 179 604 q 280 612 218 582 q 410 642 343 642 q 561 557 501 642 q 635 311 635 454 q 539 56 635 157 q 350 -31 458 -31 q 274 -19 311 -31 q 197 24 237 -8 q 127 106 157 56 q 78 245 97 157 q 58 449 58 334 m 176 306 q 349 56 203 56 q 460 103 419 56 q 514 210 501 151 q 521 302 521 240 q 482 485 521 423 q 355 557 436 557 q 228 494 277 557 q 178 343 178 431 q 180 306 178 331 l 176 306 z "},"7":{"ha":694,"x_min":57,"x_max":635,"o":"m 57 812 l 57 911 l 635 909 l 635 819 q 408 432 488 650 q 328 -16 328 214 l 210 -16 q 290 417 210 204 q 541 812 371 631 l 57 812 z "},"8":{"ha":694,"x_min":57,"x_max":635,"o":"m 57 250 q 104 392 57 328 q 250 492 151 456 q 130 566 184 513 q 77 699 77 619 q 154 869 77 795 q 346 942 232 942 q 538 868 461 942 q 615 699 615 794 q 572 578 615 633 q 441 492 529 524 q 576 405 518 468 q 635 249 635 342 q 551 54 635 138 q 346 -31 468 -31 q 141 53 225 -31 q 57 250 57 136 m 170 252 q 218 109 170 163 q 346 56 267 56 q 472 109 422 56 q 522 253 522 161 q 473 395 522 340 q 346 449 424 449 q 224 399 278 449 q 170 252 170 350 m 174 697 q 221 579 174 623 q 345 534 269 534 q 470 580 422 534 q 518 697 518 625 q 470 815 518 771 q 346 860 422 860 q 221 814 268 860 q 174 697 174 769 z "},"9":{"ha":694,"x_min":58,"x_max":635,"o":"m 58 604 q 158 859 58 757 q 350 942 240 942 q 444 922 399 942 q 534 853 489 901 q 607 705 579 806 q 635 463 635 604 q 533 109 635 249 q 285 -31 431 -31 q 100 33 185 -31 l 143 109 q 155 100 144 107 q 169 90 165 93 q 182 82 172 87 q 198 74 192 77 q 215 66 204 71 q 237 60 227 62 q 260 57 248 58 q 288 56 273 56 q 445 146 382 57 q 518 383 507 235 q 283 268 421 268 q 134 353 193 268 q 58 604 58 458 m 172 604 q 181 499 172 541 q 216 418 189 458 q 338 354 261 354 q 466 417 416 354 q 515 570 515 481 q 514 606 515 593 l 517 606 q 506 685 514 647 q 480 766 497 724 q 429 833 463 808 q 351 859 396 859 q 237 810 279 859 q 180 704 195 761 q 172 604 172 671 z "},"\u0000":{"ha":1055,"x_min":14,"x_max":1042,"o":"m 14 14 l 14 1063 l 1042 1063 l 1042 14 l 14 14 m 97 155 l 481 539 l 97 921 l 97 155 m 146 97 l 909 97 l 528 481 l 146 97 m 146 979 l 528 596 l 909 979 l 146 979 m 575 539 l 958 155 l 958 921 l 575 539 z "},"\r":{"ha":462,"x_min":0,"x_max":0,"o":""}," ":{"ha":462,"x_min":0,"x_max":0,"o":""},"!":{"ha":443,"x_min":163,"x_max":279,"o":"m 163 0 l 163 117 l 279 117 l 279 0 l 163 0 m 163 1003 l 279 1003 l 267 243 l 174 243 l 164 932 l 163 1003 z "},"\"":{"ha":694,"x_min":175,"x_max":517,"o":"m 175 1003 l 283 1003 l 272 504 l 272 503 l 187 503 l 175 1003 m 408 1003 l 517 1003 l 504 503 l 419 503 l 419 504 l 408 1003 z "},"#":{"ha":1156,"x_min":78,"x_max":1078,"o":"m 78 208 q 129 250 78 250 l 358 250 l 404 444 l 126 444 q 78 486 77 446 q 134 529 78 529 l 427 529 l 530 949 q 533 956 530 949 q 535 967 534 962 q 541 979 536 972 q 549 991 545 986 q 561 999 553 996 q 578 1003 568 1003 q 606 991 595 1003 q 619 962 618 979 q 614 930 619 950 l 514 529 l 732 529 l 835 949 l 836 956 q 840 967 839 962 q 844 979 840 972 q 853 991 848 986 q 865 999 857 996 q 882 1003 872 1003 q 910 990 899 1003 q 924 961 922 978 q 920 930 924 944 l 819 529 l 1008 529 q 1060 521 1047 529 q 1078 486 1078 507 q 1026 444 1078 445 l 798 444 l 750 250 l 1029 250 q 1061 241 1049 250 q 1075 224 1072 232 q 1078 208 1078 216 q 1022 165 1078 165 l 729 165 l 625 -254 l 624 -258 q 622 -267 623 -264 q 618 -276 621 -271 q 614 -286 616 -282 q 609 -294 612 -289 q 602 -301 606 -298 q 591 -307 597 -304 q 578 -309 585 -309 q 549 -296 561 -309 q 536 -267 538 -283 q 542 -236 536 -256 l 640 165 l 424 165 l 319 -254 l 318 -258 q 316 -267 317 -264 q 313 -276 315 -271 q 309 -286 311 -282 q 303 -294 307 -289 q 296 -301 300 -298 q 286 -307 292 -304 q 272 -309 279 -309 q 243 -296 255 -309 q 231 -267 232 -283 q 236 -236 231 -256 l 336 165 l 146 165 q 94 174 106 165 q 78 208 78 186 m 446 250 l 663 250 l 710 444 l 493 444 l 446 250 z "},"$":{"ha":694,"x_min":61,"x_max":615,"o":"m 61 85 l 78 180 q 188 107 142 129 q 306 77 235 86 l 306 468 l 304 468 q 166 537 220 488 q 95 638 113 587 q 77 742 77 689 q 138 918 77 840 q 306 1015 200 996 l 306 1042 l 387 1042 l 387 1017 q 593 937 498 1006 l 576 846 q 387 926 484 918 l 387 575 q 498 526 451 559 q 569 449 546 492 q 604 365 593 406 q 615 282 615 323 q 551 87 615 171 q 387 -11 486 4 l 387 -39 l 306 -39 l 306 -14 q 61 85 170 0 m 178 760 q 209 662 178 708 q 306 597 240 616 l 306 924 l 304 924 q 208 856 238 901 q 178 760 178 810 m 387 81 q 485 156 455 103 q 514 264 514 208 q 486 371 514 319 q 387 447 457 422 l 387 81 z "},"%":{"ha":1156,"x_min":77,"x_max":1079,"o":"m 135 578 q 106 616 135 578 q 77 772 77 654 q 136 966 77 890 q 271 1042 196 1042 q 406 963 349 1042 q 463 771 463 885 q 406 580 463 659 q 271 501 350 501 q 135 578 194 501 m 180 761 q 261 589 180 612 l 275 587 q 339 642 313 590 q 366 772 366 693 q 338 902 366 849 q 265 956 311 954 q 205 908 229 951 q 180 772 180 865 l 180 761 m 244 -9 q 257 18 244 -7 l 861 1023 q 888 1040 871 1040 q 906 1033 899 1040 q 914 1014 914 1025 q 897 975 914 1002 l 307 -7 q 302 -15 307 -8 q 296 -23 297 -21 q 290 -30 294 -25 q 282 -36 286 -35 q 272 -37 278 -37 q 253 -29 261 -37 q 244 -9 244 -20 m 752 38 q 723 76 752 38 q 693 232 693 114 q 753 426 693 350 q 889 501 812 501 q 1022 423 965 501 q 1079 231 1079 345 q 1023 40 1079 118 q 888 -39 966 -39 q 752 38 811 -39 m 798 221 q 878 49 798 73 l 892 47 q 956 101 929 50 q 982 232 982 153 q 955 361 982 309 q 882 415 928 414 q 822 368 846 411 q 798 232 798 325 l 798 221 z "},"&":{"ha":1053,"x_min":57,"x_max":974,"o":"m 57 208 q 61 257 57 235 q 78 302 65 279 q 99 339 90 325 q 132 379 107 354 q 169 416 157 404 q 218 460 182 428 q 269 507 254 493 q 224 751 223 632 q 277 954 224 875 q 416 1034 330 1034 q 547 964 498 1034 q 596 811 596 895 q 553 682 596 754 q 385 497 510 610 q 606 174 451 355 q 836 562 768 315 l 925 541 q 672 113 860 286 q 771 62 739 70 q 815 58 792 58 q 974 83 882 58 l 974 -9 q 815 -31 897 -31 q 591 52 696 -31 l 590 52 q 311 -31 465 -31 q 129 41 200 -31 q 57 208 57 113 m 165 220 q 204 108 165 157 q 314 58 243 58 q 522 115 418 58 q 306 424 368 296 q 272 394 295 414 q 240 365 249 374 q 216 341 232 357 q 194 315 200 325 q 179 288 187 304 q 168 256 171 272 q 165 220 165 239 m 314 800 q 351 583 314 702 q 500 812 500 718 q 480 905 500 861 q 415 949 460 949 q 346 913 378 949 q 314 800 314 877 z "},"'":{"ha":386,"x_min":138,"x_max":245,"o":"m 138 1003 l 245 1003 l 237 646 l 235 504 l 235 503 l 150 503 l 149 504 l 138 1003 z "},"(":{"ha":540,"x_min":111,"x_max":463,"o":"m 111 347 q 376 1042 111 804 l 463 1042 q 350 900 385 958 q 220 347 219 680 q 418 -300 220 -71 l 463 -347 l 376 -347 q 111 347 111 -107 z "},")":{"ha":540,"x_min":77,"x_max":428,"o":"m 77 -347 q 135 -282 113 -309 q 196 -191 157 -256 q 259 -60 236 -126 q 301 115 282 7 q 319 347 319 224 q 299 589 319 476 q 255 767 278 701 q 188 899 232 832 q 129 985 144 966 q 77 1042 113 1003 l 161 1042 q 428 349 428 803 q 161 -347 428 -109 l 77 -347 z "},"*":{"ha":694,"x_min":89,"x_max":604,"o":"m 89 604 q 105 639 89 627 q 211 697 122 652 q 277 732 251 718 l 277 733 q 203 772 248 749 q 106 826 123 814 q 89 861 89 839 q 101 894 89 878 q 135 909 114 909 q 174 896 152 909 l 310 800 q 298 990 299 971 q 314 1030 298 1018 q 347 1042 330 1042 q 379 1030 363 1042 q 395 993 395 1018 q 383 800 395 987 q 543 908 532 905 q 554 909 549 909 q 590 895 575 909 q 604 861 604 880 q 588 826 604 839 q 482 768 571 814 q 416 733 442 747 l 416 732 q 490 693 446 716 q 587 639 570 652 q 604 604 604 627 q 592 572 604 587 q 558 557 579 557 q 521 570 538 557 l 383 667 q 395 476 394 496 q 379 437 395 450 q 347 425 364 425 q 313 439 328 425 q 298 472 298 453 q 298 482 298 475 q 300 504 298 489 q 302 537 301 518 q 305 591 302 555 q 310 667 307 627 q 151 558 160 561 q 139 555 146 555 q 103 570 118 555 q 89 604 89 585 z "},"+":{"ha":1080,"x_min":77,"x_max":1002,"o":"m 89 317 q 83 324 89 317 q 77 347 77 330 q 86 374 77 364 q 107 387 96 385 q 142 390 118 390 l 497 390 l 497 747 q 539 810 497 810 q 582 747 582 810 l 582 390 l 943 390 q 1002 347 1002 390 q 946 306 1002 306 l 582 306 l 582 -53 q 541 -115 582 -115 q 512 -105 524 -115 q 498 -83 501 -94 q 497 -53 497 -78 l 497 306 l 139 306 q 127 304 134 304 q 89 317 101 304 z "},",":{"ha":386,"x_min":134,"x_max":250,"o":"m 134 0 l 134 117 l 250 117 l 250 20 l 249 0 l 192 -174 l 134 -174 l 170 0 l 134 0 z "},"-":{"ha":462,"x_min":14,"x_max":383,"o":"m 14 268 l 14 350 l 383 350 l 383 268 l 14 268 z "},".":{"ha":386,"x_min":134,"x_max":250,"o":"m 134 0 l 134 117 l 250 117 l 250 0 l 134 0 z "},"/":{"ha":694,"x_min":78,"x_max":615,"o":"m 78 -304 q 90 -258 78 -295 l 529 1000 q 574 1040 543 1040 q 603 1028 591 1040 q 615 999 615 1017 q 606 960 615 989 l 164 -306 q 119 -347 147 -347 q 90 -335 102 -347 q 78 -304 78 -323 z "},":":{"ha":386,"x_min":134,"x_max":250,"o":"m 134 0 l 134 117 l 250 117 l 250 0 l 134 0 m 134 501 l 134 618 l 250 618 l 250 501 l 134 501 z "},";":{"ha":386,"x_min":134,"x_max":250,"o":"m 134 0 l 134 117 l 250 117 l 250 20 l 249 0 l 192 -174 l 134 -174 l 170 0 l 134 0 m 134 501 l 134 618 l 250 618 l 250 501 l 134 501 z "},"<":{"ha":1080,"x_min":115,"x_max":962,"o":"m 115 347 q 126 373 118 364 q 163 397 134 382 l 893 766 q 921 775 913 774 q 951 763 939 775 q 962 733 962 750 q 960 720 962 726 q 955 708 957 713 q 945 699 953 704 q 935 693 937 694 q 925 686 933 692 l 916 682 l 253 347 l 916 12 l 925 8 q 935 1 933 3 q 945 -5 937 0 q 955 -14 953 -9 q 960 -25 957 -18 q 962 -39 962 -32 q 950 -68 962 -56 q 921 -81 939 -81 q 867 -58 911 -81 l 163 297 q 126 320 134 313 q 115 347 118 328 z "},"=":{"ha":1080,"x_min":78,"x_max":1002,"o":"m 132 165 q 78 209 78 165 q 127 252 78 252 q 135 251 130 252 q 142 250 139 250 l 949 250 q 1002 208 1002 250 q 945 165 1002 165 l 132 165 m 78 486 q 134 529 78 529 l 946 529 q 1002 486 1002 529 q 999 470 1002 478 q 983 453 996 463 q 950 444 971 444 l 129 444 q 96 453 108 444 q 81 470 83 463 q 78 486 78 478 z "},">":{"ha":1080,"x_min":115,"x_max":962,"o":"m 115 -39 q 118 -25 115 -32 q 123 -14 121 -18 q 133 -5 126 -9 q 143 1 140 0 q 154 7 146 3 q 164 12 163 11 l 827 347 l 164 682 q 154 688 163 684 q 143 693 146 692 q 133 699 140 694 q 123 708 126 704 q 118 720 121 713 q 115 733 115 726 q 128 763 115 750 q 158 775 140 775 q 212 753 168 775 l 917 397 q 952 375 945 384 q 962 347 960 366 q 953 321 960 329 q 917 297 946 313 l 187 -71 q 158 -81 165 -80 q 127 -68 140 -81 q 115 -39 115 -56 z "},"?":{"ha":655,"x_min":77,"x_max":578,"o":"m 77 940 q 310 1018 184 1018 q 444 997 388 1018 q 527 939 500 975 q 566 867 554 903 q 578 793 578 832 q 572 738 578 764 q 558 695 567 713 q 537 660 550 677 q 517 635 525 643 q 497 616 509 627 q 482 603 485 606 q 354 298 355 479 l 354 243 l 261 243 l 261 288 q 276 435 261 368 q 315 546 290 501 q 362 620 340 591 q 410 674 383 648 q 441 705 436 700 q 469 794 469 743 q 310 933 469 933 q 109 852 199 933 l 77 940 m 250 0 l 250 117 l 367 117 l 367 0 l 250 0 z "},"@":{"ha":926,"x_min":77,"x_max":847,"o":"m 77 503 q 214 869 77 721 q 534 1018 351 1018 q 649 997 598 1018 q 732 945 700 975 q 787 865 764 914 q 822 774 810 815 q 840 676 833 733 q 846 587 846 619 q 847 511 847 555 q 771 267 847 359 q 590 175 694 175 q 409 270 484 175 q 334 501 334 364 q 409 733 334 636 q 590 829 484 829 q 708 791 642 829 q 536 933 656 933 q 290 811 399 933 q 180 501 180 689 q 285 196 180 322 q 543 71 390 71 q 694 96 621 71 q 775 122 766 122 l 847 122 q 539 -16 725 -16 q 214 134 352 -16 q 77 503 77 283 m 437 503 q 484 328 437 395 q 591 260 530 260 q 696 327 648 260 q 743 500 743 393 q 696 675 743 607 q 589 743 650 743 q 484 676 530 743 q 437 503 437 608 z "},"A":{"ha":926,"x_min":37,"x_max":885,"o":"m 37 0 l 400 964 l 524 964 l 885 0 l 757 0 l 650 283 l 248 283 l 142 0 l 37 0 m 277 361 l 621 361 q 449 867 456 815 q 277 361 431 782 z "},"B":{"ha":926,"x_min":134,"x_max":847,"o":"m 134 0 l 134 964 l 441 964 q 612 940 537 964 q 727 879 686 917 q 788 801 768 842 q 808 722 808 761 q 749 593 808 653 q 575 504 689 533 q 767 420 686 486 q 847 261 847 354 q 759 87 847 159 q 549 3 671 16 q 478 0 525 0 l 134 0 m 250 78 l 447 78 q 661 136 589 78 q 733 262 733 195 q 661 393 733 339 q 488 457 589 447 q 416 458 475 458 l 252 458 l 250 407 l 250 78 m 250 545 l 416 545 q 623 599 547 545 q 699 721 699 653 q 627 834 699 782 q 410 886 555 886 l 252 886 l 250 838 l 250 545 z "},"C":{"ha":887,"x_min":92,"x_max":817,"o":"m 92 482 q 131 694 92 596 q 235 857 171 793 q 375 958 298 921 q 526 994 452 994 q 612 992 581 994 q 693 980 643 990 q 802 947 743 970 l 781 832 q 669 887 718 869 q 545 905 619 905 q 311 782 406 905 q 216 482 216 659 q 312 181 216 304 q 549 58 407 58 q 599 60 575 58 q 639 64 623 62 q 676 74 656 66 q 706 83 696 81 q 734 97 715 86 q 758 111 753 109 q 783 127 762 114 q 808 143 804 140 l 817 46 q 687 -15 741 1 q 547 -31 633 -31 q 220 122 349 -31 q 92 482 92 275 z "},"D":{"ha":1002,"x_min":132,"x_max":925,"o":"m 132 0 l 132 964 l 473 964 q 713 899 612 964 q 870 718 814 832 q 925 475 925 603 q 811 151 925 281 q 543 3 697 21 q 476 0 521 0 l 132 0 m 253 78 l 452 78 q 722 205 625 78 q 804 473 804 313 q 712 768 804 650 q 452 886 619 886 l 253 886 l 253 78 z "},"E":{"ha":829,"x_min":131,"x_max":771,"o":"m 131 0 l 131 960 l 751 960 l 751 868 l 672 868 l 637 869 l 304 869 l 256 871 l 256 542 l 714 542 l 714 457 l 256 457 l 256 97 l 374 97 l 407 98 l 676 98 l 707 100 l 771 100 l 771 0 l 131 0 z "},"F":{"ha":790,"x_min":131,"x_max":732,"o":"m 131 0 l 131 960 l 732 960 l 732 868 l 656 868 l 623 869 l 300 869 l 256 871 l 256 522 l 673 522 l 673 437 l 256 437 l 256 0 l 131 0 z "},"G":{"ha":926,"x_min":92,"x_max":832,"o":"m 92 482 q 223 845 92 696 q 543 994 354 994 q 821 928 688 994 l 800 812 q 733 859 760 843 q 656 890 707 875 q 546 905 606 905 q 310 780 403 905 q 216 484 216 654 q 312 182 216 306 q 545 58 407 58 q 724 87 616 58 l 724 329 l 539 329 l 539 415 l 832 415 l 832 36 q 543 -31 693 -31 q 222 120 353 -31 q 92 482 92 270 z "},"H":{"ha":983,"x_min":131,"x_max":852,"o":"m 131 0 l 131 964 l 256 964 l 256 545 l 728 545 l 728 964 l 852 964 l 852 0 l 728 0 l 728 458 l 256 458 l 256 0 l 131 0 z "},"I":{"ha":386,"x_min":131,"x_max":256,"o":"m 131 0 l 131 964 l 256 964 l 256 0 l 131 0 z "},"J":{"ha":655,"x_min":57,"x_max":539,"o":"m 57 28 l 75 132 q 112 100 100 110 q 166 73 123 90 q 254 56 208 56 q 371 92 323 56 q 418 218 418 129 l 418 964 l 539 964 l 539 215 q 517 94 539 144 q 458 17 496 43 q 381 -19 421 -8 q 294 -31 340 -31 q 57 28 172 -31 z "},"K":{"ha":964,"x_min":132,"x_max":904,"o":"m 132 0 l 132 964 l 252 964 l 252 449 l 755 964 l 885 964 l 513 583 l 513 582 l 904 0 l 774 0 l 436 504 l 252 317 l 252 0 l 132 0 z "},"L":{"ha":753,"x_min":131,"x_max":693,"o":"m 131 0 l 131 964 l 256 964 l 256 90 l 526 90 l 693 92 l 693 0 l 131 0 z "},"M":{"ha":1215,"x_min":139,"x_max":1076,"o":"m 139 0 l 139 964 l 297 964 l 511 407 q 607 127 600 165 l 608 127 q 703 406 615 176 l 917 964 l 1076 964 l 1076 0 l 968 0 l 968 822 l 966 867 l 953 815 l 869 587 l 656 31 l 555 31 l 347 571 q 248 867 258 812 l 248 0 l 139 0 z "},"N":{"ha":983,"x_min":132,"x_max":848,"o":"m 132 0 l 132 964 l 306 964 l 686 208 l 741 97 l 741 964 l 848 964 l 848 0 l 675 0 l 294 755 l 240 867 l 240 0 l 132 0 z "},"O":{"ha":1022,"x_min":77,"x_max":943,"o":"m 77 479 q 205 844 77 694 q 511 994 334 994 q 815 844 686 994 q 943 479 943 694 q 813 115 943 261 q 510 -31 684 -31 q 206 116 335 -31 q 77 479 77 263 m 293 793 q 247 737 293 793 q 201 499 201 681 q 288 188 201 317 q 510 60 374 60 q 731 187 642 60 q 819 498 819 314 q 728 793 819 680 q 510 905 636 905 q 293 793 385 905 z "},"P":{"ha":887,"x_min":132,"x_max":808,"o":"m 132 0 l 132 964 l 460 964 q 673 909 587 964 q 773 811 737 869 q 808 685 808 753 q 719 488 808 576 q 465 400 629 400 q 443 401 458 400 q 419 401 428 401 l 257 401 l 257 0 l 132 0 m 253 482 l 437 482 q 564 502 509 482 q 644 553 618 521 q 683 619 671 586 q 696 685 696 652 q 685 747 696 715 q 648 811 673 778 q 568 865 623 844 q 437 886 514 886 l 253 886 l 253 482 z "},"Q":{"ha":1022,"x_min":77,"x_max":945,"o":"m 77 479 q 207 847 77 701 q 510 994 336 994 q 815 844 686 994 q 945 479 945 694 q 741 46 945 210 l 905 -174 l 760 -174 l 643 -7 q 510 -31 569 -31 q 204 118 332 -31 q 77 479 77 266 m 197 478 q 288 179 197 299 q 511 58 378 58 q 589 71 534 58 l 449 271 l 572 271 l 681 125 l 682 125 q 823 476 823 252 q 732 784 823 663 q 509 905 642 905 l 507 905 q 285 781 372 903 q 197 478 197 659 z "},"R":{"ha":897,"x_min":132,"x_max":857,"o":"m 132 0 l 132 964 l 446 964 q 621 938 545 964 q 738 872 697 913 q 799 788 779 831 q 818 705 818 746 q 757 555 818 625 q 581 453 696 486 l 857 0 l 732 0 l 472 439 l 253 439 l 253 0 l 132 0 m 253 525 l 436 525 q 644 580 582 525 q 705 704 705 635 q 693 764 705 734 q 653 821 681 793 q 570 868 625 850 q 440 886 515 886 l 253 886 l 253 525 z "},"S":{"ha":770,"x_min":61,"x_max":693,"o":"m 61 65 l 82 180 q 379 65 228 65 q 526 121 469 65 q 582 249 582 176 q 549 348 582 303 q 463 415 517 393 q 290 461 460 416 q 141 552 205 484 q 77 721 77 621 q 163 911 77 828 q 390 994 250 994 q 644 928 521 994 l 625 812 q 517 879 567 857 q 389 901 467 901 q 243 852 298 901 q 187 737 187 803 q 219 648 187 688 q 298 589 250 608 q 399 561 318 581 q 507 530 481 542 q 638 428 584 498 q 693 262 693 358 q 605 57 693 144 q 379 -31 517 -31 q 61 65 212 -31 z "},"T":{"ha":944,"x_min":49,"x_max":893,"o":"m 49 865 l 49 957 l 893 957 l 893 865 l 696 865 l 533 867 l 533 0 l 410 0 l 410 867 l 245 865 l 49 865 z "},"U":{"ha":954,"x_min":131,"x_max":823,"o":"m 131 340 l 131 964 l 256 964 l 256 387 q 255 363 256 379 q 254 339 254 347 q 277 193 254 254 q 337 102 300 132 q 409 60 374 72 q 481 47 444 47 q 558 61 519 47 q 633 106 596 75 q 692 195 669 136 q 715 334 715 254 q 715 346 715 338 q 714 358 714 354 l 714 964 l 823 964 l 823 335 q 792 174 823 246 q 710 59 761 102 q 600 -7 660 16 q 481 -31 541 -31 q 360 -8 420 -31 q 248 57 300 14 q 163 174 196 100 q 131 340 131 248 z "},"V":{"ha":926,"x_min":20,"x_max":905,"o":"m 20 964 l 149 964 l 361 416 q 473 97 463 143 q 582 410 481 151 l 798 964 l 905 964 l 526 0 l 399 0 l 20 964 z "},"W":{"ha":1311,"x_min":20,"x_max":1291,"o":"m 20 964 l 140 964 l 301 399 q 372 97 365 163 q 444 403 378 158 l 604 964 l 718 964 l 882 393 l 922 243 l 949 134 l 954 97 q 1028 401 957 143 l 1190 964 l 1291 964 l 1008 0 l 888 0 l 739 513 q 652 867 663 795 q 629 758 649 839 q 590 609 608 676 q 570 539 571 542 l 414 0 l 302 0 l 20 964 z "},"X":{"ha":926,"x_min":20,"x_max":905,"o":"m 20 0 l 392 507 l 392 509 l 39 964 l 184 964 l 453 602 l 714 964 l 847 964 l 513 509 l 513 507 l 905 0 l 760 0 l 453 424 l 153 0 l 20 0 z "},"Y":{"ha":926,"x_min":3,"x_max":920,"o":"m 3 964 l 149 964 l 353 668 q 473 484 464 501 q 798 964 522 570 l 920 964 l 522 386 l 522 0 l 401 0 l 401 386 l 3 964 z "},"Z":{"ha":848,"x_min":77,"x_max":778,"o":"m 77 0 l 77 35 q 79 61 77 54 q 94 87 81 68 l 611 878 l 383 876 l 96 876 l 96 964 l 771 964 l 771 930 q 771 923 771 926 q 770 916 771 920 q 770 911 770 913 q 769 907 770 909 q 767 903 768 904 q 764 898 766 901 q 762 893 762 895 q 758 887 761 892 q 753 879 754 882 l 236 90 l 525 90 l 557 92 l 778 92 l 778 0 l 77 0 z "},"[":{"ha":401,"x_min":139,"x_max":370,"o":"m 139 -347 l 139 1042 l 370 1042 l 370 957 l 243 957 l 243 -262 l 370 -262 l 370 -347 l 139 -347 z "},"\\":{"ha":694,"x_min":78,"x_max":615,"o":"m 78 999 q 91 1028 78 1016 q 119 1040 103 1040 q 145 1030 135 1040 q 158 1013 155 1021 q 168 987 161 1006 l 608 -273 q 615 -304 615 -297 q 605 -332 615 -318 q 574 -346 595 -346 q 546 -335 557 -346 q 532 -315 534 -323 q 522 -286 529 -307 l 79 985 q 78 999 78 991 z "},"]":{"ha":401,"x_min":29,"x_max":260,"o":"m 29 -262 l 154 -262 l 154 957 l 29 957 l 29 1042 l 260 1042 l 260 -347 l 29 -347 l 29 -262 z "},"^":{"ha":848,"x_min":184,"x_max":663,"o":"m 184 618 l 380 875 l 467 875 l 663 618 l 578 618 l 424 807 l 269 618 l 184 618 z "},"_":{"ha":1080,"x_min":117,"x_max":962,"o":"m 155 -345 q 117 -317 117 -345 q 154 -289 117 -289 l 917 -289 q 962 -318 963 -289 q 924 -345 962 -345 l 155 -345 z "},"`":{"ha":694,"x_min":135,"x_max":428,"o":"m 135 889 l 243 889 l 428 708 l 343 708 l 135 889 z "},"a":{"ha":667,"x_min":61,"x_max":555,"o":"m 61 157 q 100 247 61 208 q 202 303 139 285 q 326 331 265 322 q 447 340 386 340 l 447 387 q 411 515 444 476 q 323 557 376 557 q 115 486 216 557 l 107 579 q 325 640 212 640 q 485 577 420 640 q 555 424 550 514 l 555 0 l 450 0 l 450 49 q 425 31 445 43 q 346 1 404 18 q 220 -16 288 -16 q 101 41 140 -16 q 61 157 61 97 m 163 158 q 199 96 163 121 q 292 71 236 71 q 399 96 351 71 q 447 180 447 121 l 447 268 q 360 262 404 268 q 268 246 315 257 q 192 212 221 235 q 163 158 163 189 z "},"b":{"ha":718,"x_min":113,"x_max":667,"o":"m 113 0 l 113 1003 l 216 1003 l 216 551 q 439 632 318 632 q 603 536 538 632 q 667 311 667 440 q 590 78 667 171 q 407 -16 513 -16 q 221 64 309 -16 l 221 0 l 113 0 m 221 184 q 222 168 221 174 q 224 156 222 161 q 229 147 227 150 q 235 138 231 144 q 244 125 240 131 q 358 69 290 69 q 494 127 432 69 q 557 310 557 186 q 539 424 557 375 q 491 498 521 473 q 431 535 461 524 q 370 547 400 547 q 268 515 315 547 q 221 444 221 484 l 221 184 z "},"c":{"ha":616,"x_min":49,"x_max":576,"o":"m 49 310 q 132 539 49 439 q 354 640 215 640 q 462 628 419 640 q 570 579 505 615 l 553 488 q 449 541 485 530 q 353 551 409 551 q 208 480 258 551 q 157 310 157 408 q 211 140 157 207 q 351 74 265 74 q 570 149 460 74 l 576 56 q 350 -16 467 -15 q 136 80 222 -16 q 49 310 49 175 z "},"d":{"ha":718,"x_min":49,"x_max":603,"o":"m 49 307 q 121 539 49 445 q 296 633 193 633 q 497 557 401 633 l 497 1003 l 603 1003 l 603 0 l 493 0 l 493 72 q 288 -16 403 -16 q 117 81 184 -16 q 49 307 49 178 m 157 309 q 215 128 157 185 q 345 71 273 71 q 448 110 403 71 q 493 186 493 150 l 493 452 q 464 505 493 478 q 361 547 419 547 l 358 547 q 292 535 325 547 q 228 496 260 522 q 176 422 196 471 q 157 309 157 374 z "},"e":{"ha":616,"x_min":47,"x_max":575,"o":"m 47 314 q 131 546 47 452 q 328 640 215 640 q 407 627 369 640 q 483 583 444 614 q 546 492 521 553 q 575 346 571 431 l 575 306 l 144 306 q 208 136 149 201 q 350 71 268 71 q 561 147 456 71 l 570 56 q 350 -16 464 -15 q 133 82 218 -16 q 47 314 47 180 m 151 382 l 496 382 q 466 474 488 436 q 417 527 444 511 q 369 549 390 543 q 328 554 347 554 q 211 500 257 554 q 151 382 165 446 z "},"f":{"ha":423,"x_min":37,"x_max":482,"o":"m 37 536 l 37 618 l 140 618 l 140 720 q 140 736 140 725 q 139 753 139 747 q 209 949 139 880 q 372 1018 279 1018 q 482 1003 424 1018 l 482 909 q 370 933 422 933 q 281 905 322 933 q 240 807 240 878 l 240 618 l 397 618 l 397 536 l 244 536 l 244 0 l 140 0 l 140 536 l 37 536 z "},"g":{"ha":694,"x_min":37,"x_max":673,"o":"m 37 -98 q 126 45 37 -8 q 92 150 92 95 q 132 267 92 212 l 132 268 q 86 406 86 328 q 152 568 86 504 q 307 632 218 632 q 443 586 378 632 l 440 589 q 659 632 543 631 l 673 545 q 591 549 632 549 q 488 543 587 549 l 475 554 q 529 406 529 480 q 465 247 529 315 q 307 179 401 179 q 180 221 246 179 q 165 170 165 191 q 182 119 165 142 q 243 96 199 96 l 347 96 q 430 92 396 96 q 515 77 464 89 q 600 34 566 65 q 647 -46 633 3 q 654 -97 654 -74 q 564 -232 654 -178 q 346 -286 473 -286 q 127 -232 217 -286 q 37 -98 37 -178 m 135 -98 q 172 -160 135 -134 q 255 -196 210 -186 q 345 -207 301 -207 q 494 -177 432 -207 q 557 -100 557 -147 q 350 -4 557 -4 l 262 -4 l 222 -5 q 159 -37 182 -9 q 135 -98 135 -65 m 183 406 q 217 299 183 339 q 309 260 252 260 q 394 294 356 260 q 432 407 432 328 q 398 513 432 473 q 307 553 364 553 q 221 519 260 553 q 183 406 183 485 z "},"h":{"ha":718,"x_min":111,"x_max":606,"o":"m 111 0 l 111 1003 l 215 1003 l 215 533 q 415 632 298 631 q 506 615 468 632 q 562 576 543 599 q 591 517 581 553 q 604 458 602 482 q 606 400 606 433 l 606 0 l 497 0 l 497 390 q 496 428 497 414 q 488 467 496 441 q 468 508 481 493 q 427 535 454 524 q 361 547 400 547 q 253 485 287 547 q 220 334 220 422 l 220 0 l 111 0 z "},"i":{"ha":332,"x_min":103,"x_max":228,"o":"m 103 819 l 103 943 l 228 943 l 228 819 l 103 819 m 113 0 l 113 618 l 216 618 l 216 0 l 113 0 z "},"j":{"ha":370,"x_min":-85,"x_max":258,"o":"m -85 -237 l -64 -153 q 45 -196 -9 -195 q 113 -176 85 -196 q 150 -126 142 -155 q 153 -90 153 -114 l 153 618 l 257 618 l 257 -69 q 203 -235 257 -184 q 82 -285 149 -285 q -85 -237 -3 -285 m 134 819 l 134 943 l 258 943 l 258 819 l 134 819 z "},"k":{"ha":679,"x_min":115,"x_max":654,"o":"m 115 0 l 115 1003 l 215 1003 l 215 328 l 498 618 l 624 618 l 390 379 l 654 0 l 541 0 l 323 311 l 212 197 l 212 0 l 115 0 z "},"l":{"ha":332,"x_min":113,"x_max":216,"o":"m 113 0 l 113 1003 l 216 1003 l 216 0 l 113 0 z "},"m":{"ha":1103,"x_min":111,"x_max":991,"o":"m 111 0 l 111 625 l 212 625 l 212 528 q 415 632 293 632 q 591 519 550 632 q 802 632 676 632 q 892 615 854 632 q 949 574 930 597 q 978 515 968 551 q 990 456 989 479 q 991 400 991 433 l 991 0 l 882 0 l 882 390 q 882 398 882 393 q 879 421 882 404 q 871 452 876 437 q 857 485 867 467 q 833 516 847 503 q 797 538 819 529 q 747 547 775 547 q 640 485 673 547 q 606 334 606 422 l 606 0 l 497 0 l 497 390 q 496 428 497 414 q 488 467 496 441 q 468 508 481 493 q 427 535 454 524 q 361 547 400 547 q 253 485 287 547 q 220 334 220 422 l 220 0 l 111 0 z "},"n":{"ha":718,"x_min":111,"x_max":606,"o":"m 111 0 l 111 625 l 212 625 l 212 528 q 415 632 293 632 q 504 617 467 632 q 560 579 541 602 q 590 523 579 557 q 603 463 600 489 q 606 400 606 436 l 606 0 l 497 0 l 497 390 q 496 428 497 414 q 488 467 496 441 q 468 508 481 493 q 427 535 454 524 q 361 547 400 547 q 253 485 287 547 q 220 334 220 422 l 220 0 l 111 0 z "},"o":{"ha":694,"x_min":41,"x_max":652,"o":"m 41 307 q 131 544 41 448 q 346 640 221 640 q 564 539 477 640 q 652 306 652 439 q 560 76 652 168 q 346 -16 468 -16 q 133 77 224 -16 q 41 307 41 170 m 150 321 q 209 136 150 199 q 346 74 268 74 q 483 137 424 74 q 542 321 542 200 q 483 496 542 437 q 346 554 424 554 q 210 496 269 554 q 150 321 150 437 z "},"p":{"ha":718,"x_min":113,"x_max":667,"o":"m 113 -271 l 113 618 l 216 618 l 216 550 q 447 632 318 632 q 605 536 543 632 q 667 311 667 440 q 590 76 667 168 q 408 -16 513 -16 q 221 64 305 -16 l 221 -271 l 113 -271 m 221 175 q 260 107 221 144 q 355 69 300 69 q 495 136 433 69 q 557 309 557 203 q 504 473 557 403 q 368 543 452 543 q 339 541 353 543 q 313 534 325 539 q 291 524 301 529 q 272 513 281 519 q 256 502 262 507 q 242 489 249 496 q 233 478 236 482 q 225 469 229 473 l 221 464 l 221 175 z "},"q":{"ha":718,"x_min":49,"x_max":603,"o":"m 49 307 q 125 540 49 448 q 307 632 201 632 q 497 539 412 632 l 497 632 l 603 632 l 603 -271 l 493 -271 l 493 69 q 283 -16 400 -16 q 117 79 185 -16 q 49 307 49 174 m 157 307 q 212 140 157 209 q 346 71 268 71 q 450 110 403 71 q 497 192 497 149 l 497 396 q 460 491 497 439 q 359 543 424 543 q 218 477 280 543 q 157 307 157 410 z "},"r":{"ha":475,"x_min":113,"x_max":453,"o":"m 113 0 l 113 625 l 210 625 l 210 500 q 250 551 227 526 q 330 603 273 575 q 453 632 386 631 l 453 539 q 381 526 417 538 q 305 488 345 514 q 241 410 265 463 q 216 286 216 357 l 216 0 l 113 0 z "},"s":{"ha":532,"x_min":37,"x_max":500,"o":"m 37 47 l 54 142 q 72 131 57 140 q 95 118 87 122 q 120 105 103 114 q 152 92 138 97 q 186 82 167 87 q 227 74 205 77 q 272 72 249 72 q 371 101 341 72 q 401 167 401 131 q 376 224 401 201 q 323 256 351 248 q 262 270 310 260 q 191 286 214 279 q 90 348 134 304 q 46 457 46 392 q 56 517 46 489 q 88 576 65 546 q 159 623 111 606 q 273 640 207 640 q 476 597 373 640 l 461 505 q 445 513 460 507 q 429 521 431 519 q 413 528 427 522 q 395 535 400 533 q 378 541 390 536 q 358 547 366 546 q 338 551 351 547 q 315 555 325 554 q 291 556 304 555 q 261 557 277 557 q 171 531 197 557 q 144 472 144 505 q 181 406 144 426 q 285 374 218 386 q 379 350 351 363 q 465 283 429 328 q 500 176 500 239 q 490 114 500 144 q 458 53 481 83 q 387 3 435 22 q 273 -16 339 -16 q 37 47 151 -15 z "},"t":{"ha":501,"x_min":25,"x_max":461,"o":"m 25 536 l 25 618 l 144 618 l 144 793 l 241 793 l 241 618 l 437 618 l 437 536 l 241 536 l 241 195 q 317 74 241 74 q 439 119 375 74 l 461 37 q 256 -16 363 -16 q 142 163 142 -16 l 142 536 l 25 536 z "},"u":{"ha":718,"x_min":111,"x_max":606,"o":"m 111 170 l 111 618 l 220 618 l 220 153 q 242 83 221 104 q 330 62 264 62 q 446 101 402 62 q 496 189 490 139 q 497 229 497 203 l 497 618 l 606 618 l 606 0 l 500 0 l 500 66 q 257 -16 406 -16 q 186 -2 216 -16 q 142 28 157 11 q 120 75 127 45 q 112 122 113 104 q 111 170 111 139 z "},"v":{"ha":640,"x_min":20,"x_max":619,"o":"m 20 618 l 126 618 l 256 279 q 322 69 315 110 q 517 618 333 140 l 619 618 l 380 0 l 258 0 l 20 618 z "},"w":{"ha":948,"x_min":20,"x_max":929,"o":"m 20 618 l 123 618 q 273 69 258 190 q 421 618 277 155 l 519 618 l 621 279 q 673 69 669 104 q 828 618 680 137 l 929 618 l 737 0 l 616 0 q 500 392 522 313 q 468 547 478 472 q 321 0 465 477 l 211 0 l 20 618 z "},"x":{"ha":640,"x_min":0,"x_max":639,"o":"m 0 0 l 269 317 l 269 319 l 8 618 l 123 618 l 315 389 l 317 389 l 501 618 l 616 618 l 361 319 l 361 318 l 639 0 l 524 0 l 315 261 l 115 0 l 0 0 z "},"y":{"ha":640,"x_min":20,"x_max":619,"o":"m 20 618 l 129 618 q 262 298 218 414 q 315 153 307 183 q 330 69 322 123 q 515 618 333 166 l 619 618 l 318 -125 q 243 -251 278 -218 q 158 -285 208 -285 q 57 -273 101 -285 l 50 -183 q 151 -207 124 -207 q 208 -180 189 -207 q 265 -58 227 -153 q 281 -21 275 -35 q 286 1 286 -9 q 279 25 286 11 l 20 618 z "},"z":{"ha":604,"x_min":37,"x_max":557,"o":"m 37 0 l 37 57 l 407 536 l 366 534 l 57 534 l 57 618 l 553 618 l 553 562 l 184 86 l 464 86 l 493 87 l 557 87 l 557 0 l 37 0 z "},"{":{"ha":694,"x_min":72,"x_max":619,"o":"m 72 304 l 72 390 q 219 429 153 390 q 292 541 285 468 l 292 869 q 295 903 292 886 q 313 947 298 920 q 353 993 328 974 q 429 1027 379 1013 q 546 1042 479 1042 l 619 1042 l 619 957 l 586 957 q 480 950 521 957 q 424 927 440 943 q 404 898 408 911 q 400 863 400 885 l 400 570 q 383 478 400 518 q 341 415 366 437 q 284 376 317 392 q 226 354 252 359 q 176 347 200 349 q 242 335 208 346 q 313 302 275 325 q 376 233 351 279 q 400 125 400 187 l 400 -174 q 437 -240 400 -218 q 586 -262 475 -262 l 619 -262 l 619 -347 l 557 -347 q 392 -318 458 -347 q 357 -299 372 -310 q 331 -278 342 -288 q 313 -255 321 -268 q 302 -235 306 -243 q 296 -213 298 -227 q 292 -195 293 -200 q 292 -178 292 -189 l 292 -165 l 292 122 q 282 195 289 178 q 201 276 260 248 q 72 304 142 304 z "},"|":{"ha":386,"x_min":164,"x_max":220,"o":"m 164 -306 l 164 1000 q 192 1040 164 1040 q 220 1000 220 1040 l 220 -306 q 192 -346 220 -346 q 164 -306 164 -346 z "},"}":{"ha":694,"x_min":72,"x_max":619,"o":"m 72 -262 q 81 -262 75 -262 q 145 -261 121 -262 q 206 -255 170 -260 q 264 -236 243 -250 q 290 -199 285 -221 q 292 -161 292 -192 l 292 125 q 316 233 292 187 q 378 302 340 279 q 450 335 416 325 q 515 347 484 346 q 450 359 484 349 q 378 392 416 370 q 316 461 340 415 q 292 570 292 507 l 292 868 q 254 935 292 913 q 104 957 216 957 l 72 957 l 72 1042 l 140 1042 q 198 1040 180 1040 q 243 1034 215 1039 q 297 1015 271 1028 q 333 996 317 1007 q 360 975 350 985 q 378 952 371 965 q 390 930 386 939 q 396 909 393 922 q 399 890 399 896 q 400 873 400 885 q 400 860 400 861 l 400 572 q 411 500 403 521 q 491 418 433 447 q 619 390 549 390 l 619 304 q 473 266 538 304 q 401 154 408 227 l 400 122 l 400 -165 q 387 -241 397 -221 q 296 -321 361 -294 q 146 -347 232 -347 l 72 -347 l 72 -262 z "},"~":{"ha":848,"x_min":115,"x_max":732,"o":"m 115 774 q 170 893 118 848 q 292 939 221 939 q 426 899 340 939 q 554 860 511 860 q 616 879 590 860 q 647 939 643 899 l 732 939 q 678 819 729 865 q 555 774 627 774 q 421 814 507 774 q 293 854 336 854 q 231 834 257 854 q 200 774 204 814 l 115 774 z "}," ":{"ha":462,"x_min":0,"x_max":0,"o":""},"¡":{"ha":443,"x_min":163,"x_max":279,"o":"m 163 -271 l 174 490 l 267 490 l 278 -199 l 279 -271 l 163 -271 m 163 616 l 163 733 l 279 733 l 279 616 l 163 616 z "},"¢":{"ha":694,"x_min":49,"x_max":654,"o":"m 49 309 q 129 524 49 428 q 343 637 208 619 l 343 760 l 425 760 l 425 639 q 533 626 490 637 q 646 579 575 614 l 631 488 q 612 497 628 489 q 593 507 596 505 q 576 515 590 509 q 558 522 562 521 q 542 528 554 524 q 522 535 529 533 q 503 540 515 536 q 480 545 490 543 q 455 547 469 546 q 425 550 440 549 l 425 75 q 646 149 536 85 l 654 56 q 425 -14 542 -5 l 425 -135 l 343 -135 l 343 -12 q 130 98 211 5 q 49 309 49 191 m 157 310 q 208 156 157 218 q 343 78 260 93 l 343 547 q 203 462 250 530 q 157 310 157 393 z "},"£":{"ha":887,"x_min":77,"x_max":847,"o":"m 77 81 q 128 168 77 134 q 254 201 179 201 q 325 192 277 201 q 330 269 330 242 l 330 461 l 231 461 l 231 542 l 330 542 l 330 734 q 408 979 330 897 q 576 1060 486 1060 q 707 1009 652 1060 q 785 892 762 958 q 808 760 808 827 q 760 704 808 704 q 711 751 720 704 l 700 751 q 662 925 699 875 q 578 975 625 975 q 482 922 525 975 q 439 741 439 869 l 439 542 l 578 542 l 578 461 l 439 461 l 439 268 q 424 155 439 204 q 454 141 428 154 q 503 118 481 127 q 556 96 525 109 q 618 76 587 83 q 673 69 648 69 q 739 201 739 69 l 847 201 q 781 44 844 104 q 629 -16 717 -16 q 533 1 579 -16 q 374 71 486 18 q 195 -16 300 -16 q 111 12 146 -16 q 77 81 77 39 m 180 85 q 200 71 180 71 q 220 74 210 71 q 238 79 231 77 q 254 87 245 82 q 267 95 262 92 q 277 103 272 98 l 281 106 q 218 115 242 115 q 180 85 180 115 z "},"¥":{"ha":926,"x_min":-37,"x_max":964,"o":"m -37 262 q 18 306 -37 305 l 403 306 l 403 386 l 326 497 l 25 497 q -14 502 -4 497 q -33 522 -24 507 q -37 539 -37 530 q 20 582 -37 582 l 31 582 q 35 583 32 582 q 40 583 39 583 l 268 583 l 4 964 l 151 964 l 411 583 l 539 583 l 800 964 l 922 964 l 660 583 l 907 583 q 964 539 964 583 q 943 504 964 514 q 901 497 931 497 l 602 497 l 524 386 l 524 306 l 908 306 q 964 262 964 306 q 933 222 964 232 q 904 220 924 220 l 524 220 l 524 0 l 403 0 l 403 220 l 22 220 q -5 222 4 220 q -37 262 -37 232 m 468 497 l 475 484 l 484 497 l 468 497 z "},"§":{"ha":616,"x_min":61,"x_max":519,"o":"m 61 -184 l 78 -90 q 171 -170 131 -147 q 301 -200 229 -200 q 385 -152 359 -200 q 410 -50 410 -104 q 401 2 410 -22 q 381 42 393 26 q 352 72 370 57 q 323 92 335 86 q 295 106 311 98 q 278 115 279 114 q 231 144 254 127 q 174 194 208 161 q 117 274 139 227 q 96 376 96 322 q 197 576 96 500 q 96 782 96 675 q 154 946 96 873 q 311 1018 212 1018 q 515 937 421 1018 l 507 886 l 498 846 q 392 921 446 903 q 314 933 356 933 q 231 885 257 933 q 205 783 205 836 q 211 738 205 760 q 228 702 216 717 q 250 674 239 686 q 276 651 261 661 q 301 636 292 642 q 323 625 310 631 q 338 618 336 619 q 384 589 361 606 q 441 540 407 572 q 498 459 476 507 q 519 357 519 411 q 418 155 519 232 q 466 103 447 126 q 502 39 485 81 q 519 -49 519 -3 q 461 -213 519 -140 q 301 -285 403 -285 q 61 -184 167 -284 m 205 378 q 218 314 205 343 q 249 268 231 285 q 287 237 267 250 q 320 219 307 224 q 338 214 334 214 q 386 257 363 214 q 410 355 410 300 q 397 419 410 390 q 367 466 385 449 q 329 496 349 484 q 295 513 309 509 q 278 518 282 518 q 229 476 253 518 q 205 378 205 433 z "},"¨":{"ha":694,"x_min":149,"x_max":545,"o":"m 149 793 l 149 917 l 274 917 l 274 793 l 149 793 m 420 793 l 420 917 l 545 917 l 545 793 l 420 793 z "},"©":{"ha":1543,"x_min":77,"x_max":1464,"o":"m 172 -22 q 124 62 172 -22 q 77 347 77 146 q 172 716 77 549 q 426 978 267 884 q 771 1072 586 1072 q 1034 1017 907 1072 q 1256 866 1161 961 q 1407 635 1350 771 q 1464 347 1464 498 q 1368 -22 1464 146 q 1113 -284 1272 -191 q 770 -378 954 -378 q 427 -283 587 -378 q 172 -22 268 -189 m 132 347 q 220 6 132 161 q 454 -235 309 -149 q 768 -322 600 -322 q 1088 -234 941 -322 q 1322 8 1235 -146 q 1409 347 1409 163 q 1356 613 1409 488 q 1216 827 1303 739 q 1013 965 1129 914 q 772 1017 896 1017 q 320 821 509 1017 q 132 347 132 625 m 400 338 q 533 596 400 486 q 871 705 665 705 q 1071 672 966 705 l 1051 557 q 1034 568 1047 559 q 1015 579 1021 576 q 997 589 1010 582 q 977 599 985 596 q 956 606 970 602 q 930 612 942 610 q 902 615 918 614 q 868 616 886 616 q 622 532 720 616 q 524 338 524 447 q 620 144 524 229 q 872 58 717 58 q 963 67 924 58 q 1018 85 1002 77 q 1078 119 1034 93 l 1086 24 q 986 -19 1027 -8 q 869 -31 946 -31 q 535 79 669 -31 q 400 338 400 188 z "},"ª":{"ha":616,"x_min":35,"x_max":582,"o":"m 35 422 q 90 465 35 465 l 525 465 q 582 422 582 465 q 528 380 582 381 l 104 380 q 96 380 102 380 q 87 379 90 379 q 54 388 66 379 q 38 406 41 397 q 35 422 35 414 m 61 646 q 100 714 61 686 q 199 752 139 742 q 299 766 260 762 q 370 770 338 770 l 370 819 q 345 944 370 907 q 286 982 319 982 q 211 969 246 982 q 159 945 175 957 q 115 911 143 933 l 107 1006 q 286 1064 191 1064 q 423 1001 367 1064 q 479 825 479 937 l 479 521 l 374 521 l 374 567 q 180 505 282 506 q 109 533 138 505 q 70 590 79 561 q 61 646 61 619 m 164 646 q 192 605 165 619 q 250 591 218 591 q 327 614 293 591 q 368 676 361 637 l 370 699 q 207 682 248 693 q 164 646 167 671 z "},"«":{"ha":926,"x_min":153,"x_max":785,"o":"m 153 306 l 468 610 l 554 610 l 261 304 l 554 0 l 468 0 l 153 306 m 383 306 l 700 610 l 785 610 l 493 304 l 785 0 l 700 0 l 383 306 z "},"¬":{"ha":926,"x_min":78,"x_max":847,"o":"m 122 433 q 78 461 78 433 q 125 489 78 489 l 810 489 q 847 449 847 489 l 847 98 q 819 60 847 60 q 791 102 791 60 l 791 433 l 122 433 z "},"­":{"ha":462,"x_min":14,"x_max":383,"o":"m 14 268 l 14 350 l 383 350 l 383 268 l 14 268 z "},"®":{"ha":1543,"x_min":77,"x_max":1464,"o":"m 172 -22 q 124 62 172 -22 q 77 347 77 146 q 172 716 77 549 q 426 978 267 884 q 771 1072 586 1072 q 1034 1017 907 1072 q 1256 866 1161 961 q 1407 635 1350 771 q 1464 347 1464 498 q 1368 -22 1464 146 q 1113 -284 1272 -191 q 770 -378 954 -378 q 427 -283 587 -378 q 172 -22 268 -189 m 132 347 q 220 6 132 161 q 454 -235 309 -149 q 768 -322 600 -322 q 1088 -234 941 -322 q 1322 8 1235 -146 q 1409 347 1409 163 q 1356 613 1409 488 q 1216 827 1303 739 q 1013 965 1129 914 q 772 1017 896 1017 q 320 821 509 1017 q 132 347 132 625 m 479 0 l 479 675 l 790 675 q 1035 631 937 675 q 1156 489 1156 574 q 1091 376 1156 424 q 932 307 1026 328 l 1194 0 l 1069 0 l 825 294 l 599 294 l 599 0 l 479 0 m 599 380 l 770 380 q 962 404 902 380 q 1043 488 1038 432 q 1040 506 1042 500 q 1030 527 1039 513 q 1000 555 1022 542 q 943 579 978 568 q 785 597 888 597 l 600 597 l 599 518 l 599 380 z "},"¯":{"ha":694,"x_min":96,"x_max":596,"o":"m 96 859 l 96 947 l 596 947 l 596 859 l 96 859 z "},"°":{"ha":462,"x_min":77,"x_max":385,"o":"m 77 810 q 122 919 77 873 q 231 964 167 964 q 340 917 296 964 q 385 810 385 871 q 339 701 385 746 q 231 656 294 656 q 121 702 165 656 q 77 810 77 749 m 132 810 q 160 742 132 771 q 231 713 187 713 q 299 741 271 713 q 328 810 328 768 q 300 878 328 848 q 231 908 272 908 q 161 880 191 908 q 132 810 132 851 z "},"±":{"ha":1080,"x_min":78,"x_max":1002,"o":"m 78 25 q 117 56 78 56 l 511 56 l 511 435 l 119 435 q 78 463 78 435 q 118 490 78 490 l 511 490 l 511 882 q 539 923 511 923 q 567 884 567 924 l 567 490 l 958 490 q 1001 463 1001 490 q 960 435 1002 435 l 567 435 l 567 56 l 965 56 q 1000 28 1000 54 q 961 0 1000 0 l 117 0 q 78 25 78 0 z "},"´":{"ha":694,"x_min":264,"x_max":557,"o":"m 264 708 l 449 889 l 557 889 l 350 708 l 264 708 z "},"µ":{"ha":718,"x_min":111,"x_max":606,"o":"m 111 -271 l 111 618 l 220 618 l 220 153 q 242 83 221 104 q 330 62 264 62 q 446 101 402 62 q 496 189 490 139 q 497 229 497 203 l 497 618 l 606 618 l 606 0 l 500 0 l 500 66 q 258 -16 406 -16 q 220 -12 245 -16 l 220 -271 l 111 -271 z "},"¶":{"ha":848,"x_min":77,"x_max":807,"o":"m 77 672 q 97 781 77 725 q 159 887 118 836 q 274 970 200 937 q 441 1003 347 1003 l 765 1003 q 807 982 798 1003 q 772 947 811 949 l 693 947 l 693 -229 q 665 -269 693 -269 q 637 -229 637 -269 l 637 947 l 542 947 l 542 -225 q 514 -270 542 -270 q 486 -229 486 -269 l 486 339 q 298 378 388 345 q 142 489 208 412 q 77 672 77 566 z "},"·":{"ha":328,"x_min":102,"x_max":227,"o":"m 102 243 l 102 367 l 227 367 l 227 243 l 102 243 z "},"¸":{"ha":616,"x_min":163,"x_max":350,"o":"m 163 -267 l 265 -32 l 350 -32 l 260 -267 l 163 -267 z "},"º":{"ha":616,"x_min":35,"x_max":582,"o":"m 35 422 q 90 465 35 465 l 525 465 q 582 422 582 465 q 528 380 582 381 l 104 380 q 96 380 102 380 q 87 379 90 379 q 54 388 66 379 q 38 406 41 397 q 35 422 35 414 m 41 779 q 117 978 41 892 q 309 1064 193 1064 q 498 978 421 1064 q 575 779 575 892 q 495 584 575 663 q 309 505 415 505 q 121 584 200 505 q 41 779 41 663 m 151 791 q 195 648 151 701 q 310 595 239 595 q 417 642 368 595 q 465 791 465 689 q 417 935 465 890 q 309 979 368 979 q 199 934 248 979 q 151 791 151 888 z "},"»":{"ha":926,"x_min":139,"x_max":771,"o":"m 139 0 l 431 306 l 139 610 l 224 610 l 541 304 l 224 0 l 139 0 m 370 0 l 663 306 l 370 610 l 456 610 l 771 304 l 456 0 l 370 0 z "},"¿":{"ha":655,"x_min":77,"x_max":578,"o":"m 77 -60 q 81 -5 77 -31 q 90 36 85 20 q 107 69 96 52 q 124 93 118 86 q 144 114 131 100 q 160 132 157 127 q 261 431 262 252 l 261 490 l 354 490 l 354 449 q 245 81 354 227 q 229 59 240 74 q 215 40 218 45 q 204 23 211 35 q 195 6 197 12 q 190 -12 193 0 q 185 -36 186 -24 q 184 -65 184 -49 q 310 -200 184 -200 q 546 -119 432 -200 l 578 -208 q 310 -285 453 -285 q 130 -218 184 -285 q 77 -60 77 -151 m 250 616 l 250 733 l 367 733 l 367 616 l 250 616 z "},"À":{"ha":926,"x_min":37,"x_max":885,"o":"m 37 0 l 400 964 l 524 964 l 885 0 l 757 0 l 650 283 l 248 283 l 142 0 l 37 0 m 264 1181 l 403 1181 q 448 1165 418 1181 q 636 1055 478 1149 l 534 1055 q 530 1055 533 1055 l 528 1054 q 372 1125 512 1054 q 264 1181 307 1158 m 277 361 l 621 361 q 449 867 456 815 q 277 361 431 782 z "},"Á":{"ha":926,"x_min":37,"x_max":885,"o":"m 37 0 l 400 964 l 524 964 l 885 0 l 757 0 l 650 283 l 248 283 l 142 0 l 37 0 m 277 361 l 621 361 q 449 867 456 815 q 277 361 431 782 m 288 1055 q 503 1178 494 1175 q 522 1181 509 1181 l 659 1181 l 439 1071 l 408 1057 l 387 1055 l 288 1055 z "},"Â":{"ha":926,"x_min":37,"x_max":885,"o":"m 37 0 l 400 964 l 524 964 l 885 0 l 757 0 l 650 283 l 248 283 l 142 0 l 37 0 m 237 1010 l 408 1250 l 514 1250 l 668 1010 l 584 1010 l 453 1179 l 322 1010 l 237 1010 m 277 361 l 621 361 q 449 867 456 815 q 277 361 431 782 z "},"Ã":{"ha":926,"x_min":37,"x_max":885,"o":"m 37 0 l 400 964 l 524 964 l 885 0 l 757 0 l 650 283 l 248 283 l 142 0 l 37 0 m 231 1010 q 272 1179 232 1122 q 364 1235 311 1235 q 421 1213 395 1235 q 463 1165 447 1192 q 503 1117 479 1139 q 554 1096 526 1096 q 584 1106 572 1096 q 600 1138 595 1117 q 606 1181 604 1160 q 607 1235 607 1203 l 693 1235 q 651 1065 692 1121 q 558 1010 611 1010 q 501 1031 528 1010 q 459 1079 475 1053 q 420 1127 444 1105 q 368 1149 396 1149 q 339 1138 350 1149 q 323 1105 328 1128 q 317 1062 318 1083 q 315 1010 315 1042 l 231 1010 m 277 361 l 621 361 q 449 867 456 815 q 277 361 431 782 z "},"Ä":{"ha":926,"x_min":37,"x_max":885,"o":"m 37 0 l 400 964 l 524 964 l 885 0 l 757 0 l 650 283 l 248 283 l 142 0 l 37 0 m 264 1057 l 264 1181 l 389 1181 l 389 1057 l 264 1057 m 277 361 l 621 361 q 449 867 456 815 q 277 361 431 782 m 535 1057 l 535 1181 l 660 1181 l 660 1057 l 535 1057 z "},"Å":{"ha":926,"x_min":37,"x_max":885,"o":"m 37 0 l 376 901 q 372 903 376 901 q 365 910 370 905 q 355 920 361 914 q 342 932 349 925 q 329 949 336 940 q 317 970 322 958 q 307 995 311 982 q 300 1024 302 1007 q 297 1057 297 1040 q 341 1181 297 1128 q 452 1234 386 1234 q 562 1180 518 1234 q 606 1055 606 1126 q 543 913 606 975 l 885 0 l 757 0 l 650 283 l 248 283 l 142 0 l 37 0 m 277 361 l 621 361 q 449 867 456 815 q 277 361 431 782 m 375 1057 q 398 985 375 1006 q 452 964 421 964 q 506 985 482 964 q 529 1055 529 1006 q 506 1128 529 1107 q 452 1149 482 1149 q 399 1128 422 1149 q 375 1057 375 1107 z "},"Æ":{"ha":1196,"x_min":37,"x_max":1136,"o":"m 37 0 l 432 964 l 1117 964 l 1117 872 l 1051 872 l 1019 873 l 734 873 l 704 875 l 704 545 l 1079 545 l 1079 458 l 704 458 l 704 97 l 794 97 l 828 98 l 1053 98 l 1082 100 l 1136 100 l 1136 0 l 581 0 l 581 309 l 268 309 l 142 0 l 37 0 m 301 386 l 581 386 l 581 875 l 500 875 l 301 386 z "},"Ç":{"ha":887,"x_min":92,"x_max":817,"o":"m 92 482 q 222 846 92 699 q 526 994 353 994 q 612 992 581 994 q 693 980 643 990 q 802 947 743 970 l 781 832 q 668 888 718 871 q 545 905 618 905 q 311 781 406 905 q 216 482 216 657 q 312 181 216 304 q 549 58 407 58 q 599 60 575 58 q 639 64 623 62 q 676 74 656 66 q 706 83 696 81 q 734 97 715 86 q 758 111 753 109 q 783 127 762 114 q 808 143 804 140 l 817 46 q 687 -15 741 1 q 547 -31 633 -31 q 220 122 349 -31 q 92 482 92 275 m 395 -267 l 497 -32 l 582 -32 l 492 -267 l 395 -267 z "},"È":{"ha":829,"x_min":131,"x_max":771,"o":"m 131 0 l 131 960 l 751 960 l 751 868 l 672 868 l 637 869 l 304 869 l 256 871 l 256 542 l 714 542 l 714 457 l 256 457 l 256 97 l 374 97 l 407 98 l 676 98 l 707 100 l 771 100 l 771 0 l 131 0 m 197 1182 l 336 1182 q 376 1167 350 1182 q 570 1055 403 1153 l 461 1055 q 306 1126 446 1055 q 197 1182 240 1160 z "},"É":{"ha":829,"x_min":131,"x_max":771,"o":"m 131 0 l 131 960 l 751 960 l 751 868 l 672 868 l 637 869 l 304 869 l 256 871 l 256 542 l 714 542 l 714 457 l 256 457 l 256 97 l 374 97 l 407 98 l 676 98 l 707 100 l 771 100 l 771 0 l 131 0 m 278 1055 q 386 1118 324 1082 q 483 1173 467 1166 q 514 1181 498 1181 l 650 1181 l 431 1071 l 400 1057 l 379 1055 l 278 1055 z "},"Ê":{"ha":829,"x_min":131,"x_max":771,"o":"m 131 0 l 131 960 l 751 960 l 751 868 l 672 868 l 637 869 l 304 869 l 256 871 l 256 542 l 714 542 l 714 457 l 256 457 l 256 97 l 374 97 l 407 98 l 676 98 l 707 100 l 771 100 l 771 0 l 131 0 m 179 1010 l 353 1250 l 437 1250 l 611 1010 l 526 1010 l 395 1179 l 264 1010 l 179 1010 z "},"Ë":{"ha":829,"x_min":131,"x_max":771,"o":"m 131 0 l 131 960 l 751 960 l 751 868 l 672 868 l 637 869 l 304 869 l 256 871 l 256 542 l 714 542 l 714 457 l 256 457 l 256 97 l 374 97 l 407 98 l 676 98 l 707 100 l 771 100 l 771 0 l 131 0 m 199 1055 l 199 1179 l 323 1179 l 323 1055 l 199 1055 m 469 1055 l 469 1179 l 593 1179 l 593 1055 l 469 1055 z "},"Ì":{"ha":386,"x_min":-22,"x_max":349,"o":"m -22 1181 l 118 1181 q 162 1163 130 1181 q 349 1055 193 1146 l 241 1055 q 189 1073 226 1055 q -22 1181 153 1090 m 132 0 l 132 964 l 257 964 l 257 0 l 132 0 z "},"Í":{"ha":386,"x_min":75,"x_max":447,"o":"m 75 1055 q 290 1178 282 1175 q 310 1181 297 1181 l 447 1181 l 228 1071 l 197 1057 l 176 1055 l 75 1055 m 131 0 l 131 964 l 256 964 l 256 0 l 131 0 z "},"Î":{"ha":386,"x_min":-22,"x_max":410,"o":"m -22 1010 l 151 1250 l 236 1250 l 410 1010 l 325 1010 l 193 1179 l 64 1010 l -22 1010 m 132 0 l 132 964 l 257 964 l 257 0 l 132 0 z "},"Ï":{"ha":386,"x_min":-4,"x_max":391,"o":"m -4 1055 l -4 1179 l 121 1179 l 121 1055 l -4 1055 m 131 0 l 131 964 l 256 964 l 256 0 l 131 0 m 266 1055 l 266 1179 l 391 1179 l 391 1055 l 266 1055 z "},"Ð":{"ha":1002,"x_min":0,"x_max":925,"o":"m 0 432 l 0 514 l 132 514 l 132 964 l 473 964 q 713 899 612 964 q 870 718 814 832 q 925 475 925 603 q 812 151 925 281 q 545 3 699 21 q 478 0 522 0 l 132 0 l 132 432 l 0 432 m 253 78 l 453 78 q 724 205 627 78 q 806 473 806 313 q 714 767 806 647 q 452 886 623 886 l 254 886 l 253 835 l 253 514 l 501 514 l 501 432 l 253 432 l 253 78 z "},"Ñ":{"ha":983,"x_min":132,"x_max":848,"o":"m 132 0 l 132 964 l 306 964 l 686 208 l 741 97 l 741 964 l 848 964 l 848 0 l 675 0 l 294 755 l 240 867 l 240 0 l 132 0 m 258 1010 q 299 1179 260 1122 q 392 1235 339 1235 q 449 1213 422 1235 q 491 1165 475 1192 q 531 1117 507 1139 q 583 1096 555 1096 q 613 1106 602 1096 q 629 1138 624 1117 q 635 1181 633 1160 q 636 1235 636 1203 l 722 1235 q 681 1065 721 1121 q 589 1010 640 1010 q 532 1031 558 1010 q 489 1079 505 1053 q 449 1127 473 1105 q 397 1149 425 1149 q 356 1116 367 1149 q 345 1010 345 1083 l 258 1010 z "},"Ò":{"ha":1022,"x_min":77,"x_max":943,"o":"m 77 479 q 205 844 77 694 q 511 994 334 994 q 815 844 686 994 q 943 479 943 694 q 813 115 943 261 q 510 -31 684 -31 q 206 116 335 -31 q 77 479 77 263 m 293 793 q 247 737 293 793 q 201 499 201 681 q 288 188 201 317 q 510 60 374 60 q 731 187 642 60 q 819 498 819 314 q 728 793 819 680 q 510 905 636 905 q 293 793 385 905 m 313 1182 l 452 1182 q 492 1167 465 1182 q 685 1055 518 1153 l 576 1055 q 421 1126 561 1055 q 313 1182 355 1160 z "},"Ó":{"ha":1022,"x_min":77,"x_max":943,"o":"m 77 479 q 205 844 77 694 q 511 994 334 994 q 815 844 686 994 q 943 479 943 694 q 813 115 943 261 q 510 -31 684 -31 q 206 116 335 -31 q 77 479 77 263 m 293 793 q 247 737 293 793 q 201 499 201 681 q 288 188 201 317 q 510 60 374 60 q 731 187 642 60 q 819 498 819 314 q 728 793 819 680 q 510 905 636 905 q 293 793 385 905 m 336 1055 q 551 1178 543 1175 q 571 1181 558 1181 l 708 1181 l 488 1071 l 457 1057 l 437 1055 l 336 1055 z "},"Ô":{"ha":1022,"x_min":77,"x_max":943,"o":"m 77 479 q 205 844 77 694 q 511 994 334 994 q 815 844 686 994 q 943 479 943 694 q 813 115 943 261 q 510 -31 684 -31 q 206 116 335 -31 q 77 479 77 263 m 293 793 q 247 737 293 793 q 201 499 201 681 q 288 188 201 317 q 510 60 374 60 q 731 187 642 60 q 819 498 819 314 q 728 793 819 680 q 510 905 636 905 q 293 793 385 905 m 294 1010 l 467 1250 l 553 1250 l 726 1010 l 642 1010 l 510 1179 l 379 1010 l 294 1010 z "},"Õ":{"ha":1022,"x_min":77,"x_max":943,"o":"m 77 479 q 205 844 77 694 q 511 994 334 994 q 815 844 686 994 q 943 479 943 694 q 813 115 943 261 q 510 -31 684 -31 q 206 116 335 -31 q 77 479 77 263 m 293 793 q 247 737 293 793 q 201 499 201 681 q 288 188 201 317 q 510 60 374 60 q 731 187 642 60 q 819 498 819 314 q 728 793 819 680 q 510 905 636 905 q 293 793 385 905 m 278 1010 q 347 1208 283 1154 q 411 1235 380 1235 q 468 1213 441 1235 q 511 1165 494 1192 q 552 1117 528 1139 q 603 1096 576 1096 q 624 1101 615 1096 q 639 1117 633 1107 q 649 1138 644 1128 q 654 1165 653 1149 q 656 1190 656 1181 q 657 1215 657 1200 q 657 1235 657 1231 l 742 1235 q 673 1035 734 1085 q 608 1010 646 1010 q 551 1031 578 1010 q 508 1079 525 1053 q 467 1127 492 1105 q 416 1149 443 1149 q 395 1143 404 1149 q 380 1127 386 1137 q 372 1106 375 1117 q 367 1080 368 1096 q 365 1054 366 1064 q 364 1028 364 1043 q 364 1010 364 1014 l 278 1010 z "},"Ö":{"ha":1022,"x_min":77,"x_max":943,"o":"m 77 479 q 205 844 77 694 q 511 994 334 994 q 815 844 686 994 q 943 479 943 694 q 813 115 943 261 q 510 -31 684 -31 q 206 116 335 -31 q 77 479 77 263 m 293 793 q 247 737 293 793 q 201 499 201 681 q 288 188 201 317 q 510 60 374 60 q 731 187 642 60 q 819 498 819 314 q 728 793 819 680 q 510 905 636 905 q 293 793 385 905 m 313 1055 l 313 1179 l 438 1179 l 438 1055 l 313 1055 m 584 1055 l 584 1179 l 709 1179 l 709 1055 l 584 1055 z "},"Ø":{"ha":1080,"x_min":77,"x_max":1002,"o":"m 77 479 q 213 845 77 696 q 539 994 350 994 q 751 937 648 994 l 818 1054 l 819 1054 l 896 1010 l 823 885 q 952 711 903 819 q 1002 479 1002 604 q 864 116 1002 263 q 539 -31 726 -31 q 326 26 431 -31 l 260 -90 l 183 -46 l 254 78 q 122 259 167 153 q 77 479 77 366 m 196 478 q 302 163 196 281 l 705 860 q 539 909 621 910 q 296 791 396 909 q 196 478 196 673 m 372 104 q 424 78 408 85 q 472 62 440 71 q 541 54 504 54 q 781 170 681 54 q 882 481 882 285 q 775 800 882 670 l 774 800 l 372 104 z "},"Ù":{"ha":954,"x_min":131,"x_max":823,"o":"m 131 340 l 131 964 l 256 964 l 256 387 q 255 363 256 379 q 254 339 254 347 q 277 193 254 254 q 337 102 300 132 q 409 60 374 72 q 481 47 444 47 q 558 61 519 47 q 633 106 596 75 q 692 195 669 136 q 715 334 715 254 q 715 346 715 338 q 714 358 714 354 l 714 964 l 823 964 l 823 335 q 792 174 823 246 q 710 59 761 102 q 600 -7 660 16 q 481 -31 541 -31 q 360 -8 420 -31 q 248 57 300 14 q 163 174 196 100 q 131 340 131 248 m 279 1182 l 418 1182 q 458 1167 432 1182 q 652 1055 485 1153 l 543 1055 q 388 1126 528 1055 q 279 1182 322 1160 z "},"Ú":{"ha":954,"x_min":131,"x_max":823,"o":"m 131 340 l 131 964 l 256 964 l 256 387 q 255 363 256 379 q 254 339 254 347 q 277 193 254 254 q 337 102 300 132 q 409 60 374 72 q 481 47 444 47 q 558 61 519 47 q 633 106 596 75 q 692 195 669 136 q 715 334 715 254 q 715 346 715 338 q 714 358 714 354 l 714 964 l 823 964 l 823 335 q 792 174 823 246 q 710 59 761 102 q 600 -7 660 16 q 481 -31 541 -31 q 360 -8 420 -31 q 248 57 300 14 q 163 174 196 100 q 131 340 131 248 m 359 1055 q 468 1118 406 1082 q 565 1173 549 1166 q 596 1181 581 1181 l 732 1181 l 513 1071 l 482 1057 l 461 1055 l 359 1055 z "},"Û":{"ha":954,"x_min":131,"x_max":823,"o":"m 131 340 l 131 964 l 256 964 l 256 387 q 255 363 256 379 q 254 339 254 347 q 277 193 254 254 q 337 102 300 132 q 409 60 374 72 q 481 47 444 47 q 558 61 519 47 q 633 106 596 75 q 692 195 669 136 q 715 334 715 254 q 715 346 715 338 q 714 358 714 354 l 714 964 l 823 964 l 823 335 q 792 174 823 246 q 710 59 761 102 q 600 -7 660 16 q 481 -31 541 -31 q 360 -8 420 -31 q 248 57 300 14 q 163 174 196 100 q 131 340 131 248 m 264 1010 l 437 1250 l 517 1250 l 697 1010 l 611 1010 l 481 1179 l 350 1010 l 264 1010 z "},"Ü":{"ha":954,"x_min":131,"x_max":823,"o":"m 131 340 l 131 964 l 256 964 l 256 387 q 255 363 256 379 q 254 339 254 347 q 277 193 254 254 q 337 102 300 132 q 409 60 374 72 q 481 47 444 47 q 558 61 519 47 q 633 106 596 75 q 692 195 669 136 q 715 334 715 254 q 715 346 715 338 q 714 358 714 354 l 714 964 l 823 964 l 823 335 q 792 174 823 246 q 710 59 761 102 q 600 -7 660 16 q 481 -31 541 -31 q 360 -8 420 -31 q 248 57 300 14 q 163 174 196 100 q 131 340 131 248 m 280 1057 l 280 1181 l 405 1181 l 405 1057 l 280 1057 m 551 1057 l 551 1181 l 675 1181 l 675 1057 l 551 1057 z "},"Ý":{"ha":926,"x_min":3,"x_max":920,"o":"m 3 964 l 149 964 l 353 668 q 473 484 464 501 q 798 964 522 570 l 920 964 l 522 386 l 522 0 l 401 0 l 401 386 l 3 964 m 345 1055 q 453 1118 391 1082 q 550 1173 534 1166 q 581 1181 566 1181 l 717 1181 l 497 1071 l 467 1057 l 446 1055 l 345 1055 z "},"Þ":{"ha":809,"x_min":134,"x_max":730,"o":"m 134 0 l 134 964 l 250 964 l 250 787 l 419 787 q 565 761 501 787 q 663 693 628 734 q 714 607 697 652 q 730 519 730 562 q 652 334 730 418 q 428 250 574 250 l 250 250 l 250 0 l 134 0 m 250 328 l 392 328 q 561 388 505 328 q 618 518 618 449 q 606 578 618 547 q 568 640 595 608 q 489 690 542 671 q 364 710 436 710 l 252 710 l 250 657 l 250 328 z "},"ß":{"ha":667,"x_min":113,"x_max":619,"o":"m 113 0 l 113 783 q 133 899 113 850 q 188 971 153 947 q 262 1007 224 996 q 349 1018 301 1018 q 518 966 448 1018 q 589 790 589 914 q 573 672 589 721 q 532 602 557 624 q 484 570 507 581 q 438 556 460 559 q 414 550 416 553 q 393 460 393 533 q 400 407 393 424 q 415 386 407 390 q 450 377 424 382 q 497 366 476 372 q 581 301 543 350 q 619 176 619 253 q 573 37 619 89 q 443 -16 526 -16 q 294 47 361 -16 l 311 142 l 315 136 q 325 126 319 132 q 338 113 330 121 q 357 99 346 106 q 381 85 368 92 q 409 76 393 79 q 440 72 424 72 q 503 101 485 72 q 521 167 521 131 q 471 258 521 235 q 423 271 467 260 q 353 306 379 282 q 294 460 294 360 q 326 583 294 535 q 421 639 358 631 q 430 640 422 639 q 439 641 437 640 q 448 644 441 642 q 456 649 454 646 q 463 657 458 652 q 469 669 467 663 q 473 687 471 676 q 478 712 476 699 q 480 744 479 725 q 481 785 481 762 q 480 818 481 806 q 472 855 479 831 q 453 894 465 879 q 414 921 440 909 q 351 933 387 933 q 285 921 313 933 q 244 893 257 908 q 225 851 232 878 q 217 813 218 825 q 216 779 216 802 l 216 0 l 113 0 z "},"à":{"ha":667,"x_min":61,"x_max":555,"o":"m 61 157 q 100 247 61 208 q 202 303 139 285 q 326 331 265 322 q 447 340 386 340 l 447 387 q 411 515 444 476 q 323 557 376 557 q 115 486 216 557 l 107 579 q 325 640 212 640 q 485 577 420 640 q 555 424 550 514 l 555 0 l 450 0 l 450 49 q 425 31 445 43 q 346 1 404 18 q 220 -16 288 -16 q 101 41 140 -16 q 61 157 61 97 m 163 158 q 199 96 163 121 q 292 71 236 71 q 399 96 351 71 q 447 180 447 121 l 447 268 q 360 262 404 268 q 268 246 315 257 q 192 212 221 235 q 163 158 163 189 m 213 889 l 321 889 l 506 708 l 421 708 l 213 889 z "},"á":{"ha":667,"x_min":61,"x_max":555,"o":"m 61 157 q 100 247 61 208 q 202 303 139 285 q 326 331 265 322 q 447 340 386 340 l 447 387 q 411 515 444 476 q 323 557 376 557 q 115 486 216 557 l 107 579 q 325 640 212 640 q 485 577 420 640 q 555 424 550 514 l 555 0 l 450 0 l 450 49 q 425 31 445 43 q 346 1 404 18 q 220 -16 288 -16 q 101 41 140 -16 q 61 157 61 97 m 163 158 q 199 96 163 121 q 292 71 236 71 q 399 96 351 71 q 447 180 447 121 l 447 268 q 360 262 404 268 q 268 246 315 257 q 192 212 221 235 q 163 158 163 189 m 189 708 l 374 889 l 481 889 l 275 708 l 189 708 z "},"â":{"ha":667,"x_min":61,"x_max":555,"o":"m 61 157 q 100 247 61 208 q 202 303 139 285 q 326 331 265 322 q 447 340 386 340 l 447 387 q 411 515 444 476 q 323 557 376 557 q 115 486 216 557 l 107 579 q 325 640 212 640 q 485 577 420 640 q 555 424 550 514 l 555 0 l 450 0 l 450 49 q 425 31 445 43 q 346 1 404 18 q 220 -16 288 -16 q 101 41 140 -16 q 61 157 61 97 m 115 707 l 289 903 l 406 903 l 547 707 l 463 707 l 332 844 l 200 707 l 115 707 m 163 158 q 199 96 163 121 q 292 71 236 71 q 399 96 351 71 q 447 180 447 121 l 447 268 q 360 262 404 268 q 268 246 315 257 q 192 212 221 235 q 163 158 163 189 z "},"ã":{"ha":667,"x_min":61,"x_max":578,"o":"m 61 157 q 100 247 61 208 q 202 303 139 285 q 326 331 265 322 q 447 340 386 340 l 447 387 q 411 515 444 476 q 323 557 376 557 q 115 486 216 557 l 107 579 q 325 640 212 640 q 485 577 420 640 q 555 424 550 514 l 555 0 l 450 0 l 450 49 q 425 31 445 43 q 346 1 404 18 q 220 -16 288 -16 q 101 41 140 -16 q 61 157 61 97 m 115 734 q 157 844 117 802 q 252 886 197 886 q 348 853 289 886 q 436 819 407 819 q 477 839 463 819 q 493 888 492 859 l 578 888 q 536 778 576 821 q 441 734 496 734 q 345 768 406 734 q 257 802 285 802 q 200 734 205 802 l 115 734 m 163 158 q 199 96 163 121 q 292 71 236 71 q 399 96 351 71 q 447 180 447 121 l 447 268 q 360 262 404 268 q 268 246 315 257 q 192 212 221 235 q 163 158 163 189 z "},"ä":{"ha":667,"x_min":61,"x_max":555,"o":"m 61 157 q 100 247 61 208 q 202 303 139 285 q 326 331 265 322 q 447 340 386 340 l 447 387 q 411 515 444 476 q 323 557 376 557 q 115 486 216 557 l 107 579 q 325 640 212 640 q 485 577 420 640 q 555 424 550 514 l 555 0 l 450 0 l 450 49 q 425 31 445 43 q 346 1 404 18 q 220 -16 288 -16 q 101 41 140 -16 q 61 157 61 97 m 151 793 l 151 917 l 275 917 l 275 793 l 151 793 m 163 158 q 199 96 163 121 q 292 71 236 71 q 399 96 351 71 q 447 180 447 121 l 447 268 q 360 262 404 268 q 268 246 315 257 q 192 212 221 235 q 163 158 163 189 m 421 793 l 421 917 l 546 917 l 546 793 l 421 793 z "},"å":{"ha":667,"x_min":61,"x_max":555,"o":"m 61 157 q 100 247 61 208 q 202 303 139 285 q 326 331 265 322 q 447 340 386 340 l 447 387 q 411 515 444 476 q 323 557 376 557 q 115 486 216 557 l 107 579 q 325 640 212 640 q 485 577 420 640 q 555 424 550 514 l 555 0 l 450 0 l 450 49 q 425 31 445 43 q 346 1 404 18 q 220 -16 288 -16 q 101 41 140 -16 q 61 157 61 97 m 163 158 q 199 96 163 121 q 292 71 236 71 q 399 96 351 71 q 447 180 447 121 l 447 268 q 360 262 404 268 q 268 246 315 257 q 192 212 221 235 q 163 158 163 189 m 176 775 q 222 855 176 823 q 332 888 268 888 q 444 851 402 888 q 486 774 486 815 q 440 694 486 726 q 330 661 395 661 q 222 694 268 661 q 176 775 176 726 m 254 774 q 272 728 254 749 q 331 707 289 707 q 390 728 372 707 q 408 775 408 749 q 391 821 408 800 q 332 842 374 842 q 275 823 296 842 q 254 774 254 804 z "},"æ":{"ha":1002,"x_min":64,"x_max":962,"o":"m 64 158 q 172 293 64 245 q 446 343 281 340 l 446 387 q 411 514 443 476 q 323 557 376 557 q 114 486 215 557 l 106 579 q 325 640 216 640 q 521 532 443 640 q 732 640 606 640 q 808 626 772 640 q 881 579 844 612 q 940 476 918 546 q 962 306 962 406 l 554 306 q 555 294 554 304 q 557 276 555 283 q 560 255 558 269 q 566 230 562 241 q 575 204 570 218 q 589 175 581 189 q 607 148 597 161 q 631 121 616 134 q 663 97 646 109 q 755 71 704 71 q 947 147 855 71 l 956 56 q 754 -16 864 -15 q 526 92 622 -16 q 221 -16 452 -16 q 101 42 139 -16 q 64 158 64 100 m 165 160 q 203 95 167 120 q 293 71 239 71 q 362 78 329 71 q 424 110 395 85 q 453 175 453 135 q 452 185 453 179 q 450 213 452 192 q 447 265 449 235 q 241 235 321 262 q 219 226 229 231 q 201 215 208 221 q 187 205 193 210 q 177 196 180 201 q 172 187 174 191 q 168 178 170 183 q 166 171 167 174 q 165 164 165 168 l 165 160 m 562 382 l 880 382 q 733 554 852 554 q 630 508 679 554 q 562 382 581 463 z "},"ç":{"ha":616,"x_min":49,"x_max":576,"o":"m 49 310 q 132 539 49 439 q 354 640 215 640 q 462 628 419 640 q 570 579 505 615 l 553 488 q 449 541 485 530 q 353 551 409 551 q 208 480 258 551 q 157 310 157 408 q 211 140 157 207 q 351 74 265 74 q 570 149 460 74 l 576 56 q 350 -16 467 -15 q 136 80 222 -16 q 49 310 49 175 m 201 -267 l 304 -32 l 389 -32 l 298 -267 l 201 -267 z "},"è":{"ha":616,"x_min":47,"x_max":575,"o":"m 47 314 q 131 546 47 452 q 328 640 215 640 q 407 627 369 640 q 483 583 444 614 q 546 492 521 553 q 575 346 571 431 l 575 306 l 144 306 q 208 136 149 201 q 350 71 268 71 q 561 147 456 71 l 570 56 q 350 -16 464 -15 q 133 82 218 -16 q 47 314 47 180 m 151 382 l 496 382 q 466 474 488 436 q 417 527 444 511 q 369 549 390 543 q 328 554 347 554 q 211 500 257 554 q 151 382 165 446 m 212 889 l 319 889 l 505 708 l 420 708 l 212 889 z "},"é":{"ha":616,"x_min":47,"x_max":575,"o":"m 47 314 q 131 546 47 452 q 328 640 215 640 q 407 627 369 640 q 483 583 444 614 q 546 492 521 553 q 575 346 571 431 l 575 306 l 144 306 q 208 136 149 201 q 350 71 268 71 q 561 147 456 71 l 570 56 q 350 -16 464 -15 q 133 82 218 -16 q 47 314 47 180 m 149 708 l 334 889 l 441 889 l 235 708 l 149 708 m 151 382 l 496 382 q 466 474 488 436 q 417 527 444 511 q 369 549 390 543 q 328 554 347 554 q 211 500 257 554 q 151 382 165 446 z "},"ê":{"ha":616,"x_min":47,"x_max":575,"o":"m 47 314 q 131 546 47 452 q 328 640 215 640 q 407 627 369 640 q 483 583 444 614 q 546 492 521 553 q 575 346 571 431 l 575 306 l 144 306 q 208 136 149 201 q 350 71 268 71 q 561 147 456 71 l 570 56 q 350 -16 464 -15 q 133 82 218 -16 q 47 314 47 180 m 92 707 l 264 903 l 351 903 l 524 707 l 439 707 l 307 844 l 176 707 l 92 707 m 151 382 l 496 382 q 466 474 488 436 q 417 527 444 511 q 369 549 390 543 q 328 554 347 554 q 211 500 257 554 q 151 382 165 446 z "},"ë":{"ha":616,"x_min":47,"x_max":575,"o":"m 47 314 q 131 546 47 452 q 328 640 215 640 q 407 627 369 640 q 483 583 444 614 q 546 492 521 553 q 575 346 571 431 l 575 306 l 144 306 q 208 136 149 201 q 350 71 268 71 q 561 147 456 71 l 570 56 q 350 -16 464 -15 q 133 82 218 -16 q 47 314 47 180 m 111 793 l 111 917 l 235 917 l 235 793 l 111 793 m 151 382 l 496 382 q 466 474 488 436 q 417 527 444 511 q 369 549 390 543 q 328 554 347 554 q 211 500 257 554 q 151 382 165 446 m 381 793 l 381 917 l 506 917 l 506 793 l 381 793 z "},"ì":{"ha":332,"x_min":-45,"x_max":248,"o":"m -45 889 l 62 889 l 248 708 l 163 708 l -45 889 m 114 0 l 114 618 l 218 618 l 218 0 l 114 0 z "},"í":{"ha":332,"x_min":44,"x_max":337,"o":"m 44 708 l 229 889 l 337 889 l 130 708 l 44 708 m 113 0 l 113 618 l 216 618 l 216 0 l 113 0 z "},"î":{"ha":332,"x_min":-50,"x_max":382,"o":"m -50 707 l 124 903 l 208 903 l 382 707 l 298 707 l 165 844 l 35 707 l -50 707 m 114 0 l 114 618 l 218 618 l 218 0 l 114 0 z "},"ï":{"ha":408,"x_min":7,"x_max":401,"o":"m 7 793 l 7 917 l 132 917 l 132 793 l 7 793 m 151 0 l 151 618 l 255 618 l 255 0 l 151 0 m 277 793 l 277 917 l 401 917 l 401 793 l 277 793 z "},"ð":{"ha":694,"x_min":41,"x_max":652,"o":"m 41 306 q 129 540 41 439 q 346 640 216 640 q 486 603 411 640 q 419 714 452 672 q 330 811 386 757 l 329 811 l 197 734 l 150 819 l 245 875 q 96 940 158 922 l 170 1003 q 334 925 264 975 l 469 1003 l 518 920 l 416 861 q 583 642 515 774 q 652 346 652 510 l 652 328 q 600 126 652 208 q 490 22 557 60 q 346 -16 422 -16 q 132 76 222 -16 q 41 306 41 168 m 150 321 q 209 137 150 200 q 346 74 268 74 q 488 142 433 74 q 542 314 542 210 q 488 486 542 418 q 346 554 433 554 q 210 496 269 554 q 150 321 150 437 z "},"ñ":{"ha":718,"x_min":111,"x_max":606,"o":"m 111 0 l 111 625 l 212 625 l 212 528 q 415 632 293 632 q 504 617 467 632 q 560 579 541 602 q 590 523 579 557 q 603 463 600 489 q 606 400 606 436 l 606 0 l 497 0 l 497 390 q 496 428 497 414 q 488 467 496 441 q 468 508 481 493 q 427 535 454 524 q 361 547 400 547 q 253 485 287 547 q 220 334 220 422 l 220 0 l 111 0 m 126 734 q 168 845 127 802 q 262 888 208 888 q 359 853 300 888 q 447 819 418 819 q 488 839 473 819 q 504 888 503 859 l 589 888 q 547 778 587 821 q 452 734 507 734 q 356 768 415 734 q 268 802 297 802 q 211 734 216 802 l 126 734 z "},"ò":{"ha":694,"x_min":41,"x_max":652,"o":"m 41 307 q 131 544 41 448 q 346 640 221 640 q 564 539 477 640 q 652 306 652 439 q 560 76 652 168 q 346 -16 468 -16 q 133 77 224 -16 q 41 307 41 170 m 150 321 q 209 136 150 199 q 346 74 268 74 q 483 137 424 74 q 542 321 542 200 q 483 496 542 437 q 346 554 424 554 q 210 496 269 554 q 150 321 150 437 m 212 889 l 319 889 l 505 708 l 420 708 l 212 889 z "},"ó":{"ha":694,"x_min":41,"x_max":652,"o":"m 41 307 q 131 544 41 448 q 346 640 221 640 q 564 539 477 640 q 652 306 652 439 q 560 76 652 168 q 346 -16 468 -16 q 133 77 224 -16 q 41 307 41 170 m 150 321 q 209 136 150 199 q 346 74 268 74 q 483 137 424 74 q 542 321 542 200 q 483 496 542 437 q 346 554 424 554 q 210 496 269 554 q 150 321 150 437 m 265 708 l 450 889 l 558 889 l 351 708 l 265 708 z "},"ô":{"ha":694,"x_min":41,"x_max":652,"o":"m 41 307 q 131 544 41 448 q 346 640 221 640 q 564 539 477 640 q 652 306 652 439 q 560 76 652 168 q 346 -16 468 -16 q 133 77 224 -16 q 41 307 41 170 m 131 707 l 304 903 l 389 903 l 562 707 l 478 707 l 346 844 l 215 707 l 131 707 m 150 321 q 209 136 150 199 q 346 74 268 74 q 483 137 424 74 q 542 321 542 200 q 483 496 542 437 q 346 554 424 554 q 210 496 269 554 q 150 321 150 437 z "},"õ":{"ha":694,"x_min":41,"x_max":652,"o":"m 41 307 q 131 544 41 448 q 346 640 221 640 q 564 539 477 640 q 652 306 652 439 q 560 76 652 168 q 346 -16 468 -16 q 133 77 224 -16 q 41 307 41 170 m 115 734 q 157 845 117 802 q 252 888 197 888 q 348 853 289 888 q 436 819 407 819 q 477 839 463 819 q 493 888 492 859 l 578 888 q 536 778 576 821 q 441 734 496 734 q 345 768 404 734 q 257 802 286 802 q 200 734 205 802 l 115 734 m 150 321 q 209 136 150 199 q 346 74 268 74 q 483 137 424 74 q 542 321 542 200 q 483 496 542 437 q 346 554 424 554 q 210 496 269 554 q 150 321 150 437 z "},"ö":{"ha":694,"x_min":41,"x_max":652,"o":"m 41 307 q 131 544 41 448 q 346 640 221 640 q 564 539 477 640 q 652 306 652 439 q 560 76 652 168 q 346 -16 468 -16 q 133 77 224 -16 q 41 307 41 170 m 149 793 l 149 917 l 274 917 l 274 793 l 149 793 m 150 321 q 209 136 150 199 q 346 74 268 74 q 483 137 424 74 q 542 321 542 200 q 483 496 542 437 q 346 554 424 554 q 210 496 269 554 q 150 321 150 437 m 420 793 l 420 917 l 545 917 l 545 793 l 420 793 z "},"÷":{"ha":1080,"x_min":78,"x_max":1000,"o":"m 115 319 q 78 347 78 319 q 118 375 78 375 l 950 375 q 967 375 962 375 q 982 372 972 375 q 996 363 991 370 q 1000 347 1000 357 q 961 319 1000 319 l 115 319 m 453 -8 l 453 85 q 490 123 452 123 l 581 123 q 617 114 610 123 q 625 82 625 104 l 625 14 q 624 -22 625 -13 q 614 -40 623 -32 q 585 -47 606 -47 l 494 -47 q 461 -37 469 -47 q 453 -8 453 -26 m 453 610 l 453 703 q 490 742 453 741 l 581 742 q 614 735 603 742 q 625 703 625 728 l 625 632 q 624 596 625 606 q 614 578 623 586 q 586 571 606 571 l 494 571 q 463 578 473 571 q 453 610 453 586 z "},"ø":{"ha":694,"x_min":43,"x_max":648,"o":"m 43 307 q 131 541 43 441 q 346 640 218 640 q 468 611 401 640 l 558 772 l 559 772 l 633 730 l 539 562 q 648 307 649 452 q 560 79 648 174 q 346 -16 472 -16 q 227 11 290 -16 l 134 -155 l 58 -114 l 154 57 q 43 307 43 153 m 147 306 q 200 138 147 217 l 425 536 q 346 554 376 555 q 208 492 268 554 q 147 306 147 429 m 269 86 q 346 71 308 71 q 486 131 427 71 q 545 304 545 191 q 493 481 545 408 l 492 481 l 269 86 z "},"ù":{"ha":718,"x_min":111,"x_max":606,"o":"m 111 170 l 111 618 l 220 618 l 220 153 q 242 83 221 104 q 330 62 264 62 q 446 101 402 62 q 496 189 490 139 q 497 229 497 203 l 497 618 l 606 618 l 606 0 l 500 0 l 500 66 q 257 -16 406 -16 q 186 -2 216 -16 q 142 28 157 11 q 120 75 127 45 q 112 122 113 104 q 111 170 111 139 m 204 889 l 312 889 l 497 708 l 412 708 l 204 889 z "},"ú":{"ha":718,"x_min":111,"x_max":606,"o":"m 111 170 l 111 618 l 220 618 l 220 153 q 242 83 221 104 q 330 62 264 62 q 446 101 402 62 q 496 189 490 139 q 497 229 497 203 l 497 618 l 606 618 l 606 0 l 500 0 l 500 66 q 257 -16 406 -16 q 186 -2 216 -16 q 142 28 157 11 q 120 75 127 45 q 112 122 113 104 q 111 170 111 139 m 200 708 l 385 889 l 493 889 l 286 708 l 200 708 z "},"û":{"ha":718,"x_min":111,"x_max":606,"o":"m 111 170 l 111 618 l 220 618 l 220 153 q 242 83 221 104 q 330 62 264 62 q 446 101 402 62 q 496 189 490 139 q 497 229 497 203 l 497 618 l 606 618 l 606 0 l 500 0 l 500 66 q 257 -16 406 -16 q 186 -2 216 -16 q 142 28 157 11 q 120 75 127 45 q 112 122 113 104 q 111 170 111 139 m 143 707 l 317 903 l 401 903 l 574 707 l 490 707 l 358 844 l 227 707 l 143 707 z "},"ü":{"ha":718,"x_min":111,"x_max":606,"o":"m 111 170 l 111 618 l 220 618 l 220 153 q 242 83 221 104 q 330 62 264 62 q 446 101 402 62 q 496 189 490 139 q 497 229 497 203 l 497 618 l 606 618 l 606 0 l 500 0 l 500 66 q 257 -16 406 -16 q 186 -2 216 -16 q 142 28 157 11 q 120 75 127 45 q 112 122 113 104 q 111 170 111 139 m 161 793 l 161 917 l 286 917 l 286 793 l 161 793 m 432 793 l 432 917 l 557 917 l 557 793 l 432 793 z "},"ý":{"ha":640,"x_min":20,"x_max":619,"o":"m 20 618 l 129 618 q 262 298 218 414 q 315 153 307 183 q 330 69 322 123 q 515 618 333 166 l 619 618 l 318 -125 q 243 -251 278 -218 q 158 -285 208 -285 q 57 -273 101 -285 l 50 -183 q 151 -207 124 -207 q 208 -180 189 -207 q 265 -58 227 -153 q 281 -21 275 -35 q 286 1 286 -9 q 279 25 286 11 l 20 618 m 237 708 l 422 889 l 530 889 l 323 708 l 237 708 z "},"þ":{"ha":718,"x_min":113,"x_max":667,"o":"m 113 -271 l 113 1003 l 216 1003 l 216 550 q 447 632 318 632 q 605 536 543 632 q 667 311 667 440 q 590 76 667 168 q 408 -16 513 -16 q 221 64 305 -16 l 221 -271 l 113 -271 m 221 175 q 260 107 221 144 q 355 69 300 69 q 495 136 433 69 q 557 309 557 203 q 504 473 557 403 q 368 543 452 543 q 339 541 353 543 q 313 534 325 539 q 291 524 301 529 q 272 513 281 519 q 256 502 262 507 q 242 489 249 496 q 233 478 236 482 q 225 469 229 473 l 221 464 l 221 175 z "},"ÿ":{"ha":640,"x_min":20,"x_max":619,"o":"m 20 618 l 129 618 q 262 298 218 414 q 315 153 307 183 q 330 69 322 123 q 515 618 333 166 l 619 618 l 318 -125 q 243 -251 278 -218 q 158 -285 208 -285 q 57 -273 101 -285 l 50 -183 q 151 -207 124 -207 q 208 -180 189 -207 q 265 -58 227 -153 q 281 -21 275 -35 q 286 1 286 -9 q 279 25 286 11 l 20 618 m 123 793 l 123 917 l 248 917 l 248 793 l 123 793 m 393 793 l 393 917 l 518 917 l 518 793 l 393 793 z "},"Ā":{"ha":926,"x_min":37,"x_max":885,"o":"m 37 0 l 400 964 l 524 964 l 885 0 l 757 0 l 650 283 l 248 283 l 142 0 l 37 0 m 192 1074 l 192 1163 l 731 1163 l 731 1074 l 192 1074 m 277 361 l 621 361 q 449 867 456 815 q 277 361 431 782 z "},"ā":{"ha":667,"x_min":61,"x_max":575,"o":"m 61 157 q 100 247 61 208 q 202 303 139 285 q 326 331 265 322 q 447 340 386 340 l 447 387 q 411 515 444 476 q 323 557 376 557 q 115 486 216 557 l 107 579 q 325 640 212 640 q 485 577 420 640 q 555 424 550 514 l 555 0 l 450 0 l 450 49 q 425 31 445 43 q 346 1 404 18 q 220 -16 288 -16 q 101 41 140 -16 q 61 157 61 97 m 75 767 l 75 856 l 575 856 l 575 767 l 75 767 m 163 158 q 199 96 163 121 q 292 71 236 71 q 399 96 351 71 q 447 180 447 121 l 447 268 q 360 262 404 268 q 268 246 315 257 q 192 212 221 235 q 163 158 163 189 z "},"Ă":{"ha":926,"x_min":37,"x_max":885,"o":"m 37 0 l 400 964 l 524 964 l 885 0 l 757 0 l 650 283 l 248 283 l 142 0 l 37 0 m 216 1235 l 301 1235 q 351 1137 305 1171 q 452 1103 396 1103 q 552 1137 507 1103 q 602 1235 597 1171 l 688 1235 q 615 1073 685 1135 q 452 1010 545 1010 q 288 1073 357 1010 q 216 1235 219 1135 m 277 361 l 621 361 q 449 867 456 815 q 277 361 431 782 z "},"ă":{"ha":667,"x_min":61,"x_max":583,"o":"m 61 157 q 100 247 61 208 q 202 303 139 285 q 326 331 265 322 q 447 340 386 340 l 447 387 q 411 515 444 476 q 323 557 376 557 q 115 486 216 557 l 107 579 q 325 640 212 640 q 485 577 420 640 q 555 424 550 514 l 555 0 l 450 0 l 450 49 q 425 31 445 43 q 346 1 404 18 q 220 -16 288 -16 q 101 41 140 -16 q 61 157 61 97 m 113 888 l 197 888 q 218 833 200 856 q 262 801 236 811 q 310 788 289 791 q 349 785 330 785 q 387 788 367 785 q 433 801 407 791 q 476 833 458 811 q 497 888 494 856 l 583 888 q 510 745 581 798 q 347 692 439 692 q 185 745 256 692 q 113 888 115 798 m 163 158 q 199 96 163 121 q 292 71 236 71 q 399 96 351 71 q 447 180 447 121 l 447 268 q 360 262 404 268 q 268 246 315 257 q 192 212 221 235 q 163 158 163 189 z "},"Ą":{"ha":926,"x_min":37,"x_max":907,"o":"m 37 0 l 400 964 l 524 964 l 885 0 l 846 0 q 842 -3 846 0 q 831 -9 838 -5 q 817 -18 825 -12 q 800 -30 808 -24 q 782 -44 791 -36 q 764 -61 772 -53 q 747 -80 755 -69 q 733 -101 739 -90 q 724 -124 728 -111 q 721 -147 721 -136 q 738 -188 721 -171 q 791 -204 755 -204 q 885 -184 822 -204 l 907 -267 q 772 -301 831 -301 q 675 -267 713 -301 q 637 -178 637 -233 q 670 -79 637 -126 q 755 0 703 -32 l 650 283 l 248 283 l 142 0 l 37 0 m 277 361 l 621 361 q 449 867 456 815 q 277 361 431 782 z "},"ą":{"ha":667,"x_min":61,"x_max":602,"o":"m 61 157 q 100 247 61 208 q 202 303 139 285 q 326 331 265 322 q 447 340 386 340 l 447 387 q 411 515 444 476 q 323 557 376 557 q 231 544 275 557 q 168 519 187 530 q 115 486 149 509 l 107 579 q 325 640 212 640 q 485 577 420 640 q 555 424 550 514 l 555 0 q 514 -9 528 0 q 490 -25 506 -14 q 410 -144 410 -81 q 427 -186 410 -168 q 485 -204 444 -204 q 579 -184 509 -204 l 602 -267 q 465 -301 525 -301 q 369 -267 406 -301 q 332 -178 332 -233 q 450 0 332 -75 l 450 49 q 425 31 445 43 q 346 1 404 18 q 220 -16 288 -16 q 101 40 142 -16 q 61 157 61 96 m 163 158 q 199 96 163 121 q 292 71 236 71 q 340 76 317 71 q 390 91 364 81 q 431 125 415 102 q 447 180 447 149 l 447 268 q 360 262 404 268 q 268 246 315 257 q 192 212 221 235 q 163 158 163 189 z "},"Ć":{"ha":887,"x_min":92,"x_max":817,"o":"m 92 482 q 131 694 92 596 q 235 857 171 793 q 375 958 298 921 q 526 994 452 994 q 612 992 581 994 q 693 980 643 990 q 802 947 743 970 l 781 832 q 669 887 718 869 q 545 905 619 905 q 311 782 406 905 q 216 482 216 659 q 312 181 216 304 q 549 58 407 58 q 599 60 575 58 q 639 64 623 62 q 676 74 656 66 q 706 83 696 81 q 734 97 715 86 q 758 111 753 109 q 783 127 762 114 q 808 143 804 140 l 817 46 q 687 -15 741 1 q 547 -31 633 -31 q 220 122 349 -31 q 92 482 92 275 m 326 1055 q 542 1178 533 1175 q 561 1181 549 1181 l 697 1181 l 478 1071 l 447 1057 l 427 1055 l 326 1055 z "},"ć":{"ha":616,"x_min":49,"x_max":576,"o":"m 49 310 q 132 539 49 439 q 354 640 215 640 q 462 628 419 640 q 570 579 505 615 l 553 488 q 449 541 485 530 q 353 551 409 551 q 208 480 258 551 q 157 310 157 408 q 211 140 157 207 q 351 74 265 74 q 570 149 460 74 l 576 56 q 350 -16 467 -15 q 136 80 222 -16 q 49 310 49 175 m 207 708 l 392 889 l 500 889 l 293 708 l 207 708 z "},"Ĉ":{"ha":887,"x_min":92,"x_max":817,"o":"m 92 482 q 131 694 92 596 q 235 857 171 793 q 375 958 298 921 q 526 994 452 994 q 612 992 581 994 q 693 980 643 990 q 802 947 743 970 l 781 832 q 669 887 718 869 q 545 905 619 905 q 311 782 406 905 q 216 482 216 659 q 312 181 216 304 q 549 58 407 58 q 599 60 575 58 q 639 64 623 62 q 676 74 656 66 q 706 83 696 81 q 734 97 715 86 q 758 111 753 109 q 783 127 762 114 q 808 143 804 140 l 817 46 q 687 -15 741 1 q 547 -31 633 -31 q 220 122 349 -31 q 92 482 92 275 m 309 1010 l 480 1250 l 586 1250 l 740 1010 l 656 1010 l 525 1179 l 394 1010 l 309 1010 z "},"ĉ":{"ha":616,"x_min":49,"x_max":576,"o":"m 49 310 q 132 539 49 439 q 354 640 215 640 q 462 628 419 640 q 570 579 505 615 l 553 488 q 449 541 485 530 q 353 551 409 551 q 208 480 258 551 q 157 310 157 408 q 211 140 157 207 q 351 74 265 74 q 570 149 460 74 l 576 56 q 350 -16 467 -15 q 136 80 222 -16 q 49 310 49 175 m 138 707 l 311 903 l 395 903 l 569 707 l 485 707 l 353 844 l 222 707 l 138 707 z "},"Ċ":{"ha":887,"x_min":92,"x_max":817,"o":"m 92 482 q 131 694 92 596 q 235 857 171 793 q 375 958 298 921 q 526 994 452 994 q 612 992 581 994 q 693 980 643 990 q 802 947 743 970 l 781 832 q 669 887 718 869 q 545 905 619 905 q 311 782 406 905 q 216 482 216 659 q 312 181 216 304 q 549 58 407 58 q 599 60 575 58 q 639 64 623 62 q 676 74 656 66 q 706 83 696 81 q 734 97 715 86 q 758 111 753 109 q 783 127 762 114 q 808 143 804 140 l 817 46 q 687 -15 741 1 q 547 -31 633 -31 q 220 122 349 -31 q 92 482 92 275 m 463 1063 l 463 1187 l 587 1187 l 587 1063 l 463 1063 z "},"ċ":{"ha":616,"x_min":49,"x_max":576,"o":"m 49 310 q 132 539 49 439 q 354 640 215 640 q 462 628 419 640 q 570 579 505 615 l 553 488 q 449 541 485 530 q 353 551 409 551 q 208 480 258 551 q 157 310 157 408 q 211 140 157 207 q 351 74 265 74 q 570 149 460 74 l 576 56 q 350 -16 467 -15 q 136 80 222 -16 q 49 310 49 175 m 292 819 l 292 943 l 417 943 l 417 819 l 292 819 z "},"Č":{"ha":887,"x_min":92,"x_max":817,"o":"m 92 482 q 131 694 92 596 q 235 857 171 793 q 375 958 298 921 q 526 994 452 994 q 612 992 581 994 q 693 980 643 990 q 802 947 743 970 l 781 832 q 669 887 718 869 q 545 905 619 905 q 311 782 406 905 q 216 482 216 659 q 312 181 216 304 q 549 58 407 58 q 599 60 575 58 q 639 64 623 62 q 676 74 656 66 q 706 83 696 81 q 734 97 715 86 q 758 111 753 109 q 783 127 762 114 q 808 143 804 140 l 817 46 q 687 -15 741 1 q 547 -31 633 -31 q 220 122 349 -31 q 92 482 92 275 m 319 1235 l 404 1235 l 539 1080 l 673 1235 l 758 1235 l 589 1010 l 489 1010 l 319 1235 z "},"č":{"ha":616,"x_min":49,"x_max":576,"o":"m 49 310 q 132 539 49 439 q 354 640 215 640 q 462 628 419 640 q 570 579 505 615 l 553 488 q 449 541 485 530 q 353 551 409 551 q 208 480 258 551 q 157 310 157 408 q 211 140 157 207 q 351 74 265 74 q 570 149 460 74 l 576 56 q 350 -16 467 -15 q 136 80 222 -16 q 49 310 49 175 m 121 888 l 207 888 l 346 793 l 484 888 l 532 888 l 570 886 q 389 760 399 764 q 371 757 382 757 l 321 757 q 288 767 305 757 q 197 832 271 778 q 121 888 151 865 z "},"Ď":{"ha":1002,"x_min":132,"x_max":925,"o":"m 132 0 l 132 964 l 473 964 q 713 899 612 964 q 870 718 814 832 q 925 475 925 603 q 811 151 925 281 q 543 3 697 21 q 476 0 521 0 l 132 0 m 176 1235 l 260 1235 l 396 1080 l 530 1235 l 617 1235 l 446 1010 l 346 1010 l 176 1235 m 253 78 l 452 78 q 722 205 625 78 q 804 473 804 313 q 712 768 804 650 q 452 886 619 886 l 253 886 l 253 78 z "},"ď":{"ha":879,"x_min":49,"x_max":796,"o":"m 49 307 q 121 539 49 445 q 296 633 193 633 q 497 557 401 633 l 497 1003 l 603 1003 l 603 0 l 493 0 l 493 72 q 288 -16 403 -16 q 117 81 184 -16 q 49 307 49 178 m 157 309 q 215 128 157 185 q 345 71 273 71 q 448 110 403 71 q 493 186 493 150 l 493 452 q 464 505 493 478 q 361 547 419 547 l 358 547 q 292 535 325 547 q 228 496 260 522 q 176 422 196 471 q 157 309 157 374 m 679 829 l 715 945 l 679 945 l 679 1061 l 796 1061 l 796 965 q 791 940 795 951 q 783 920 787 929 q 765 885 779 911 q 737 829 751 859 l 679 829 z "},"Đ":{"ha":1002,"x_min":0,"x_max":925,"o":"m 0 432 l 0 514 l 132 514 l 132 964 l 473 964 q 713 899 612 964 q 870 718 814 832 q 925 475 925 603 q 812 151 925 281 q 545 3 699 21 q 478 0 522 0 l 132 0 l 132 432 l 0 432 m 253 78 l 453 78 q 724 205 627 78 q 806 473 806 313 q 714 767 806 647 q 452 886 623 886 l 254 886 l 253 835 l 253 514 l 501 514 l 501 432 l 253 432 l 253 78 z "},"đ":{"ha":718,"x_min":49,"x_max":743,"o":"m 49 307 q 121 539 49 445 q 296 633 193 633 q 497 557 401 633 l 497 765 l 232 765 l 232 847 l 497 847 l 497 1003 l 603 1003 l 603 847 l 743 847 l 743 765 l 603 765 l 603 0 l 493 0 l 493 72 q 288 -16 403 -16 q 117 81 184 -16 q 49 307 49 178 m 157 309 q 215 128 157 185 q 345 71 273 71 q 448 110 403 71 q 493 186 493 150 l 493 452 q 464 505 493 478 q 361 547 419 547 l 358 547 q 292 535 325 547 q 228 496 260 522 q 176 422 196 471 q 157 309 157 374 z "},"Ē":{"ha":829,"x_min":131,"x_max":771,"o":"m 131 0 l 131 960 l 751 960 l 751 868 l 672 868 l 637 869 l 304 869 l 256 871 l 256 542 l 714 542 l 714 457 l 256 457 l 256 97 l 374 97 l 407 98 l 676 98 l 707 100 l 771 100 l 771 0 l 131 0 m 181 1074 l 181 1163 l 720 1163 l 720 1074 l 181 1074 z "},"ē":{"ha":616,"x_min":47,"x_max":578,"o":"m 47 314 q 131 546 47 452 q 328 640 215 640 q 407 627 369 640 q 483 583 444 614 q 546 492 521 553 q 575 346 571 431 l 575 306 l 144 306 q 208 136 149 201 q 350 71 268 71 q 561 147 456 71 l 570 56 q 350 -16 464 -15 q 133 82 218 -16 q 47 314 47 180 m 77 767 l 77 856 l 578 856 l 578 767 l 77 767 m 151 382 l 496 382 q 466 474 488 436 q 417 527 444 511 q 369 549 390 543 q 328 554 347 554 q 211 500 257 554 q 151 382 165 446 z "},"Ė":{"ha":829,"x_min":131,"x_max":771,"o":"m 131 0 l 131 960 l 751 960 l 751 868 l 672 868 l 637 869 l 304 869 l 256 871 l 256 542 l 714 542 l 714 457 l 256 457 l 256 97 l 374 97 l 407 98 l 676 98 l 707 100 l 771 100 l 771 0 l 131 0 m 388 1063 l 388 1187 l 513 1187 l 513 1063 l 388 1063 z "},"ė":{"ha":616,"x_min":47,"x_max":575,"o":"m 47 314 q 131 546 47 452 q 328 640 215 640 q 407 627 369 640 q 483 583 444 614 q 546 492 521 553 q 575 346 571 431 l 575 306 l 144 306 q 208 136 149 201 q 350 71 268 71 q 561 147 456 71 l 570 56 q 350 -16 464 -15 q 133 82 218 -16 q 47 314 47 180 m 151 382 l 496 382 q 466 474 488 436 q 417 527 444 511 q 369 549 390 543 q 328 554 347 554 q 211 500 257 554 q 151 382 165 446 m 266 819 l 266 943 l 391 943 l 391 819 l 266 819 z "},"Ę":{"ha":829,"x_min":131,"x_max":771,"o":"m 131 0 l 131 960 l 751 960 l 751 868 l 672 868 l 637 869 l 304 869 l 256 871 l 256 542 l 714 542 l 714 457 l 256 457 l 256 97 l 374 97 l 407 98 l 676 98 l 707 100 l 771 100 l 771 0 l 715 0 q 679 -3 688 0 q 640 -26 669 -7 q 583 -81 610 -47 q 557 -147 557 -114 q 628 -204 557 -204 q 722 -184 660 -204 l 743 -267 q 608 -301 668 -301 q 511 -267 549 -301 q 473 -178 473 -233 q 591 0 473 -78 l 131 0 z "},"ę":{"ha":616,"x_min":47,"x_max":575,"o":"m 47 314 q 129 543 47 446 q 328 640 210 640 q 408 626 369 640 q 487 578 447 612 q 551 474 528 545 q 575 306 575 404 l 144 306 q 209 135 149 200 q 350 69 269 69 q 561 147 453 69 l 570 56 q 514 24 564 53 q 436 -23 464 -4 q 380 -78 408 -43 q 351 -147 351 -113 q 372 -190 351 -176 q 422 -204 392 -204 q 519 -184 452 -204 l 541 -267 q 406 -301 465 -301 q 308 -267 346 -301 q 271 -178 271 -233 q 367 -14 271 -92 q 357 -15 364 -14 q 347 -16 350 -16 q 136 80 224 -16 q 47 314 47 175 m 151 382 l 496 382 q 466 474 488 436 q 417 527 444 511 q 369 549 390 543 q 328 554 347 554 q 211 500 257 554 q 151 382 165 446 z "},"Ě":{"ha":829,"x_min":131,"x_max":771,"o":"m 131 0 l 131 960 l 751 960 l 751 868 l 672 868 l 637 869 l 304 869 l 256 871 l 256 542 l 714 542 l 714 457 l 256 457 l 256 97 l 374 97 l 407 98 l 676 98 l 707 100 l 771 100 l 771 0 l 131 0 m 194 1235 l 277 1235 l 414 1080 l 547 1235 l 635 1235 l 464 1010 l 363 1010 l 194 1235 z "},"ě":{"ha":616,"x_min":47,"x_max":575,"o":"m 47 314 q 131 546 47 452 q 328 640 215 640 q 407 627 369 640 q 483 583 444 614 q 546 492 521 553 q 575 346 571 431 l 575 306 l 144 306 q 208 136 149 201 q 350 71 268 71 q 561 147 456 71 l 570 56 q 350 -16 464 -15 q 133 82 218 -16 q 47 314 47 180 m 102 888 l 189 888 l 328 793 l 465 888 l 513 888 l 551 886 q 370 760 380 764 q 353 757 363 757 l 302 757 q 270 767 287 757 q 179 832 252 778 q 102 888 133 865 m 151 382 l 496 382 q 466 474 488 436 q 417 527 444 511 q 369 549 390 543 q 328 554 347 554 q 211 500 257 554 q 151 382 165 446 z "},"Ĝ":{"ha":926,"x_min":92,"x_max":832,"o":"m 92 482 q 223 845 92 696 q 543 994 354 994 q 821 928 688 994 l 800 812 q 733 859 760 843 q 656 890 707 875 q 546 905 606 905 q 310 780 403 905 q 216 484 216 654 q 312 182 216 306 q 545 58 407 58 q 724 87 616 58 l 724 329 l 539 329 l 539 415 l 832 415 l 832 36 q 543 -31 693 -31 q 222 120 353 -31 q 92 482 92 270 m 327 1010 l 498 1250 l 604 1250 l 758 1010 l 674 1010 l 543 1179 l 412 1010 l 327 1010 z "},"ĝ":{"ha":694,"x_min":37,"x_max":673,"o":"m 37 -98 q 126 45 37 -8 q 92 150 92 95 q 132 267 92 212 l 132 268 q 86 406 86 328 q 152 568 86 504 q 307 632 218 632 q 443 586 378 632 l 440 589 q 659 632 543 631 l 673 545 q 591 549 632 549 q 488 543 587 549 l 475 554 q 529 406 529 480 q 465 247 529 315 q 307 179 401 179 q 180 221 246 179 q 165 170 165 191 q 182 119 165 142 q 243 96 199 96 l 347 96 q 430 92 396 96 q 515 77 464 89 q 600 34 566 65 q 647 -46 633 3 q 654 -97 654 -74 q 564 -232 654 -178 q 346 -286 473 -286 q 127 -232 217 -286 q 37 -98 37 -178 m 91 707 l 264 903 l 349 903 l 522 707 l 438 707 l 306 844 l 175 707 l 91 707 m 135 -98 q 172 -160 135 -134 q 255 -196 210 -186 q 345 -207 301 -207 q 494 -177 432 -207 q 557 -100 557 -147 q 350 -4 557 -4 l 262 -4 l 222 -5 q 159 -37 182 -9 q 135 -98 135 -65 m 183 406 q 217 299 183 339 q 309 260 252 260 q 394 294 356 260 q 432 407 432 328 q 398 513 432 473 q 307 553 364 553 q 221 519 260 553 q 183 406 183 485 z "},"Ğ":{"ha":926,"x_min":92,"x_max":832,"o":"m 92 482 q 223 845 92 696 q 543 994 354 994 q 821 928 688 994 l 800 812 q 733 859 760 843 q 656 890 707 875 q 546 905 606 905 q 310 780 403 905 q 216 484 216 654 q 312 182 216 306 q 545 58 407 58 q 724 87 616 58 l 724 329 l 539 329 l 539 415 l 832 415 l 832 36 q 543 -31 693 -31 q 222 120 353 -31 q 92 482 92 270 m 304 1235 l 389 1235 q 438 1137 393 1171 q 539 1103 484 1103 q 640 1137 595 1103 q 689 1235 685 1171 l 775 1235 q 702 1072 772 1133 q 539 1010 632 1010 q 376 1073 445 1010 q 304 1235 307 1135 z "},"ğ":{"ha":694,"x_min":37,"x_max":673,"o":"m 37 -98 q 126 45 37 -8 q 92 150 92 95 q 132 267 92 212 l 132 268 q 86 406 86 328 q 152 568 86 504 q 307 632 218 632 q 443 586 378 632 l 440 589 q 659 632 543 631 l 673 545 q 591 549 632 549 q 488 543 587 549 l 475 554 q 529 406 529 480 q 465 247 529 315 q 307 179 401 179 q 180 221 246 179 q 165 170 165 191 q 182 119 165 142 q 243 96 199 96 l 347 96 q 430 92 396 96 q 515 77 464 89 q 600 34 566 65 q 647 -46 633 3 q 654 -97 654 -74 q 564 -232 654 -178 q 346 -286 473 -286 q 127 -232 217 -286 q 37 -98 37 -178 m 111 888 l 196 888 q 217 833 199 856 q 261 801 235 811 q 308 788 288 791 q 347 785 329 785 q 386 788 366 785 q 431 801 406 791 q 475 833 457 811 q 496 888 493 856 l 582 888 q 508 745 579 798 q 346 692 437 692 q 184 745 254 692 q 111 888 114 798 m 135 -98 q 172 -160 135 -134 q 255 -196 210 -186 q 345 -207 301 -207 q 494 -177 432 -207 q 557 -100 557 -147 q 350 -4 557 -4 l 262 -4 l 222 -5 q 159 -37 182 -9 q 135 -98 135 -65 m 183 406 q 217 299 183 339 q 309 260 252 260 q 394 294 356 260 q 432 407 432 328 q 398 513 432 473 q 307 553 364 553 q 221 519 260 553 q 183 406 183 485 z "},"Ġ":{"ha":926,"x_min":92,"x_max":832,"o":"m 92 482 q 223 845 92 696 q 543 994 354 994 q 821 928 688 994 l 800 812 q 733 859 760 843 q 656 890 707 875 q 546 905 606 905 q 310 780 403 905 q 216 484 216 654 q 312 182 216 306 q 545 58 407 58 q 724 87 616 58 l 724 329 l 539 329 l 539 415 l 832 415 l 832 36 q 543 -31 693 -31 q 222 120 353 -31 q 92 482 92 270 m 481 1063 l 481 1187 l 606 1187 l 606 1063 l 481 1063 z "},"ġ":{"ha":694,"x_min":37,"x_max":673,"o":"m 37 -98 q 126 45 37 -8 q 92 150 92 95 q 132 267 92 212 l 132 268 q 86 406 86 328 q 152 568 86 504 q 307 632 218 632 q 443 586 378 632 l 440 589 q 659 632 543 631 l 673 545 q 591 549 632 549 q 488 543 587 549 l 475 554 q 529 406 529 480 q 465 247 529 315 q 307 179 401 179 q 180 221 246 179 q 165 170 165 191 q 182 119 165 142 q 243 96 199 96 l 347 96 q 430 92 396 96 q 515 77 464 89 q 600 34 566 65 q 647 -46 633 3 q 654 -97 654 -74 q 564 -232 654 -178 q 346 -286 473 -286 q 127 -232 217 -286 q 37 -98 37 -178 m 135 -98 q 172 -160 135 -134 q 255 -196 210 -186 q 345 -207 301 -207 q 494 -177 432 -207 q 557 -100 557 -147 q 350 -4 557 -4 l 262 -4 l 222 -5 q 159 -37 182 -9 q 135 -98 135 -65 m 183 406 q 217 299 183 339 q 309 260 252 260 q 394 294 356 260 q 432 407 432 328 q 398 513 432 473 q 307 553 364 553 q 221 519 260 553 q 183 406 183 485 m 245 819 l 245 943 l 370 943 l 370 819 l 245 819 z "},"Ĥ":{"ha":983,"x_min":131,"x_max":852,"o":"m 131 0 l 131 964 l 256 964 l 256 545 l 728 545 l 728 964 l 852 964 l 852 0 l 728 0 l 728 458 l 256 458 l 256 0 l 131 0 m 275 1010 l 447 1250 l 553 1250 l 707 1010 l 623 1010 l 492 1179 l 361 1010 l 275 1010 z "},"ĥ":{"ha":718,"x_min":111,"x_max":606,"o":"m 111 0 l 111 1003 l 215 1003 l 215 533 q 415 632 298 631 q 506 615 468 632 q 562 576 543 599 q 591 517 581 553 q 604 458 602 482 q 606 400 606 433 l 606 0 l 497 0 l 497 390 q 496 428 497 414 q 488 467 496 441 q 468 508 481 493 q 427 535 454 524 q 361 547 400 547 q 253 485 287 547 q 220 334 220 422 l 220 0 l 111 0 m 142 1069 l 315 1265 l 399 1265 l 573 1069 l 489 1069 l 357 1207 l 226 1069 l 142 1069 z "},"ħ":{"ha":783,"x_min":22,"x_max":671,"o":"m 22 710 l 22 791 l 176 791 l 176 965 l 281 965 l 281 791 l 478 791 l 478 710 l 281 710 l 281 533 q 481 632 364 631 q 572 614 534 632 q 628 574 610 596 q 657 515 647 551 q 669 456 668 478 q 671 400 671 433 l 671 0 l 562 0 l 562 390 q 562 428 562 414 q 553 468 561 443 q 533 508 546 493 q 492 535 519 524 q 427 547 465 547 q 320 486 355 547 q 285 334 285 425 l 285 0 l 176 0 l 176 710 l 22 710 z "},"Ī":{"ha":386,"x_min":-57,"x_max":444,"o":"m -57 1064 l -57 1153 l 444 1153 l 444 1064 l -57 1064 m 131 0 l 131 964 l 256 964 l 256 0 l 131 0 z "},"ī":{"ha":332,"x_min":-86,"x_max":414,"o":"m -86 767 l -86 856 l 414 856 l 414 767 l -86 767 m 113 0 l 113 618 l 216 618 l 216 0 l 113 0 z "},"İ":{"ha":386,"x_min":131,"x_max":256,"o":"m 131 0 l 131 964 l 256 964 l 256 0 l 131 0 m 131 1080 l 131 1204 l 256 1204 l 256 1080 l 131 1080 z "},"ı":{"ha":332,"x_min":113,"x_max":216,"o":"m 113 0 l 113 618 l 216 618 l 216 0 l 113 0 z "},"Ĵ":{"ha":655,"x_min":57,"x_max":693,"o":"m 57 28 l 75 132 q 112 100 100 110 q 166 73 123 90 q 254 56 208 56 q 371 92 323 56 q 418 218 418 129 l 418 964 l 539 964 l 539 215 q 517 94 539 144 q 458 17 496 43 q 381 -19 421 -8 q 294 -31 340 -31 q 57 28 172 -31 m 262 1010 l 433 1250 l 539 1250 l 693 1010 l 609 1010 l 478 1179 l 347 1010 l 262 1010 z "},"ĵ":{"ha":370,"x_min":-85,"x_max":420,"o":"m -85 -237 l -57 -153 q 47 -196 -5 -195 q 115 -175 87 -196 q 150 -125 143 -154 q 153 -90 153 -114 l 153 618 l 257 618 l 257 -69 q 203 -235 257 -184 q 82 -285 149 -285 q -85 -237 -3 -285 m -11 707 l 163 903 l 247 903 l 420 707 l 336 707 l 204 844 l 73 707 l -11 707 z "},"Ĺ":{"ha":753,"x_min":12,"x_max":693,"o":"m 12 1055 q 228 1178 219 1175 q 248 1181 235 1181 l 385 1181 l 165 1071 l 135 1057 l 114 1055 l 12 1055 m 131 0 l 131 964 l 256 964 l 256 90 l 526 90 l 693 92 l 693 0 l 131 0 z "},"ĺ":{"ha":332,"x_min":47,"x_max":419,"o":"m 47 1055 q 262 1178 254 1175 q 282 1181 269 1181 l 419 1181 l 200 1071 l 170 1057 l 149 1055 l 47 1055 m 113 0 l 113 1003 l 216 1003 l 216 0 l 113 0 z "},"Ľ":{"ha":753,"x_min":131,"x_max":693,"o":"m 131 0 l 131 964 l 256 964 l 256 90 l 526 90 l 693 92 l 693 0 l 131 0 m 464 848 l 500 964 l 464 964 l 464 1080 l 581 1080 l 581 985 q 576 960 579 971 q 568 940 572 949 q 550 904 564 930 q 522 848 536 878 l 464 848 z "},"ľ":{"ha":493,"x_min":113,"x_max":411,"o":"m 113 0 l 113 1003 l 216 1003 l 216 0 l 113 0 m 294 829 l 329 945 l 294 945 l 294 1061 l 411 1061 l 411 965 q 406 940 410 951 q 399 920 403 929 q 381 885 395 911 q 353 829 367 859 l 294 829 z "},"Ł":{"ha":868,"x_min":107,"x_max":808,"o":"m 107 386 l 245 504 l 245 964 l 371 964 l 371 611 l 546 760 l 602 694 l 371 498 l 371 90 l 642 90 l 808 92 l 808 0 l 245 0 l 245 392 l 163 321 l 107 386 z "},"ł":{"ha":450,"x_min":37,"x_max":427,"o":"m 37 397 l 170 510 l 170 1003 l 275 1003 l 275 599 l 374 684 l 427 621 l 275 493 l 275 0 l 170 0 l 170 403 l 90 335 l 37 397 z "},"Ń":{"ha":983,"x_min":132,"x_max":848,"o":"m 132 0 l 132 964 l 306 964 l 686 208 l 741 97 l 741 964 l 848 964 l 848 0 l 675 0 l 294 755 l 240 867 l 240 0 l 132 0 m 315 1055 q 424 1118 361 1082 q 520 1173 505 1166 q 551 1181 536 1181 l 688 1181 l 468 1071 l 437 1057 l 416 1055 l 315 1055 z "},"ń":{"ha":718,"x_min":111,"x_max":606,"o":"m 111 0 l 111 625 l 212 625 l 212 528 q 415 632 293 632 q 504 617 467 632 q 560 579 541 602 q 590 523 579 557 q 603 463 600 489 q 606 400 606 436 l 606 0 l 497 0 l 497 390 q 496 428 497 414 q 488 467 496 441 q 468 508 481 493 q 427 535 454 524 q 361 547 400 547 q 253 485 287 547 q 220 334 220 422 l 220 0 l 111 0 m 239 708 l 424 889 l 532 889 l 325 708 l 239 708 z "},"Ň":{"ha":983,"x_min":132,"x_max":848,"o":"m 132 0 l 132 964 l 306 964 l 686 208 l 741 97 l 741 964 l 848 964 l 848 0 l 675 0 l 294 755 l 240 867 l 240 0 l 132 0 m 271 1235 l 355 1235 l 490 1080 l 625 1235 l 710 1235 l 541 1010 l 440 1010 l 271 1235 z "},"ň":{"ha":718,"x_min":90,"x_max":604,"o":"m 90 888 l 176 888 l 315 793 l 453 888 l 501 888 l 539 886 q 358 760 368 764 q 340 757 351 757 l 290 757 q 257 767 275 757 q 167 832 240 778 q 90 888 121 865 m 110 0 l 110 625 l 211 625 l 211 528 q 414 632 296 632 q 502 617 465 632 q 558 579 539 602 q 588 523 578 557 q 602 463 599 489 q 604 400 604 436 l 604 0 l 496 0 l 496 390 q 495 428 496 414 q 487 467 494 441 q 466 508 479 493 q 426 535 453 524 q 359 547 399 547 q 252 485 286 547 q 218 334 218 422 l 218 0 l 110 0 z "},"Ő":{"ha":1022,"x_min":77,"x_max":943,"o":"m 77 479 q 205 844 77 694 q 511 994 334 994 q 815 844 686 994 q 943 479 943 694 q 813 115 943 261 q 510 -31 684 -31 q 206 116 335 -31 q 77 479 77 263 m 293 793 q 247 737 293 793 q 201 499 201 681 q 288 188 201 317 q 510 60 374 60 q 731 187 642 60 q 819 498 819 314 q 728 793 819 680 q 510 905 636 905 q 293 793 385 905 m 278 1055 q 493 1178 485 1175 q 513 1181 500 1181 l 650 1181 l 431 1071 l 399 1057 l 379 1055 l 278 1055 m 509 1055 q 567 1089 538 1072 q 614 1117 596 1105 q 649 1138 632 1128 q 677 1154 667 1149 q 697 1165 688 1160 q 712 1174 707 1171 q 723 1179 718 1177 q 731 1181 728 1181 q 738 1182 734 1182 q 745 1182 741 1182 l 839 1182 l 880 1181 l 661 1071 l 631 1057 l 610 1055 l 509 1055 z "},"ő":{"ha":694,"x_min":41,"x_max":673,"o":"m 41 307 q 131 544 41 448 q 346 640 221 640 q 564 539 477 640 q 652 306 652 439 q 560 76 652 168 q 346 -16 468 -16 q 133 77 224 -16 q 41 307 41 170 m 150 321 q 209 136 150 199 q 346 74 268 74 q 483 137 424 74 q 542 321 542 200 q 483 496 542 437 q 346 554 424 554 q 210 496 269 554 q 150 321 150 437 m 150 708 l 335 889 l 443 889 l 236 708 l 150 708 m 380 708 l 566 889 l 673 889 l 467 708 l 380 708 z "},"Œ":{"ha":1350,"x_min":37,"x_max":1291,"o":"m 37 479 q 175 846 37 698 q 498 994 313 994 q 608 979 537 994 q 732 964 679 964 l 1271 964 l 1271 872 l 1192 872 l 1158 873 l 827 873 l 775 875 l 775 545 l 1232 545 l 1232 458 l 775 458 l 775 97 l 895 97 l 928 98 l 1196 98 l 1226 100 l 1291 100 l 1291 0 l 701 0 q 604 -16 671 -1 q 496 -31 538 -31 q 274 34 378 -31 q 103 217 170 98 q 37 479 37 336 m 257 790 q 208 733 257 790 q 158 497 158 676 q 257 186 158 318 q 504 54 357 54 q 626 105 598 54 q 654 318 654 155 l 654 654 q 627 858 654 810 q 514 909 600 907 l 488 909 q 257 790 357 904 z "},"œ":{"ha":1080,"x_min":41,"x_max":1040,"o":"m 41 313 q 127 543 41 446 q 335 640 212 640 q 576 503 484 640 q 676 602 614 564 q 808 640 739 640 q 885 626 848 640 q 958 579 921 612 q 1018 476 996 546 q 1040 306 1040 406 l 632 306 q 633 294 632 304 q 635 276 633 283 q 638 255 636 269 q 644 230 640 241 q 653 204 647 218 q 667 175 659 189 q 685 148 675 161 q 709 121 694 134 q 741 97 724 109 q 832 71 782 71 q 1025 147 934 71 l 1034 56 q 831 -16 939 -15 q 578 125 675 -16 q 472 22 538 60 q 335 -16 407 -16 q 129 79 217 -16 q 41 313 41 174 m 143 321 q 197 140 143 210 q 335 71 250 71 q 467 133 410 71 q 524 321 524 196 q 469 492 524 431 q 335 554 415 554 q 198 492 253 554 q 143 321 143 429 m 639 382 l 958 382 q 811 554 930 554 q 706 508 755 554 q 639 382 657 463 z "},"Ŕ":{"ha":897,"x_min":132,"x_max":857,"o":"m 132 0 l 132 964 l 446 964 q 621 938 545 964 q 738 872 697 913 q 799 788 779 831 q 818 705 818 746 q 757 555 818 625 q 581 453 696 486 l 857 0 l 732 0 l 472 439 l 253 439 l 253 0 l 132 0 m 253 525 l 436 525 q 644 580 582 525 q 705 704 705 635 q 693 764 705 734 q 653 821 681 793 q 570 868 625 850 q 440 886 515 886 l 253 886 l 253 525 m 254 1055 q 469 1178 461 1175 q 489 1181 476 1181 l 625 1181 l 406 1071 l 375 1057 l 354 1055 l 254 1055 z "},"ŕ":{"ha":475,"x_min":113,"x_max":453,"o":"m 113 0 l 113 625 l 210 625 l 210 500 q 250 551 227 526 q 330 603 273 575 q 453 632 386 631 l 453 539 q 381 526 417 538 q 305 488 345 514 q 241 410 265 463 q 216 286 216 357 l 216 0 l 113 0 m 122 708 l 307 889 l 415 889 l 208 708 l 122 708 z "},"Ř":{"ha":897,"x_min":132,"x_max":857,"o":"m 132 0 l 132 964 l 446 964 q 621 938 545 964 q 738 872 697 913 q 799 788 779 831 q 818 705 818 746 q 757 555 818 625 q 581 453 696 486 l 857 0 l 732 0 l 472 439 l 253 439 l 253 0 l 132 0 m 205 1235 l 289 1235 l 425 1080 l 559 1235 l 646 1235 l 475 1010 l 375 1010 l 205 1235 m 253 525 l 436 525 q 644 580 582 525 q 705 704 705 635 q 693 764 705 734 q 653 821 681 793 q 570 868 625 850 q 440 886 515 886 l 253 886 l 253 525 z "},"ř":{"ha":475,"x_min":83,"x_max":532,"o":"m 83 888 l 170 888 l 309 793 l 446 888 l 494 888 l 532 886 q 351 760 361 764 q 334 757 345 757 l 283 757 q 251 767 268 757 q 160 832 233 778 q 83 888 114 865 m 113 0 l 113 625 l 210 625 l 210 500 q 250 551 227 526 q 330 603 273 575 q 453 632 386 631 l 453 539 q 381 526 417 538 q 305 488 345 514 q 241 410 265 463 q 216 286 216 357 l 216 0 l 113 0 z "},"Ś":{"ha":770,"x_min":61,"x_max":693,"o":"m 61 65 l 82 180 q 379 65 228 65 q 526 121 469 65 q 582 249 582 176 q 549 348 582 303 q 463 415 517 393 q 290 461 460 416 q 141 552 205 484 q 77 721 77 621 q 163 911 77 828 q 390 994 250 994 q 644 928 521 994 l 625 812 q 517 879 567 857 q 389 901 467 901 q 243 852 298 901 q 187 737 187 803 q 219 648 187 688 q 298 589 250 608 q 399 561 318 581 q 507 530 481 542 q 638 428 584 498 q 693 262 693 358 q 605 57 693 144 q 379 -31 517 -31 q 61 65 212 -31 m 192 1055 q 407 1178 399 1175 q 427 1181 414 1181 l 562 1181 l 343 1071 l 313 1057 l 292 1055 l 192 1055 z "},"ś":{"ha":532,"x_min":37,"x_max":500,"o":"m 37 47 l 54 142 q 110 110 89 121 q 177 85 131 98 q 273 72 224 72 q 373 100 345 72 q 401 165 401 127 q 395 198 401 184 q 377 223 389 212 q 354 241 366 233 q 326 254 342 249 q 299 261 310 258 q 275 267 289 264 q 260 269 261 269 q 45 458 45 308 q 272 640 45 640 q 476 597 374 640 l 461 505 q 445 513 457 507 q 428 522 432 519 q 412 528 424 524 q 394 535 400 533 q 377 541 389 538 q 357 547 366 545 q 336 551 349 549 q 312 554 323 553 q 287 556 301 555 q 258 557 273 557 q 144 473 144 557 q 214 390 144 414 q 286 375 223 387 q 378 350 349 363 q 462 287 424 330 q 500 175 500 244 q 271 -16 500 -16 q 37 47 153 -15 m 153 708 l 338 889 l 446 889 l 239 708 l 153 708 z "},"Ŝ":{"ha":770,"x_min":61,"x_max":693,"o":"m 61 65 l 82 180 q 379 65 228 65 q 526 121 469 65 q 582 249 582 176 q 549 348 582 303 q 463 415 517 393 q 290 461 460 416 q 141 552 205 484 q 77 721 77 621 q 163 911 77 828 q 390 994 250 994 q 644 928 521 994 l 625 812 q 517 879 567 857 q 389 901 467 901 q 243 852 298 901 q 187 737 187 803 q 219 648 187 688 q 298 589 250 608 q 399 561 318 581 q 507 530 481 542 q 638 428 584 498 q 693 262 693 358 q 605 57 693 144 q 379 -31 517 -31 q 61 65 212 -31 m 174 1010 l 345 1250 l 451 1250 l 605 1010 l 521 1010 l 390 1179 l 259 1010 l 174 1010 z "},"ŝ":{"ha":532,"x_min":37,"x_max":500,"o":"m 37 47 l 54 142 q 72 131 57 140 q 95 118 87 122 q 120 105 103 114 q 152 92 138 97 q 186 82 167 87 q 227 74 205 77 q 272 72 249 72 q 371 101 341 72 q 401 167 401 131 q 376 224 401 201 q 323 256 351 248 q 262 270 310 260 q 191 286 214 279 q 90 348 134 304 q 46 457 46 392 q 56 517 46 489 q 88 576 65 546 q 159 623 111 606 q 273 640 207 640 q 476 597 373 640 l 461 505 q 445 513 460 507 q 429 521 431 519 q 413 528 427 522 q 395 535 400 533 q 378 541 390 536 q 358 547 366 546 q 338 551 351 547 q 315 555 325 554 q 291 556 304 555 q 261 557 277 557 q 171 531 197 557 q 144 472 144 505 q 181 406 144 426 q 285 374 218 386 q 379 350 351 363 q 465 283 429 328 q 500 176 500 239 q 490 114 500 144 q 458 53 481 83 q 387 3 435 22 q 273 -16 339 -16 q 37 47 151 -15 m 57 707 l 231 903 l 315 903 l 488 707 l 404 707 l 272 844 l 141 707 l 57 707 z "},"Ş":{"ha":770,"x_min":61,"x_max":693,"o":"m 61 65 l 82 180 q 379 65 225 65 q 526 121 469 65 q 582 249 582 176 q 549 348 582 303 q 463 415 517 393 q 290 461 460 416 q 141 552 205 484 q 77 721 77 621 q 163 911 77 828 q 390 994 249 994 q 644 928 521 994 l 625 812 q 517 879 567 857 q 389 901 467 901 q 241 851 296 901 q 187 736 187 800 q 219 648 187 687 q 298 589 250 608 q 399 561 318 581 q 507 530 481 542 q 638 429 583 498 q 693 262 693 359 q 606 58 693 146 q 379 -31 519 -31 q 61 65 212 -31 m 240 -267 l 343 -32 l 428 -32 l 338 -267 l 240 -267 z "},"ş":{"ha":532,"x_min":37,"x_max":500,"o":"m 37 47 l 54 142 q 110 110 89 121 q 177 85 131 98 q 273 72 224 72 q 373 100 345 72 q 401 165 401 127 q 395 198 401 184 q 377 223 389 212 q 354 241 366 233 q 326 254 342 249 q 299 261 310 258 q 275 267 289 264 q 260 269 261 269 q 45 458 45 308 q 272 640 45 640 q 476 597 374 640 l 461 505 q 445 513 457 507 q 428 522 432 519 q 412 528 424 524 q 394 535 400 533 q 377 541 389 538 q 357 547 366 545 q 336 551 349 549 q 312 554 323 553 q 287 556 301 555 q 258 557 273 557 q 144 473 144 557 q 214 390 144 414 q 286 376 222 387 q 379 350 350 364 q 462 287 424 330 q 500 175 500 244 q 271 -16 500 -16 q 37 47 153 -15 m 127 -267 l 231 -32 l 315 -32 l 225 -267 l 127 -267 z "},"Š":{"ha":770,"x_min":61,"x_max":693,"o":"m 61 65 l 82 180 q 379 65 228 65 q 526 121 469 65 q 582 249 582 176 q 549 348 582 303 q 463 415 517 393 q 290 461 460 416 q 141 552 205 484 q 77 721 77 621 q 163 911 77 828 q 390 994 250 994 q 644 928 521 994 l 625 812 q 517 879 567 857 q 389 901 467 901 q 243 852 298 901 q 187 737 187 803 q 219 648 187 688 q 298 589 250 608 q 399 561 318 581 q 507 530 481 542 q 638 428 584 498 q 693 262 693 358 q 605 57 693 144 q 379 -31 517 -31 q 61 65 212 -31 m 165 1235 l 250 1235 l 385 1080 l 519 1235 l 604 1235 l 435 1010 l 335 1010 l 165 1235 z "},"š":{"ha":532,"x_min":37,"x_max":500,"o":"m 37 47 l 54 142 q 275 72 167 73 q 401 167 401 72 q 399 188 401 178 q 392 206 396 199 q 380 221 387 214 q 368 233 374 228 q 354 243 363 239 q 338 250 345 248 q 323 256 332 253 q 311 260 315 258 q 300 262 307 261 l 293 264 q 263 269 289 265 q 229 276 237 273 q 197 285 220 279 q 162 296 174 290 q 133 312 150 302 q 102 335 115 322 q 77 364 89 347 q 46 458 46 407 q 272 640 46 640 q 478 597 375 640 l 461 505 q 445 513 457 507 q 428 522 432 519 q 412 528 424 524 q 394 535 400 533 q 377 541 389 538 q 357 547 366 545 q 336 551 349 549 q 312 554 323 553 q 287 556 301 555 q 258 557 273 557 q 144 473 144 557 q 180 407 144 427 q 283 374 216 386 q 374 353 350 363 q 463 284 427 329 q 500 175 500 240 q 272 -16 500 -16 q 37 47 153 -15 m 37 888 l 123 888 l 262 793 l 400 888 l 449 888 l 486 886 q 306 760 315 764 q 288 757 299 757 l 237 757 q 204 767 222 757 q 114 832 187 778 q 37 888 68 865 z "},"Ţ":{"ha":944,"x_min":49,"x_max":893,"o":"m 49 865 l 49 957 l 893 957 l 893 865 l 696 865 l 533 867 l 533 0 l 410 0 l 410 867 l 245 865 l 49 865 m 327 -267 l 429 -32 l 514 -32 l 424 -267 l 327 -267 z "},"ţ":{"ha":501,"x_min":25,"x_max":461,"o":"m 25 536 l 25 618 l 144 618 l 144 793 l 241 793 l 241 618 l 437 618 l 437 536 l 241 536 l 241 186 q 315 74 241 73 q 439 119 374 74 l 461 37 q 254 -16 363 -16 q 165 33 189 -16 q 142 170 142 82 l 142 536 l 25 536 m 163 -267 l 265 -32 l 350 -32 l 260 -267 l 163 -267 z "},"Ť":{"ha":944,"x_min":49,"x_max":893,"o":"m 49 865 l 49 957 l 893 957 l 893 865 l 696 865 l 533 867 l 533 0 l 410 0 l 410 867 l 245 865 l 49 865 m 251 1235 l 334 1235 l 471 1080 l 604 1235 l 692 1235 l 521 1010 l 420 1010 l 251 1235 z "},"ť":{"ha":501,"x_min":25,"x_max":496,"o":"m 25 536 l 25 618 l 144 618 l 144 793 l 241 793 l 241 618 l 437 618 l 437 536 l 241 536 l 241 186 q 315 74 241 73 q 439 119 374 74 l 461 37 q 254 -16 363 -16 q 166 32 191 -16 q 142 170 142 79 l 142 536 l 25 536 m 379 677 l 415 793 l 379 793 l 379 909 l 496 909 l 496 814 q 491 789 494 800 q 484 769 488 778 q 466 733 479 760 q 437 677 452 707 l 379 677 z "},"Ū":{"ha":954,"x_min":131,"x_max":823,"o":"m 131 340 l 131 964 l 256 964 l 256 387 q 255 363 256 379 q 254 339 254 347 q 277 193 254 254 q 337 102 300 132 q 409 60 374 72 q 481 47 444 47 q 558 61 519 47 q 633 106 596 75 q 692 195 669 136 q 715 334 715 254 q 715 346 715 338 q 714 358 714 354 l 714 964 l 823 964 l 823 335 q 792 174 823 246 q 710 59 761 102 q 600 -7 660 16 q 481 -31 541 -31 q 360 -8 420 -31 q 248 57 300 14 q 163 174 196 100 q 131 340 131 248 m 209 1074 l 209 1163 l 748 1163 l 748 1074 l 209 1074 z "},"ū":{"ha":718,"x_min":108,"x_max":608,"o":"m 108 767 l 108 856 l 608 856 l 608 767 l 108 767 m 111 170 l 111 618 l 220 618 l 220 153 q 242 83 221 104 q 330 62 264 62 q 446 101 402 62 q 496 189 490 139 q 497 229 497 203 l 497 618 l 606 618 l 606 0 l 500 0 l 500 66 q 257 -16 406 -16 q 186 -2 216 -16 q 142 28 157 11 q 120 75 127 45 q 112 122 113 104 q 111 170 111 139 z "},"Ŭ":{"ha":954,"x_min":131,"x_max":823,"o":"m 131 340 l 131 964 l 256 964 l 256 387 q 255 363 256 379 q 254 339 254 347 q 277 193 254 254 q 337 102 300 132 q 409 60 374 72 q 481 47 444 47 q 558 61 519 47 q 633 106 596 75 q 692 195 669 136 q 715 334 715 254 q 715 346 715 338 q 714 358 714 354 l 714 964 l 823 964 l 823 335 q 792 174 823 246 q 710 59 761 102 q 600 -7 660 16 q 481 -31 541 -31 q 360 -8 420 -31 q 248 57 300 14 q 163 174 196 100 q 131 340 131 248 m 242 1235 l 327 1235 q 377 1137 331 1171 q 478 1103 422 1103 q 581 1138 538 1103 q 628 1235 624 1174 l 714 1235 q 641 1073 711 1135 q 478 1010 571 1010 q 314 1073 384 1010 q 242 1235 243 1135 z "},"ŭ":{"ha":718,"x_min":111,"x_max":606,"o":"m 111 170 l 111 618 l 220 618 l 220 153 q 242 83 221 104 q 330 62 264 62 q 446 101 402 62 q 496 189 490 139 q 497 229 497 203 l 497 618 l 606 618 l 606 0 l 500 0 l 500 66 q 257 -16 406 -16 q 186 -2 216 -16 q 142 28 157 11 q 120 75 127 45 q 112 122 113 104 q 111 170 111 139 m 122 888 l 207 888 q 228 833 210 856 q 272 801 245 811 q 319 788 298 791 q 358 785 340 785 q 396 788 376 785 q 442 801 416 791 q 486 833 468 811 q 507 888 504 856 l 593 888 q 519 745 590 798 q 357 692 448 692 q 195 745 265 692 q 122 888 125 798 z "},"Ů":{"ha":954,"x_min":131,"x_max":823,"o":"m 131 340 l 131 964 l 256 964 l 256 387 q 255 363 256 379 q 254 339 254 347 q 277 193 254 254 q 337 102 300 132 q 409 60 374 72 q 481 47 444 47 q 558 61 519 47 q 633 106 596 75 q 692 195 669 136 q 715 334 715 254 q 715 346 715 338 q 714 358 714 354 l 714 964 l 823 964 l 823 335 q 792 174 823 246 q 710 59 761 102 q 600 -7 660 16 q 481 -31 541 -31 q 360 -8 420 -31 q 248 57 300 14 q 163 174 196 100 q 131 340 131 248 m 326 1079 q 373 1190 326 1145 q 481 1234 419 1234 q 591 1187 547 1234 q 635 1079 635 1140 q 588 969 635 1013 q 481 925 541 925 q 370 971 413 925 q 326 1079 326 1017 m 482 1149 q 404 1079 404 1149 q 480 1010 404 1010 q 557 1079 557 1010 q 482 1149 557 1149 z "},"ů":{"ha":718,"x_min":111,"x_max":606,"o":"m 111 170 l 111 618 l 220 618 l 220 153 q 242 83 221 104 q 330 62 264 62 q 446 101 402 62 q 496 189 490 139 q 497 229 497 203 l 497 618 l 606 618 l 606 0 l 500 0 l 500 66 q 257 -16 406 -16 q 186 -2 216 -16 q 142 28 157 11 q 120 75 127 45 q 112 122 113 104 q 111 170 111 139 m 204 775 q 247 853 204 818 q 358 888 289 888 q 470 851 429 888 q 512 774 512 815 q 470 696 512 731 q 358 661 427 661 q 246 697 288 661 q 204 775 204 734 m 281 774 q 299 728 281 749 q 358 707 316 707 q 416 728 398 707 q 435 775 435 750 q 417 821 435 800 q 358 842 399 842 q 302 824 323 842 q 281 774 281 806 z "},"Ű":{"ha":954,"x_min":131,"x_max":848,"o":"m 131 340 l 131 964 l 256 964 l 256 387 q 255 363 256 379 q 254 339 254 347 q 277 193 254 254 q 337 102 300 132 q 409 60 374 72 q 481 47 444 47 q 558 61 519 47 q 633 106 596 75 q 692 195 669 136 q 715 334 715 254 q 715 346 715 338 q 714 358 714 354 l 714 964 l 823 964 l 823 335 q 792 174 823 246 q 710 59 761 102 q 600 -7 660 16 q 481 -31 541 -31 q 360 -8 420 -31 q 248 57 300 14 q 163 174 196 100 q 131 340 131 248 m 245 1055 q 303 1089 274 1072 q 350 1117 332 1105 q 386 1138 368 1128 q 413 1154 403 1149 q 434 1165 424 1160 q 449 1174 444 1171 q 459 1179 454 1177 q 468 1181 465 1181 q 474 1182 471 1182 q 481 1182 477 1182 l 575 1182 l 617 1181 l 397 1071 l 367 1057 l 346 1055 l 245 1055 m 475 1055 q 534 1089 505 1072 q 581 1117 563 1105 q 616 1138 599 1128 q 644 1154 633 1149 q 664 1165 654 1160 q 680 1174 674 1171 q 690 1179 685 1177 q 699 1181 695 1181 q 705 1182 702 1182 q 711 1182 707 1182 l 806 1182 l 848 1181 l 628 1071 l 597 1057 l 576 1055 l 475 1055 z "},"ű":{"ha":718,"x_min":111,"x_max":686,"o":"m 111 170 l 111 618 l 220 618 l 220 153 q 242 83 221 104 q 330 62 264 62 q 446 101 402 62 q 496 189 490 139 q 497 229 497 203 l 497 618 l 606 618 l 606 0 l 500 0 l 500 66 q 257 -16 406 -16 q 186 -2 216 -16 q 142 28 157 11 q 120 75 127 45 q 112 122 113 104 q 111 170 111 139 m 161 708 l 346 889 l 454 889 l 247 708 l 161 708 m 393 708 l 578 889 l 686 889 l 479 708 l 393 708 z "},"Ÿ":{"ha":926,"x_min":3,"x_max":920,"o":"m 3 964 l 149 964 l 353 668 q 473 484 464 501 q 798 964 522 570 l 920 964 l 522 386 l 522 0 l 401 0 l 401 386 l 3 964 m 264 1057 l 264 1181 l 389 1181 l 389 1057 l 264 1057 m 535 1057 l 535 1181 l 660 1181 l 660 1057 l 535 1057 z "},"Ź":{"ha":848,"x_min":77,"x_max":778,"o":"m 77 0 l 77 35 q 79 61 77 54 q 94 87 81 68 l 611 878 l 383 876 l 96 876 l 96 964 l 771 964 l 771 930 q 771 923 771 926 q 770 916 771 920 q 770 911 770 913 q 769 907 770 909 q 767 903 768 904 q 764 898 766 901 q 762 893 762 895 q 758 887 761 892 q 753 879 754 882 l 236 90 l 525 90 l 557 92 l 778 92 l 778 0 l 77 0 m 268 1055 q 376 1118 314 1082 q 473 1173 457 1166 q 504 1181 489 1181 l 640 1181 l 421 1071 l 389 1057 l 370 1055 l 268 1055 z "},"ź":{"ha":604,"x_min":37,"x_max":557,"o":"m 37 0 l 37 57 l 407 536 l 366 534 l 57 534 l 57 618 l 553 618 l 553 562 l 184 86 l 464 86 l 493 87 l 557 87 l 557 0 l 37 0 m 187 708 l 372 889 l 480 889 l 273 708 l 187 708 z "},"Ż":{"ha":848,"x_min":77,"x_max":778,"o":"m 77 0 l 77 35 q 79 61 77 54 q 94 87 81 68 l 611 878 l 383 876 l 96 876 l 96 964 l 771 964 l 771 930 q 771 923 771 926 q 770 916 771 920 q 770 911 770 913 q 769 907 770 909 q 767 903 768 904 q 764 898 766 901 q 762 893 762 895 q 758 887 761 892 q 753 879 754 882 l 236 90 l 525 90 l 557 92 l 778 92 l 778 0 l 77 0 m 400 1080 l 400 1204 l 525 1204 l 525 1080 l 400 1080 z "},"ż":{"ha":604,"x_min":37,"x_max":557,"o":"m 37 0 l 37 57 l 407 536 l 366 534 l 57 534 l 57 618 l 553 618 l 553 562 l 184 86 l 464 86 l 493 87 l 557 87 l 557 0 l 37 0 m 266 819 l 266 943 l 391 943 l 391 819 l 266 819 z "},"Ž":{"ha":848,"x_min":77,"x_max":778,"o":"m 77 0 l 77 35 q 79 61 77 54 q 94 87 81 68 l 611 878 l 383 876 l 96 876 l 96 964 l 771 964 l 771 930 q 771 923 771 926 q 770 916 771 920 q 770 911 770 913 q 769 907 770 909 q 767 903 768 904 q 764 898 766 901 q 762 893 762 895 q 758 887 761 892 q 753 879 754 882 l 236 90 l 525 90 l 557 92 l 778 92 l 778 0 l 77 0 m 205 1235 l 289 1235 l 425 1080 l 559 1235 l 646 1235 l 475 1010 l 375 1010 l 205 1235 z "},"ž":{"ha":604,"x_min":37,"x_max":557,"o":"m 37 0 l 37 57 l 407 536 l 366 534 l 57 534 l 57 618 l 553 618 l 553 562 l 184 86 l 464 86 l 493 87 l 557 87 l 557 0 l 37 0 m 81 888 l 167 888 l 306 793 l 444 888 l 492 888 l 530 886 q 349 760 359 764 q 331 757 342 757 l 281 757 q 248 767 265 757 q 157 832 231 778 q 81 888 111 865 z "},"ƒ":{"ha":861,"x_min":8,"x_max":852,"o":"m 8 -237 l 56 -153 q 150 -196 98 -195 q 207 -185 182 -196 q 245 -158 232 -174 q 266 -125 258 -142 q 275 -97 273 -109 l 278 -86 l 411 536 l 309 536 l 325 618 l 428 618 q 438 669 432 640 q 447 711 444 699 q 454 742 450 724 q 460 768 458 761 q 465 787 461 775 q 469 804 468 799 q 473 816 471 808 q 479 829 476 823 q 486 843 482 835 q 516 892 497 867 q 566 948 534 917 q 645 999 597 979 q 747 1018 693 1018 q 852 1003 802 1018 l 831 909 q 725 933 771 933 q 650 915 684 933 q 603 878 616 896 q 581 843 589 860 q 528 618 574 826 l 686 618 l 669 536 l 517 536 l 395 -37 q 361 -149 378 -118 q 329 -201 349 -175 q 263 -256 309 -228 q 167 -285 218 -285 q 8 -237 80 -285 z "},"Ș":{"ha":770,"x_min":61,"x_max":693,"o":"m 61 65 l 82 180 q 379 65 228 65 q 526 121 469 65 q 582 249 582 176 q 549 348 582 303 q 463 415 517 393 q 290 461 460 416 q 141 552 205 484 q 77 721 77 621 q 163 911 77 828 q 390 994 250 994 q 644 928 521 994 l 625 812 q 517 879 567 857 q 389 901 467 901 q 243 852 298 901 q 187 737 187 803 q 219 648 187 688 q 298 589 250 608 q 399 561 318 581 q 507 530 481 542 q 638 428 584 498 q 693 262 693 358 q 605 57 693 144 q 379 -31 517 -31 q 61 65 212 -31 m 338 -100 l 418 -100 l 418 -168 q 397 -245 414 -199 q 378 -302 380 -292 l 338 -302 l 363 -182 l 338 -182 l 338 -100 z "},"ș":{"ha":532,"x_min":37,"x_max":500,"o":"m 37 47 l 54 142 q 72 131 57 140 q 95 118 87 122 q 120 105 103 114 q 152 92 138 97 q 186 82 167 87 q 227 74 205 77 q 272 72 249 72 q 371 101 341 72 q 401 167 401 131 q 376 224 401 201 q 323 256 351 248 q 262 270 310 260 q 191 286 214 279 q 90 348 134 304 q 46 457 46 392 q 56 517 46 489 q 88 576 65 546 q 159 623 111 606 q 273 640 207 640 q 476 597 373 640 l 461 505 q 445 513 460 507 q 429 521 431 519 q 413 528 427 522 q 395 535 400 533 q 378 541 390 536 q 358 547 366 546 q 338 551 351 547 q 315 555 325 554 q 291 556 304 555 q 261 557 277 557 q 171 531 197 557 q 144 472 144 505 q 181 406 144 426 q 285 374 218 386 q 379 350 351 363 q 465 283 429 328 q 500 176 500 239 q 490 114 500 144 q 458 53 481 83 q 387 3 435 22 q 273 -16 339 -16 q 37 47 151 -15 m 229 -85 l 310 -85 l 310 -153 q 289 -230 306 -184 q 269 -288 272 -277 l 229 -288 l 254 -167 l 229 -167 l 229 -85 z "},"Ț":{"ha":944,"x_min":49,"x_max":893,"o":"m 49 865 l 49 957 l 893 957 l 893 865 l 696 865 l 533 867 l 533 0 l 410 0 l 410 867 l 245 865 l 49 865 m 431 -69 l 511 -69 l 511 -138 q 490 -215 507 -168 q 471 -272 473 -261 l 431 -272 l 456 -151 l 431 -151 l 431 -69 z "},"ț":{"ha":501,"x_min":25,"x_max":461,"o":"m 25 536 l 25 618 l 144 618 l 144 793 l 241 793 l 241 618 l 437 618 l 437 536 l 241 536 l 241 195 q 317 74 241 74 q 439 119 375 74 l 461 37 q 256 -16 363 -16 q 142 163 142 -16 l 142 536 l 25 536 m 203 -85 l 283 -85 l 283 -153 q 262 -230 279 -184 q 243 -288 245 -277 l 203 -288 l 228 -167 l 203 -167 l 203 -85 z "},"ˆ":{"ha":694,"x_min":131,"x_max":562,"o":"m 131 707 l 304 903 l 389 903 l 562 707 l 478 707 l 346 844 l 215 707 l 131 707 z "},"ˇ":{"ha":694,"x_min":122,"x_max":571,"o":"m 122 888 l 208 888 l 347 793 l 485 888 l 533 888 l 571 886 q 390 760 400 764 q 372 757 383 757 l 322 757 q 289 767 307 757 q 199 832 272 778 q 122 888 153 865 z "},"˘":{"ha":694,"x_min":111,"x_max":582,"o":"m 111 888 l 196 888 q 217 833 199 856 q 261 801 235 811 q 308 788 288 791 q 347 785 329 785 q 386 788 366 785 q 431 801 406 791 q 475 833 457 811 q 496 888 493 856 l 582 888 q 508 745 579 798 q 346 692 437 692 q 184 745 254 692 q 111 888 114 798 z "},"˙":{"ha":386,"x_min":151,"x_max":275,"o":"m 151 819 l 151 943 l 275 943 l 275 819 l 151 819 z "},"˚":{"ha":926,"x_min":307,"x_max":615,"o":"m 307 775 q 350 853 307 818 q 461 888 392 888 q 573 851 532 888 q 615 774 615 815 q 573 696 615 731 q 461 661 530 661 q 349 697 391 661 q 307 775 307 734 m 385 774 q 402 728 385 749 q 461 707 419 707 q 519 728 501 707 q 538 775 538 750 q 520 821 538 800 q 461 842 503 842 q 406 824 427 842 q 385 774 385 806 z "},"˛":{"ha":386,"x_min":-40,"x_max":286,"o":"m -40 -182 q -7 -98 -40 -137 q 99 -5 25 -58 q 193 66 174 49 l 231 0 q 169 -48 217 -12 q 97 -109 121 -83 q 74 -160 74 -135 q 77 -175 74 -164 q 119 -195 92 -195 q 215 -126 170 -195 l 286 -175 q 103 -297 214 -297 q 4 -264 47 -297 q -40 -182 -40 -231 z "},"˜":{"ha":694,"x_min":115,"x_max":578,"o":"m 115 734 q 157 845 117 802 q 252 888 197 888 q 348 853 289 888 q 436 819 407 819 q 477 839 463 819 q 493 888 492 859 l 578 888 q 536 778 576 821 q 441 734 496 734 q 345 768 404 734 q 257 802 286 802 q 200 734 205 802 l 115 734 z "},"˝":{"ha":694,"x_min":149,"x_max":673,"o":"m 149 708 l 334 889 l 441 889 l 235 708 l 149 708 m 380 708 l 566 889 l 673 889 l 467 708 l 380 708 z "},"ʹ":{"ha":269,"x_min":18,"x_max":254,"o":"m 18 688 l 144 964 l 254 964 l 103 688 l 18 688 z "},"͵":{"ha":269,"x_min":33,"x_max":269,"o":"m 33 -278 l 183 0 l 269 0 l 142 -278 l 33 -278 z "},"ͺ":{"ha":154,"x_min":22,"x_max":131,"o":"m 22 -93 l 131 -93 l 131 -264 q 77 -330 131 -330 q 22 -265 22 -330 l 22 -93 z "},";":{"ha":386,"x_min":123,"x_max":254,"o":"m 123 -113 q 170 3 168 -61 l 171 4 q 135 58 135 26 q 150 99 135 82 q 190 115 165 115 q 235 90 215 115 q 254 3 254 65 q 183 -174 254 -99 l 123 -113 m 152 519 q 143 528 152 519 q 135 560 135 536 q 153 600 135 583 q 193 616 171 616 q 234 599 218 616 q 250 559 250 582 q 233 518 250 536 q 193 501 215 501 q 152 519 168 501 z "},"΄":{"ha":232,"x_min":-11,"x_max":225,"o":"m -11 688 l 115 964 l 225 964 l 74 688 l -11 688 z "},"΅":{"ha":386,"x_min":17,"x_max":368,"o":"m 29 717 q 23 724 29 717 q 17 747 17 730 q 28 777 17 764 q 58 790 40 790 q 89 778 77 790 q 102 749 102 765 q 91 717 102 730 q 60 704 79 704 q 29 717 41 704 m 103 688 l 229 964 l 339 964 l 187 688 l 103 688 m 294 717 q 288 724 294 717 q 282 747 282 730 q 295 777 282 764 q 325 790 307 790 q 356 778 343 790 q 368 749 368 765 q 356 717 368 730 q 325 704 345 704 q 294 717 307 704 z "},"Ά":{"ha":926,"x_min":-11,"x_max":885,"o":"m -11 688 l 115 964 l 225 964 l 74 688 l -11 688 m 37 0 l 400 964 l 524 964 l 885 0 l 757 0 l 650 283 l 248 283 l 142 0 l 37 0 m 277 361 l 621 361 q 449 867 456 815 q 277 361 431 782 z "},"·":{"ha":386,"x_min":134,"x_max":249,"o":"m 150 519 q 142 528 150 519 q 134 560 134 536 q 152 600 134 583 q 192 616 170 616 q 233 599 217 616 q 249 559 249 582 q 231 518 249 536 q 192 501 214 501 q 150 519 167 501 z "},"Έ":{"ha":1061,"x_min":-11,"x_max":1003,"o":"m -11 688 l 115 964 l 225 964 l 74 688 l -11 688 m 363 0 l 363 960 l 983 960 l 983 868 l 904 868 l 869 869 l 536 869 l 488 871 l 488 542 l 946 542 l 946 457 l 488 457 l 488 97 l 606 97 l 639 98 l 908 98 l 939 100 l 1003 100 l 1003 0 l 363 0 z "},"Ή":{"ha":1215,"x_min":-11,"x_max":1084,"o":"m -11 688 l 115 964 l 225 964 l 74 688 l -11 688 m 363 0 l 363 964 l 488 964 l 488 545 l 960 545 l 960 964 l 1084 964 l 1084 0 l 960 0 l 960 458 l 488 458 l 488 0 l 363 0 z "},"Ί":{"ha":618,"x_min":-11,"x_max":488,"o":"m -11 688 l 115 964 l 225 964 l 74 688 l -11 688 m 363 0 l 363 964 l 488 964 l 488 0 l 363 0 z "},"Ό":{"ha":1137,"x_min":-11,"x_max":1059,"o":"m -11 688 l 115 964 l 225 964 l 74 688 l -11 688 m 192 479 q 320 844 192 694 q 627 994 449 994 q 930 844 802 994 q 1059 479 1059 694 q 929 115 1059 261 q 625 -31 799 -31 q 321 116 450 -31 q 192 479 192 263 m 409 793 q 363 737 409 793 q 317 499 317 681 q 403 188 317 317 q 625 60 489 60 q 846 187 758 60 q 935 498 935 314 q 843 793 935 680 q 625 905 751 905 q 409 793 500 905 z "},"Ύ":{"ha":1312,"x_min":-11,"x_max":1234,"o":"m -11 688 l 115 964 l 225 964 l 74 688 l -11 688 m 309 771 q 374 931 310 868 q 529 994 439 994 q 624 971 582 994 q 690 916 667 947 q 732 838 714 884 q 757 760 750 791 q 771 693 764 728 q 772 684 772 686 q 794 789 779 739 q 835 887 808 839 q 907 965 861 936 q 1013 994 953 994 q 1167 932 1103 994 q 1234 771 1232 869 l 1125 771 q 1088 868 1122 835 q 1011 901 1054 901 q 940 883 971 901 q 889 831 908 865 q 859 760 871 796 q 842 674 847 724 q 835 589 836 624 q 833 509 833 554 l 833 0 l 710 0 l 710 507 q 708 588 710 553 q 701 673 707 623 q 684 760 696 724 q 653 831 672 796 q 604 883 635 865 q 532 901 572 901 q 452 866 484 901 q 416 771 419 831 l 309 771 z "},"Ώ":{"ha":1118,"x_min":-11,"x_max":1055,"o":"m -11 688 l 115 964 l 225 964 l 74 688 l -11 688 m 176 0 l 176 98 l 235 98 l 265 97 l 418 97 q 359 236 399 159 q 283 369 319 313 q 220 499 248 425 q 192 642 192 574 q 314 890 192 786 q 615 994 436 994 q 917 890 794 994 q 1040 642 1040 786 q 1013 499 1040 574 q 949 369 985 425 q 872 236 913 313 q 814 97 832 160 l 966 97 l 996 98 l 1055 98 l 1055 0 l 715 0 q 748 168 717 79 q 817 325 779 257 q 885 479 854 392 q 916 640 916 566 q 828 834 916 760 q 617 909 741 909 q 404 834 493 909 q 315 640 315 758 q 347 478 315 565 q 415 325 378 392 q 484 168 453 257 q 517 0 515 78 l 176 0 z "},"ΐ":{"ha":366,"x_min":-54,"x_max":347,"o":"m -42 716 q -48 723 -42 716 q -54 747 -54 729 q -40 778 -54 765 q -10 790 -26 790 q 19 777 7 790 q 32 747 32 764 q 19 717 32 730 q -11 704 7 704 q -42 716 -29 704 m 32 688 l 158 964 l 268 964 l 117 688 l 32 688 m 58 161 l 58 618 l 167 618 l 167 163 q 221 72 167 78 q 271 153 266 75 l 347 153 q 302 30 346 75 q 203 -16 258 -16 q 102 31 146 -16 q 58 161 58 78 m 212 747 q 225 779 212 767 q 255 790 237 790 q 285 778 273 790 q 297 749 297 765 q 286 717 297 730 q 256 704 275 704 q 225 717 237 704 q 212 747 212 730 z "},"Α":{"ha":926,"x_min":37,"x_max":885,"o":"m 37 0 l 400 964 l 524 964 l 885 0 l 757 0 l 650 283 l 248 283 l 142 0 l 37 0 m 277 361 l 621 361 q 449 867 456 815 q 277 361 431 782 z "},"Β":{"ha":926,"x_min":134,"x_max":847,"o":"m 134 0 l 134 964 l 441 964 q 612 940 537 964 q 727 879 686 917 q 788 801 768 842 q 808 722 808 761 q 749 593 808 653 q 575 504 689 533 q 767 420 686 486 q 847 261 847 354 q 759 87 847 159 q 549 3 671 16 q 478 0 525 0 l 134 0 m 250 78 l 447 78 q 661 136 589 78 q 733 262 733 195 q 661 393 733 339 q 488 457 589 447 q 416 458 475 458 l 252 458 l 250 407 l 250 78 m 250 545 l 416 545 q 623 599 547 545 q 699 721 699 653 q 627 834 699 782 q 410 886 555 886 l 252 886 l 250 838 l 250 545 z "},"Γ":{"ha":753,"x_min":131,"x_max":693,"o":"m 131 0 l 131 960 l 693 960 l 693 868 l 624 868 l 590 869 l 292 869 l 256 871 l 256 0 l 131 0 z "},"Δ":{"ha":1156,"x_min":57,"x_max":1097,"o":"m 57 0 l 514 964 l 640 964 l 1097 0 l 57 0 m 220 117 l 904 117 l 664 631 l 578 823 l 562 867 l 561 867 l 546 821 l 460 628 l 220 117 z "},"Ε":{"ha":829,"x_min":131,"x_max":771,"o":"m 131 0 l 131 960 l 751 960 l 751 868 l 672 868 l 637 869 l 304 869 l 256 871 l 256 542 l 714 542 l 714 457 l 256 457 l 256 97 l 374 97 l 407 98 l 676 98 l 707 100 l 771 100 l 771 0 l 131 0 z "},"Ζ":{"ha":848,"x_min":77,"x_max":778,"o":"m 77 0 l 77 35 q 79 61 77 54 q 94 87 81 68 l 611 878 l 383 876 l 96 876 l 96 964 l 771 964 l 771 930 q 771 923 771 926 q 770 916 771 920 q 770 911 770 913 q 769 907 770 909 q 767 903 768 904 q 764 898 766 901 q 762 893 762 895 q 758 887 761 892 q 753 879 754 882 l 236 90 l 525 90 l 557 92 l 778 92 l 778 0 l 77 0 z "},"Η":{"ha":983,"x_min":131,"x_max":852,"o":"m 131 0 l 131 964 l 256 964 l 256 545 l 728 545 l 728 964 l 852 964 l 852 0 l 728 0 l 728 458 l 256 458 l 256 0 l 131 0 z "},"Θ":{"ha":1080,"x_min":77,"x_max":1002,"o":"m 77 479 q 214 845 77 696 q 541 994 351 994 q 865 846 728 994 q 1002 479 1002 697 q 864 116 1002 263 q 539 -31 726 -31 q 214 117 351 -31 q 77 479 77 264 m 193 479 q 297 172 193 288 q 539 57 401 57 q 782 174 678 57 q 885 479 885 290 q 781 790 885 671 q 539 909 677 909 q 297 789 400 909 q 193 479 193 669 m 271 425 l 271 542 l 807 542 l 807 425 l 271 425 z "},"Ι":{"ha":386,"x_min":131,"x_max":256,"o":"m 131 0 l 131 964 l 256 964 l 256 0 l 131 0 z "},"Κ":{"ha":964,"x_min":132,"x_max":904,"o":"m 132 0 l 132 964 l 252 964 l 252 449 l 755 964 l 885 964 l 513 583 l 513 582 l 904 0 l 774 0 l 436 504 l 252 317 l 252 0 l 132 0 z "},"Λ":{"ha":848,"x_min":37,"x_max":808,"o":"m 37 0 l 363 964 l 484 964 l 808 0 l 676 0 l 500 534 q 408 867 419 795 q 322 553 404 824 l 140 0 l 37 0 z "},"Μ":{"ha":1215,"x_min":139,"x_max":1076,"o":"m 139 0 l 139 964 l 297 964 l 511 407 q 607 127 600 165 l 608 127 q 703 406 615 176 l 917 964 l 1076 964 l 1076 0 l 968 0 l 968 822 l 966 867 l 953 815 l 869 587 l 656 31 l 555 31 l 347 571 q 248 867 258 812 l 248 0 l 139 0 z "},"Ν":{"ha":983,"x_min":132,"x_max":848,"o":"m 132 0 l 132 964 l 306 964 l 686 208 l 741 97 l 741 964 l 848 964 l 848 0 l 675 0 l 294 755 l 240 867 l 240 0 l 132 0 z "},"Ξ":{"ha":926,"x_min":57,"x_max":865,"o":"m 57 0 l 57 104 l 865 104 l 865 0 l 57 0 m 64 852 l 64 957 l 859 957 l 859 852 l 64 852 m 153 446 l 153 549 l 770 549 l 770 446 l 153 446 z "},"Ο":{"ha":1022,"x_min":77,"x_max":943,"o":"m 77 479 q 205 844 77 694 q 511 994 334 994 q 815 844 686 994 q 943 479 943 694 q 813 115 943 261 q 510 -31 684 -31 q 206 116 335 -31 q 77 479 77 263 m 293 793 q 247 737 293 793 q 201 499 201 681 q 288 188 201 317 q 510 60 374 60 q 731 187 642 60 q 819 498 819 314 q 728 793 819 680 q 510 905 636 905 q 293 793 385 905 z "},"Π":{"ha":983,"x_min":131,"x_max":852,"o":"m 131 0 l 131 960 l 852 960 l 852 0 l 728 0 l 728 875 l 256 875 l 256 0 l 131 0 z "},"Ρ":{"ha":887,"x_min":132,"x_max":808,"o":"m 132 0 l 132 964 l 460 964 q 673 909 587 964 q 773 811 737 869 q 808 685 808 753 q 719 488 808 576 q 465 400 629 400 q 443 401 458 400 q 419 401 428 401 l 257 401 l 257 0 l 132 0 m 253 482 l 437 482 q 564 502 509 482 q 644 553 618 521 q 683 619 671 586 q 696 685 696 652 q 685 747 696 715 q 648 811 673 778 q 568 865 623 844 q 437 886 514 886 l 253 886 l 253 482 z "},"Σ":{"ha":1002,"x_min":77,"x_max":925,"o":"m 77 0 l 399 464 l 399 465 l 77 873 l 77 964 l 925 964 l 925 872 l 812 872 l 774 873 l 304 873 l 235 875 l 543 481 l 277 97 l 783 97 l 819 98 l 925 98 l 925 0 l 77 0 z "},"Τ":{"ha":944,"x_min":49,"x_max":893,"o":"m 49 865 l 49 957 l 893 957 l 893 865 l 696 865 l 533 867 l 533 0 l 410 0 l 410 867 l 245 865 l 49 865 z "},"Υ":{"ha":1080,"x_min":77,"x_max":1002,"o":"m 77 771 q 142 931 78 868 q 297 994 207 994 q 392 971 350 994 q 458 916 435 947 q 500 838 482 884 q 525 760 518 791 q 539 693 532 728 q 541 684 541 686 q 562 789 547 739 q 603 887 576 839 q 675 965 629 936 q 781 994 721 994 q 936 932 871 994 q 1002 771 1000 869 l 893 771 q 856 868 890 835 q 779 901 822 901 q 708 883 739 901 q 657 831 676 865 q 627 760 639 796 q 610 674 615 724 q 603 589 604 624 q 602 509 602 554 l 602 0 l 478 0 l 478 507 q 476 588 478 553 q 469 673 475 623 q 452 760 464 724 q 421 831 440 796 q 372 883 403 865 q 300 901 340 901 q 220 866 252 901 q 184 771 187 831 l 77 771 z "},"Φ":{"ha":1002,"x_min":77,"x_max":925,"o":"m 77 482 q 182 704 77 608 q 439 815 288 800 l 439 964 l 555 964 l 555 817 q 685 786 637 804 q 861 660 798 743 q 925 482 925 576 q 826 266 925 361 q 555 147 726 170 l 555 0 l 439 0 l 439 149 q 185 256 294 162 q 77 482 77 350 m 197 482 q 262 320 197 387 q 439 235 328 253 l 439 729 q 261 644 325 712 q 197 482 197 576 m 555 233 q 667 269 619 244 q 740 320 715 293 q 781 380 765 347 q 800 437 796 414 q 804 482 804 460 q 801 527 804 504 q 782 583 798 550 q 742 643 766 616 q 668 694 717 669 q 555 730 619 720 l 555 233 z "},"Χ":{"ha":926,"x_min":20,"x_max":905,"o":"m 20 0 l 392 507 l 392 509 l 39 964 l 184 964 l 453 602 l 714 964 l 847 964 l 513 509 l 513 507 l 905 0 l 760 0 l 453 424 l 153 0 l 20 0 z "},"Ψ":{"ha":1080,"x_min":77,"x_max":1002,"o":"m 77 766 l 77 852 l 178 852 q 215 850 201 852 q 247 830 229 847 q 274 778 264 812 q 286 676 283 743 q 292 546 289 608 q 310 419 296 484 q 365 306 323 354 q 478 237 407 257 l 478 964 l 595 964 l 595 236 q 651 259 625 244 q 695 290 676 273 q 729 329 714 306 q 753 371 743 353 q 769 419 762 389 q 780 466 777 449 q 785 515 783 484 q 788 558 787 546 q 789 600 789 571 q 789 635 789 629 q 799 757 790 711 q 825 823 807 803 q 860 848 843 843 q 908 852 876 852 l 1002 852 l 1002 766 q 948 746 968 764 q 919 694 928 728 q 908 631 911 661 q 904 554 905 600 q 900 484 903 509 q 811 261 883 353 q 595 149 739 170 l 595 0 l 478 0 l 478 149 l 476 149 q 424 159 450 153 q 354 189 399 165 q 277 247 310 212 q 215 346 244 281 q 176 496 186 411 q 174 558 175 515 q 170 631 172 602 q 158 693 167 660 q 129 745 150 726 q 77 766 109 764 z "},"Ω":{"ha":1002,"x_min":61,"x_max":940,"o":"m 61 0 l 61 98 l 119 98 l 150 97 l 302 97 q 244 236 284 159 q 168 369 204 313 q 104 499 132 425 q 77 642 77 574 q 199 890 77 786 q 500 994 321 994 q 802 890 679 994 q 925 642 925 786 q 897 499 925 574 q 833 369 869 425 q 757 236 798 313 q 699 97 717 160 l 851 97 l 880 98 l 940 98 l 940 0 l 600 0 q 633 168 602 79 q 702 325 664 257 q 770 479 739 392 q 800 640 800 566 q 713 834 800 760 q 502 909 625 909 q 289 834 378 909 q 200 640 200 758 q 231 478 200 565 q 300 325 262 392 q 369 168 338 257 q 401 0 400 78 l 61 0 z "},"Ϊ":{"ha":386,"x_min":26,"x_max":358,"o":"m 43 1043 q 35 1052 43 1043 q 26 1083 26 1060 q 43 1124 26 1107 q 85 1141 60 1141 q 126 1124 110 1141 q 142 1083 142 1107 q 124 1043 142 1060 q 85 1026 107 1026 q 43 1043 60 1026 m 131 0 l 131 964 l 256 964 l 256 0 l 131 0 m 259 1043 q 251 1052 259 1043 q 243 1083 243 1060 q 259 1124 243 1107 q 300 1141 275 1141 q 341 1123 325 1141 q 358 1083 358 1105 q 340 1043 358 1059 q 300 1026 322 1026 q 259 1043 275 1026 z "},"Ϋ":{"ha":1080,"x_min":77,"x_max":1002,"o":"m 77 771 q 142 931 78 868 q 297 994 207 994 q 392 971 350 994 q 458 916 435 947 q 500 838 482 884 q 525 760 518 791 q 539 693 532 728 q 541 684 541 686 q 562 789 547 739 q 603 887 576 839 q 675 965 629 936 q 781 994 721 994 q 936 932 871 994 q 1002 771 1000 869 l 893 771 q 856 868 890 835 q 779 901 822 901 q 708 883 739 901 q 657 831 676 865 q 627 760 639 796 q 610 674 615 724 q 603 589 604 624 q 602 509 602 554 l 602 0 l 478 0 l 478 507 q 476 588 478 553 q 469 673 475 623 q 452 760 464 724 q 421 831 440 796 q 372 883 403 865 q 300 901 340 901 q 220 866 252 901 q 184 771 187 831 l 77 771 m 361 1084 q 378 1125 361 1109 q 418 1141 395 1141 q 459 1125 441 1141 q 476 1083 476 1108 q 459 1043 476 1059 q 419 1026 441 1026 q 377 1043 394 1026 q 361 1084 361 1061 m 602 1084 q 619 1125 602 1109 q 660 1141 636 1141 q 700 1125 684 1141 q 717 1083 717 1108 q 700 1043 717 1059 q 660 1026 682 1026 q 618 1043 635 1026 q 602 1084 602 1061 z "},"ά":{"ha":879,"x_min":57,"x_max":848,"o":"m 57 309 q 134 539 57 446 q 318 632 211 632 q 396 614 359 632 q 457 573 433 596 q 503 513 481 550 q 535 453 525 476 q 558 399 546 431 l 590 488 l 637 632 l 746 632 l 679 428 l 637 319 l 606 249 q 707 90 656 95 q 741 123 734 94 l 848 123 q 803 21 846 58 q 707 -16 761 -16 q 536 125 597 -16 l 534 125 q 315 -16 443 -16 q 135 76 212 -16 q 57 309 57 168 m 165 298 q 213 139 168 189 q 314 89 258 89 q 403 128 360 89 q 467 204 446 167 q 489 252 489 241 q 478 297 489 257 q 462 350 467 336 q 445 399 457 364 q 421 451 432 435 q 394 488 411 467 q 358 519 378 510 q 314 528 338 528 q 215 480 260 528 q 167 330 171 433 l 165 298 m 319 688 l 446 964 l 555 964 l 404 688 l 319 688 z "},"έ":{"ha":597,"x_min":57,"x_max":538,"o":"m 57 155 q 168 309 57 254 q 77 454 77 367 q 141 581 77 530 q 296 632 205 632 q 519 524 414 632 l 441 447 q 296 524 362 524 q 215 497 247 524 q 183 436 183 471 q 363 347 183 347 l 363 262 q 164 175 164 262 q 205 113 164 132 q 294 93 245 93 q 461 170 379 93 l 538 93 q 296 -16 427 -16 q 132 28 207 -16 q 57 155 57 72 m 209 688 l 335 964 l 445 964 l 294 688 l 209 688 z "},"ή":{"ha":713,"x_min":37,"x_max":654,"o":"m 37 493 q 84 614 43 581 q 171 648 126 648 q 290 534 254 648 q 453 648 350 648 q 594 575 534 648 q 654 357 654 501 l 654 -271 l 545 -271 l 545 339 q 545 349 545 342 q 546 359 546 355 q 508 496 546 454 q 427 539 471 539 q 344 495 375 539 q 309 387 313 450 l 309 0 l 199 0 l 199 389 q 198 448 199 429 q 195 491 197 467 q 187 527 193 515 q 170 542 180 538 q 142 493 144 541 l 37 493 m 324 688 l 450 964 l 560 964 l 409 688 l 324 688 z "},"ί":{"ha":366,"x_min":32,"x_max":346,"o":"m 32 688 l 158 964 l 268 964 l 117 688 l 32 688 m 57 161 l 57 618 l 165 618 l 165 163 q 220 72 165 78 q 269 153 264 75 l 346 153 q 301 30 345 75 q 201 -16 257 -16 q 101 31 144 -16 q 57 161 57 78 z "},"ΰ":{"ha":694,"x_min":57,"x_max":635,"o":"m 57 618 l 180 618 q 234 439 222 525 q 249 290 245 354 q 271 180 252 225 q 385 94 309 94 q 487 155 448 94 q 526 313 526 215 q 441 618 526 468 l 564 618 q 635 314 634 471 q 565 80 635 175 q 385 -16 494 -16 q 219 64 283 -16 q 140 256 155 144 q 138 317 139 264 q 126 425 136 370 q 92 543 115 481 q 74 583 86 557 q 57 618 61 610 m 157 747 q 169 777 157 764 q 200 790 182 790 q 231 777 220 790 q 243 749 243 764 q 231 717 243 730 q 200 704 220 704 q 169 716 182 704 q 157 747 157 729 m 244 688 l 371 964 l 481 964 l 329 688 l 244 688 m 424 747 q 435 777 424 763 q 465 790 446 790 q 495 778 482 790 q 509 747 509 765 q 497 716 509 729 q 467 704 485 704 q 436 716 449 704 q 424 747 424 729 z "},"α":{"ha":879,"x_min":57,"x_max":848,"o":"m 57 309 q 134 539 57 446 q 318 632 211 632 q 396 614 359 632 q 457 573 433 596 q 503 513 481 550 q 535 453 525 476 q 558 399 546 431 l 590 488 l 637 632 l 746 632 l 679 428 l 637 319 l 606 249 q 707 90 656 95 q 741 123 734 94 l 848 123 q 803 21 846 58 q 707 -16 761 -16 q 536 125 597 -16 l 534 125 q 315 -16 443 -16 q 135 76 212 -16 q 57 309 57 168 m 165 298 q 213 139 168 189 q 314 89 258 89 q 403 128 360 89 q 467 204 446 167 q 489 252 489 241 q 478 297 489 257 q 462 350 467 336 q 445 399 457 364 q 421 451 432 435 q 394 488 411 467 q 358 519 378 510 q 314 528 338 528 q 215 480 260 528 q 167 330 171 433 l 165 298 z "},"β":{"ha":694,"x_min":57,"x_max":635,"o":"m 57 -193 l 57 629 q 58 704 57 677 q 61 773 58 730 q 71 840 64 815 q 90 897 78 864 q 120 948 102 929 q 165 985 139 966 q 229 1010 192 1003 q 311 1018 265 1018 q 497 962 429 1018 q 566 768 566 907 q 541 671 566 714 q 494 611 515 628 q 437 572 472 595 q 635 285 635 521 q 547 68 635 151 q 349 -16 460 -16 q 165 87 237 -16 l 165 -193 l 57 -193 m 165 302 q 174 214 165 248 q 232 112 187 158 q 346 66 277 66 q 476 131 425 66 q 526 285 526 195 q 514 373 526 334 q 485 437 501 412 q 439 479 469 461 q 388 506 410 497 q 331 519 367 514 q 278 524 294 524 q 232 525 262 525 l 232 596 q 394 645 330 599 q 457 771 457 690 q 313 945 457 945 q 242 930 271 945 q 198 896 214 916 q 176 839 183 876 q 167 772 168 802 q 165 692 165 743 l 165 302 z "},"γ":{"ha":770,"x_min":37,"x_max":713,"o":"m 37 488 q 83 593 39 554 q 180 632 127 632 q 238 612 211 632 q 285 565 265 593 q 327 486 304 538 q 362 393 349 435 q 399 282 376 351 q 556 556 485 484 q 713 632 628 629 l 713 524 q 612 478 653 521 q 525 330 571 435 q 464 169 485 240 q 443 79 443 98 l 444 66 q 449 33 446 54 q 454 -16 452 11 q 459 -79 457 -43 q 461 -151 461 -115 q 437 -219 461 -201 q 385 -237 412 -237 q 353 -233 368 -237 q 324 -208 339 -228 q 309 -153 309 -187 q 315 -33 309 -87 q 329 54 322 22 q 336 93 336 86 q 301 291 336 136 q 227 496 265 447 q 183 524 208 518 q 146 488 153 518 l 37 488 z "},"δ":{"ha":655,"x_min":50,"x_max":611,"o":"m 50 810 q 105 945 50 888 q 232 1002 160 1002 q 250 1001 241 1002 q 267 999 258 1000 q 286 993 275 997 q 306 985 296 989 q 333 970 315 981 q 365 951 350 960 q 408 926 379 943 q 461 893 436 908 q 529 851 486 878 q 611 802 572 825 l 567 729 q 301 889 541 743 q 233 914 261 914 q 165 883 193 914 q 138 812 138 851 q 152 767 138 787 q 174 740 165 746 q 203 721 183 733 l 465 562 l 464 558 q 596 293 596 463 q 516 74 596 164 q 326 -16 436 -16 q 137 74 218 -16 q 57 293 57 163 q 65 369 57 330 q 93 450 74 407 q 154 531 113 493 q 253 590 196 568 q 208 616 239 598 q 164 643 176 635 q 128 668 151 652 q 95 696 104 685 q 72 726 85 708 q 55 765 60 745 q 50 810 50 786 m 165 282 q 209 131 165 192 q 323 71 253 71 q 441 139 395 71 q 488 304 488 208 q 444 455 488 395 q 330 515 400 515 q 213 446 260 515 q 165 282 165 376 z "},"ε":{"ha":597,"x_min":57,"x_max":538,"o":"m 57 155 q 168 309 57 254 q 77 454 77 367 q 141 581 77 530 q 296 632 205 632 q 519 524 414 632 l 441 447 q 296 524 362 524 q 215 497 247 524 q 183 436 183 471 q 363 347 183 347 l 363 262 q 164 175 164 262 q 205 113 164 132 q 294 93 245 93 q 461 170 379 93 l 538 93 q 296 -16 427 -16 q 132 28 207 -16 q 57 155 57 72 z "},"ζ":{"ha":655,"x_min":57,"x_max":596,"o":"m 57 310 q 309 836 57 576 q 145 884 212 836 q 77 1023 79 932 l 184 1023 q 294 933 189 933 l 296 933 q 525 1023 395 933 l 590 936 q 478 846 526 887 q 367 740 429 806 q 263 613 304 675 q 194 470 222 551 q 165 309 165 389 q 202 179 165 237 q 302 111 239 122 q 325 111 304 111 q 370 107 346 110 q 426 99 393 104 q 487 81 458 93 q 541 53 515 69 q 582 8 567 36 q 596 -54 596 -20 q 570 -133 596 -100 q 500 -182 543 -165 q 414 -205 457 -199 q 326 -212 371 -212 l 326 -109 l 330 -109 q 351 -109 334 -109 q 378 -108 367 -109 q 408 -106 390 -107 q 438 -100 425 -104 q 462 -90 450 -96 q 480 -74 473 -85 q 486 -52 486 -64 q 454 -13 481 -25 q 349 0 428 0 l 340 0 q 131 94 204 0 q 57 310 57 188 z "},"η":{"ha":713,"x_min":37,"x_max":654,"o":"m 37 493 q 84 614 43 581 q 171 648 126 648 q 290 534 254 648 q 453 648 350 648 q 594 575 534 648 q 654 357 654 501 l 654 -271 l 545 -271 l 545 339 q 545 349 545 342 q 546 359 546 355 q 508 496 546 454 q 427 539 471 539 q 344 495 375 539 q 309 387 313 450 l 309 0 l 199 0 l 199 389 q 198 448 199 429 q 195 491 197 467 q 187 527 193 515 q 170 542 180 538 q 142 493 144 541 l 37 493 z "},"θ":{"ha":694,"x_min":57,"x_max":635,"o":"m 57 500 q 64 639 57 572 q 92 778 72 707 q 144 900 113 848 q 227 985 175 951 q 346 1018 279 1018 q 488 969 428 1018 q 578 840 547 921 q 622 676 608 760 q 635 503 635 593 q 620 317 635 404 q 574 153 606 231 q 484 30 543 75 q 346 -16 425 -16 q 204 33 264 -16 q 114 161 144 81 q 70 325 83 241 q 57 500 57 408 m 167 447 q 169 394 168 404 q 173 339 170 383 q 181 277 176 294 q 194 223 186 260 q 216 170 203 187 q 247 131 229 153 q 290 101 265 110 q 346 93 315 93 q 435 121 399 93 q 490 205 471 150 q 518 327 510 260 q 526 485 526 395 l 167 485 l 167 447 m 167 566 l 525 566 q 521 640 524 610 q 512 715 518 669 q 494 791 505 761 q 463 850 482 821 q 414 895 444 880 q 346 909 385 909 q 275 893 306 909 q 225 844 244 878 q 195 781 207 811 q 178 704 183 751 q 170 632 172 656 q 167 566 168 608 z "},"ι":{"ha":386,"x_min":57,"x_max":346,"o":"m 57 161 l 57 618 l 165 618 l 165 163 q 220 72 165 78 q 269 153 264 75 l 346 153 q 301 30 345 75 q 201 -16 257 -16 q 101 31 144 -16 q 57 161 57 78 z "},"κ":{"ha":671,"x_min":77,"x_max":624,"o":"m 77 0 l 77 618 l 184 618 l 184 351 q 416 571 410 565 q 586 618 479 618 l 586 519 q 509 512 530 519 q 460 478 488 504 l 298 326 l 624 0 l 471 0 l 221 250 l 184 216 l 184 0 l 77 0 z "},"λ":{"ha":694,"x_min":37,"x_max":656,"o":"m 37 0 l 300 579 q 306 600 305 590 q 242 760 306 627 q 132 893 179 893 q 117 890 125 893 q 99 880 109 888 q 85 869 89 872 q 68 852 81 865 l 56 842 l 37 950 q 146 1003 94 1003 q 276 919 216 1003 q 397 673 336 835 l 656 0 l 538 0 l 364 457 l 157 0 l 37 0 z "},"μ":{"ha":770,"x_min":57,"x_max":753,"o":"m 57 -271 l 57 618 l 165 618 l 165 252 q 215 134 165 175 q 322 93 265 93 q 369 101 345 93 q 420 125 393 109 q 464 177 447 142 q 481 260 481 212 l 481 618 l 589 618 l 589 157 q 632 87 589 87 q 663 101 650 87 q 675 138 675 115 l 675 149 l 751 149 q 753 121 753 139 q 745 72 753 96 q 704 19 737 47 q 615 -16 671 -9 q 490 83 522 -7 q 443 29 467 50 q 394 -1 419 8 q 358 -12 370 -9 q 322 -16 346 -14 q 231 9 264 -12 q 165 68 197 29 l 165 -271 l 57 -271 z "},"ν":{"ha":655,"x_min":0,"x_max":616,"o":"m 0 618 l 147 618 q 169 596 161 606 q 186 576 178 586 q 203 547 195 566 q 218 510 211 528 q 238 453 225 492 q 262 376 250 414 q 296 270 273 339 q 340 132 318 200 q 393 204 351 148 q 452 288 435 260 q 489 369 469 315 q 510 473 509 422 q 489 618 510 475 l 597 618 q 616 484 617 493 q 590 353 616 424 q 536 236 564 282 q 454 109 509 189 q 382 0 400 29 l 273 0 l 131 432 q 87 532 107 503 q 0 618 66 561 z "},"ξ":{"ha":655,"x_min":57,"x_max":596,"o":"m 57 283 q 120 476 57 396 q 268 597 183 555 q 168 772 168 673 q 221 895 168 838 q 77 1032 79 913 l 184 1032 q 192 1011 187 1019 q 213 995 197 1003 q 257 987 229 987 l 271 987 q 510 1032 326 989 l 536 926 q 332 872 371 888 q 252 777 251 838 q 257 740 252 758 q 291 695 262 721 q 370 659 319 669 q 488 648 416 649 l 488 541 q 260 468 355 539 q 165 286 165 397 q 204 170 165 220 q 304 111 243 121 q 327 111 306 111 q 371 107 347 110 q 427 99 395 104 q 487 81 458 93 q 541 53 515 69 q 582 8 567 36 q 596 -54 596 -20 q 534 -169 596 -125 q 378 -216 472 -214 l 378 -113 q 459 -95 431 -111 q 488 -56 488 -79 q 481 -33 488 -42 q 349 0 458 0 l 340 0 q 131 87 204 0 q 57 283 57 175 z "},"ο":{"ha":733,"x_min":57,"x_max":673,"o":"m 57 310 q 148 538 57 445 q 365 632 239 632 q 583 539 492 632 q 673 309 673 446 q 583 79 673 174 q 366 -16 492 -16 q 145 81 233 -16 q 57 310 57 178 m 165 309 q 225 155 165 217 q 365 93 285 93 q 505 155 446 93 q 564 309 564 216 q 508 459 564 395 q 366 524 452 524 q 222 459 279 524 q 165 309 165 395 z "},"π":{"ha":809,"x_min":11,"x_max":778,"o":"m 11 583 q 221 618 105 618 l 751 618 l 751 514 l 585 514 l 585 160 q 605 104 585 120 q 643 87 625 87 q 703 149 693 87 l 778 149 q 731 29 777 73 q 628 -16 685 -16 q 600 -13 616 -16 q 561 1 585 -9 q 520 31 538 12 q 489 85 503 50 q 476 168 476 121 l 476 514 l 310 514 l 310 -16 l 201 -16 l 201 514 q 50 482 136 513 l 11 583 z "},"ρ":{"ha":655,"x_min":57,"x_max":596,"o":"m 57 -271 l 57 289 q 96 478 57 400 q 123 522 106 500 q 167 570 139 543 q 236 615 195 597 q 326 632 278 632 q 520 535 444 632 q 596 308 596 439 q 520 81 596 178 q 326 -16 444 -16 l 323 -16 q 165 47 239 -16 l 165 -271 l 57 -271 m 165 310 q 211 139 165 207 q 328 72 256 72 q 446 143 404 72 q 488 307 488 215 q 443 479 488 412 q 326 546 399 546 q 211 478 256 546 q 165 310 165 410 z "},"ς":{"ha":616,"x_min":56,"x_max":558,"o":"m 56 275 q 78 388 56 334 q 152 496 100 441 q 309 585 204 551 q 558 618 414 618 l 558 509 q 195 382 273 509 q 163 269 163 330 q 197 162 163 208 q 286 106 232 115 q 330 104 294 104 q 401 97 366 103 q 473 75 437 90 q 558 -39 558 38 q 506 -137 558 -101 q 400 -176 453 -172 l 347 -180 l 347 -77 q 449 -37 449 -77 q 415 -7 449 -14 q 326 1 382 0 q 241 9 269 3 q 108 106 161 33 q 56 275 56 180 z "},"σ":{"ha":790,"x_min":57,"x_max":750,"o":"m 57 301 q 74 404 57 351 q 127 505 92 456 q 229 586 163 554 q 383 618 296 618 l 750 618 l 750 509 l 597 509 q 672 301 673 416 q 581 75 672 166 q 366 -16 490 -16 q 148 76 239 -16 q 57 301 57 168 m 165 301 q 225 153 165 212 q 365 93 285 93 q 505 152 446 93 q 564 300 564 211 q 504 449 564 389 q 364 509 444 509 q 222 447 278 509 q 165 301 165 385 z "},"τ":{"ha":635,"x_min":-12,"x_max":578,"o":"m -12 582 q 164 618 67 618 l 578 618 l 578 514 l 332 514 l 332 163 q 349 104 332 120 q 386 87 367 87 q 422 103 408 87 q 439 134 436 118 l 440 149 l 517 149 q 469 27 514 69 q 371 -16 424 -16 q 332 -9 353 -16 q 285 15 311 -3 q 241 72 258 32 q 224 171 224 113 l 224 514 l 167 514 q 112 511 135 514 q 77 502 89 507 q 35 485 65 497 l -12 582 z "},"υ":{"ha":694,"x_min":57,"x_max":635,"o":"m 57 618 l 180 618 q 234 439 222 525 q 249 290 245 354 q 271 180 252 225 q 385 94 309 94 q 487 155 448 94 q 526 313 526 215 q 441 618 526 468 l 564 618 q 635 314 634 471 q 565 80 635 175 q 385 -16 494 -16 q 219 64 283 -16 q 140 256 155 144 q 138 317 139 264 q 126 425 136 370 q 92 543 115 481 q 74 583 86 557 q 57 618 61 610 z "},"φ":{"ha":809,"x_min":57,"x_max":750,"o":"m 57 315 q 135 618 57 475 l 258 618 q 144 313 144 472 q 196 165 144 232 q 349 77 248 98 l 349 387 q 412 571 349 511 q 550 632 476 632 q 647 600 606 632 q 710 517 689 568 q 740 416 730 467 q 750 315 750 366 q 661 91 750 178 q 458 -11 572 4 l 458 -271 l 349 -271 l 349 -11 q 146 93 235 6 q 57 315 57 179 m 457 382 q 458 370 457 376 q 458 361 458 363 l 458 77 q 604 157 550 95 q 663 292 657 218 l 663 321 q 551 546 663 546 q 457 382 457 546 z "},"χ":{"ha":770,"x_min":57,"x_max":713,"o":"m 57 -285 l 323 178 l 323 179 q 279 282 294 247 q 235 372 264 317 q 185 454 207 427 q 134 504 164 482 q 71 525 103 525 q 64 524 69 525 q 57 524 60 524 l 57 632 q 72 634 58 632 q 93 636 86 636 q 185 609 142 636 q 268 528 229 582 q 332 424 306 475 q 393 296 358 372 l 586 632 l 711 632 l 444 170 l 444 168 q 505 30 481 81 q 562 -75 529 -21 q 628 -153 595 -129 q 697 -178 661 -178 q 703 -177 699 -178 q 711 -176 708 -176 l 713 -222 l 713 -285 l 675 -289 q 583 -262 626 -289 q 502 -181 539 -235 q 437 -76 464 -127 q 376 52 410 -25 l 182 -285 l 57 -285 z "},"ψ":{"ha":809,"x_min":57,"x_max":750,"o":"m 57 375 q 96 618 57 492 l 204 618 q 143 374 143 493 q 201 182 143 265 q 355 77 260 98 l 355 1003 l 453 1003 l 453 77 q 606 182 549 99 q 664 374 664 265 q 603 618 664 493 l 711 618 q 750 375 750 492 q 663 114 750 220 q 453 -11 576 8 l 453 -271 l 355 -271 l 355 -11 q 144 114 232 9 q 57 375 57 220 z "},"ω":{"ha":926,"x_min":46,"x_max":878,"o":"m 46 248 q 216 618 46 444 l 346 618 q 328 597 345 615 q 304 571 311 579 q 280 543 297 564 q 253 509 262 522 q 229 473 244 496 q 205 433 214 450 q 185 391 197 415 q 168 345 174 367 q 158 296 163 322 q 154 245 154 271 q 189 123 154 175 q 281 72 224 72 q 372 117 331 72 q 414 262 414 161 l 414 367 l 511 367 l 511 261 q 554 115 511 158 q 643 72 596 72 q 735 123 700 72 q 770 245 770 175 q 765 302 770 273 q 750 357 760 330 q 731 408 741 385 q 704 456 721 431 q 678 498 688 482 q 648 537 668 514 q 622 569 628 561 q 597 597 615 578 l 578 618 l 708 618 q 878 248 878 443 q 808 60 878 135 q 644 -16 739 -16 q 465 79 540 -16 q 463 83 464 82 q 281 -16 393 -15 q 116 60 185 -16 q 46 248 46 135 z "},"ϊ":{"ha":366,"x_min":-61,"x_max":347,"o":"m -44 770 q -53 779 -44 770 q -61 811 -61 787 q -43 851 -61 835 q -3 868 -25 868 q 38 851 22 868 q 54 811 54 833 q 37 770 54 787 q -3 753 20 753 q -44 770 -28 753 m 58 160 l 58 618 l 167 618 l 167 163 q 221 72 167 78 q 271 153 266 75 l 347 153 q 302 30 346 75 q 203 -16 258 -16 q 103 31 147 -16 q 58 160 58 77 m 207 769 q 199 778 207 769 q 191 810 191 786 q 207 851 191 833 q 247 868 222 868 q 289 850 272 868 q 306 810 306 832 q 288 769 306 786 q 248 753 269 753 q 207 769 222 753 z "},"ϋ":{"ha":694,"x_min":57,"x_max":635,"o":"m 57 618 l 180 618 q 234 439 222 525 q 249 290 245 354 q 271 180 252 225 q 385 94 309 94 q 487 155 448 94 q 526 313 526 215 q 441 618 526 468 l 564 618 q 635 314 634 471 q 565 80 635 175 q 385 -16 494 -16 q 219 64 283 -16 q 140 256 155 144 q 138 317 139 264 q 126 425 136 370 q 92 543 115 481 q 74 583 86 557 q 57 618 61 610 m 166 769 q 158 778 166 769 q 150 810 150 786 q 166 851 150 833 q 207 868 182 868 q 249 850 232 868 q 265 810 265 832 q 248 769 265 786 q 208 753 231 753 q 166 769 183 753 m 417 770 q 409 779 417 770 q 401 811 401 787 q 418 851 401 835 q 458 868 435 868 q 499 851 482 868 q 517 810 517 835 q 499 769 517 786 q 458 753 481 753 q 417 770 433 753 z "},"ό":{"ha":733,"x_min":57,"x_max":673,"o":"m 57 310 q 148 538 57 445 q 365 632 239 632 q 583 539 492 632 q 673 309 673 446 q 583 79 673 174 q 366 -16 492 -16 q 145 81 233 -16 q 57 310 57 178 m 165 309 q 225 155 165 217 q 365 93 285 93 q 505 155 446 93 q 564 309 564 216 q 508 459 564 395 q 366 524 452 524 q 222 459 279 524 q 165 309 165 395 m 277 688 l 403 964 l 513 964 l 361 688 l 277 688 z "},"ύ":{"ha":694,"x_min":57,"x_max":635,"o":"m 57 618 l 180 618 q 234 439 222 525 q 249 290 245 354 q 271 180 252 225 q 385 94 309 94 q 487 155 448 94 q 526 313 526 215 q 441 618 526 468 l 564 618 q 635 314 634 471 q 565 80 635 175 q 385 -16 494 -16 q 219 64 283 -16 q 140 256 155 144 q 138 317 139 264 q 126 425 136 370 q 92 543 115 481 q 74 583 86 557 q 57 618 61 610 m 245 688 l 371 964 l 481 964 l 330 688 l 245 688 z "},"ώ":{"ha":926,"x_min":46,"x_max":878,"o":"m 46 248 q 216 618 46 444 l 346 618 q 328 597 345 615 q 304 571 311 579 q 280 543 297 564 q 253 509 262 522 q 229 473 244 496 q 205 433 214 450 q 185 391 197 415 q 168 345 174 367 q 158 296 163 322 q 154 245 154 271 q 189 123 154 175 q 281 72 224 72 q 372 117 331 72 q 414 262 414 161 l 414 367 l 511 367 l 511 261 q 554 115 511 158 q 643 72 596 72 q 735 123 700 72 q 770 245 770 175 q 765 302 770 273 q 750 357 760 330 q 731 408 741 385 q 704 456 721 431 q 678 498 688 482 q 648 537 668 514 q 622 569 628 561 q 597 597 615 578 l 578 618 l 708 618 q 878 248 878 443 q 808 60 878 135 q 644 -16 739 -16 q 465 79 540 -16 q 463 83 464 82 q 281 -16 393 -15 q 116 60 185 -16 q 46 248 46 135 m 372 688 l 498 964 l 608 964 l 457 688 l 372 688 z "},"ϑ":{"ha":694,"x_min":57,"x_max":635,"o":"m 57 500 q 64 639 57 572 q 92 778 72 707 q 144 900 113 848 q 227 985 175 951 q 346 1018 279 1018 q 488 969 428 1018 q 578 840 547 921 q 622 676 608 760 q 635 503 635 593 q 620 317 635 404 q 574 153 606 231 q 484 30 543 75 q 346 -16 425 -16 q 204 33 264 -16 q 114 161 144 81 q 70 325 83 241 q 57 500 57 408 m 167 447 q 169 394 168 404 q 173 339 170 383 q 181 277 176 294 q 194 223 186 260 q 216 170 203 187 q 247 131 229 153 q 290 101 265 110 q 346 93 315 93 q 435 121 399 93 q 490 205 471 150 q 518 327 510 260 q 526 485 526 395 l 167 485 l 167 447 m 167 566 l 525 566 q 521 640 524 610 q 512 715 518 669 q 494 791 505 761 q 463 850 482 821 q 414 895 444 880 q 346 909 385 909 q 275 893 306 909 q 225 844 244 878 q 195 781 207 811 q 178 704 183 751 q 170 632 172 656 q 167 566 168 608 z "},"Ϙ":{"ha":694,"x_min":46,"x_max":647,"o":"m 46 663 q 132 884 46 789 q 347 979 218 979 q 558 887 469 979 q 647 663 647 794 q 581 465 647 553 q 410 354 514 376 l 408 354 l 408 0 l 285 0 l 285 354 l 283 354 q 114 463 182 376 q 46 663 46 550 m 220 809 q 195 778 220 809 q 171 664 171 747 q 221 518 171 581 q 347 456 271 456 q 474 519 425 456 q 522 664 522 582 q 471 811 522 751 q 346 871 419 871 q 220 809 269 871 z "},"ϙ":{"ha":694,"x_min":68,"x_max":624,"o":"m 68 567 q 163 775 68 699 q 375 851 258 851 q 552 785 481 851 q 624 606 624 718 q 569 439 624 503 q 447 347 514 375 l 447 40 q 446 5 447 18 q 433 -28 444 -8 q 397 -64 421 -49 q 322 -89 361 -89 q 244 -8 244 -89 l 244 329 q 113 417 158 353 q 68 567 68 482 m 163 604 q 227 445 163 500 q 375 390 290 390 q 490 439 450 390 q 530 568 530 488 q 466 728 530 673 q 317 783 401 783 q 202 734 241 783 q 163 604 163 685 z "},"Ϛ":{"ha":1080,"x_min":49,"x_max":708,"o":"m 49 478 q 82 690 49 589 q 188 865 115 790 q 359 954 261 940 q 421 957 380 957 l 708 957 l 708 0 l 418 0 q 245 43 313 0 q 100 221 151 101 q 49 478 49 340 m 174 478 q 184 360 174 418 q 217 247 195 302 q 281 153 239 191 q 380 110 323 115 q 410 109 390 109 l 433 109 q 564 114 543 110 q 585 142 585 118 l 585 818 q 576 836 585 830 q 537 844 568 842 q 437 847 505 847 q 420 847 433 847 q 404 847 407 847 q 389 847 400 847 q 374 846 378 847 q 360 843 370 844 q 345 840 351 842 q 331 835 339 838 q 317 828 323 832 q 207 687 240 788 q 174 478 174 587 z "},"ϛ":{"ha":694,"x_min":77,"x_max":616,"o":"m 77 433 q 105 528 77 486 q 181 594 134 570 q 282 631 228 618 q 396 647 336 644 l 472 648 l 536 650 l 616 648 l 616 541 q 458 547 537 541 q 359 554 379 554 q 206 517 250 554 q 163 433 163 481 q 179 376 163 399 q 229 344 196 354 q 291 331 261 334 q 364 328 321 328 l 478 328 l 478 220 l 412 222 l 422 0 l 313 0 l 323 232 q 242 251 281 239 q 163 286 203 264 q 100 347 123 309 q 77 433 77 385 z "},"Ϝ":{"ha":790,"x_min":131,"x_max":732,"o":"m 131 0 l 131 960 l 732 960 l 732 868 l 656 868 l 623 869 l 300 869 l 256 871 l 256 522 l 673 522 l 673 437 l 256 437 l 256 0 l 131 0 z "},"ϝ":{"ha":694,"x_min":77,"x_max":616,"o":"m 77 -271 l 77 441 q 146 587 77 538 q 254 618 191 618 l 616 618 l 616 509 l 262 509 q 246 508 256 509 q 232 507 236 507 q 222 506 228 507 q 211 500 216 504 q 197 488 205 496 q 184 439 185 472 l 184 306 l 433 306 l 435 304 l 435 196 l 184 196 l 184 -271 l 77 -271 z "},"ϟ":{"ha":540,"x_min":77,"x_max":461,"o":"m 77 220 l 77 810 l 180 810 q 170 542 179 705 q 161 306 161 378 l 461 390 l 461 -201 l 358 -201 l 357 -200 q 367 68 358 -96 q 376 304 376 232 l 77 220 z "},"Ϡ":{"ha":887,"x_min":41,"x_max":847,"o":"m 41 0 l 236 677 l 167 774 l 155 791 l 154 815 l 154 964 l 847 0 l 724 0 l 500 310 l 412 0 l 323 0 l 437 397 l 298 589 l 131 0 l 41 0 z "},"ϡ":{"ha":1002,"x_min":58,"x_max":945,"o":"m 58 304 q 81 416 58 366 q 149 508 104 467 q 237 581 193 550 q 342 652 281 611 q 441 724 404 693 l 481 758 q 433 790 445 782 q 372 824 421 799 q 284 862 322 850 q 184 886 245 873 q 58 899 122 899 l 58 1003 q 511 865 306 1003 q 830 498 715 728 q 945 0 945 268 l 836 0 q 726 461 836 224 q 555 153 559 340 l 447 153 q 514 369 448 271 q 684 534 581 468 q 546 703 641 608 q 512 675 522 683 q 485 655 501 667 q 460 637 469 643 q 417 610 450 632 q 353 567 385 589 q 211 443 254 502 q 167 306 168 383 l 167 304 l 58 304 z "},"Ѐ":{"ha":829,"x_min":131,"x_max":771,"o":"m 131 0 l 131 964 l 751 964 l 751 872 l 672 872 l 637 873 l 304 873 l 256 875 l 256 545 l 714 545 l 714 458 l 256 458 l 256 97 l 374 97 l 407 98 l 676 98 l 707 100 l 771 100 l 771 0 l 131 0 m 197 1182 l 353 1182 l 570 1055 l 468 1055 l 449 1057 q 197 1182 420 1068 z "},"Ё":{"ha":829,"x_min":131,"x_max":771,"o":"m 131 0 l 131 964 l 751 964 l 751 872 l 672 872 l 637 873 l 304 873 l 256 875 l 256 545 l 714 545 l 714 458 l 256 458 l 256 97 l 374 97 l 407 98 l 676 98 l 707 100 l 771 100 l 771 0 l 131 0 m 245 1055 l 245 1179 l 370 1179 l 370 1055 l 245 1055 m 514 1055 l 514 1179 l 639 1179 l 639 1055 l 514 1055 z "},"Ђ":{"ha":1137,"x_min":49,"x_max":1086,"o":"m 49 872 l 49 964 l 895 964 l 895 873 l 595 873 l 533 875 l 533 525 q 815 648 646 648 q 935 633 884 648 q 1015 595 986 618 q 1060 537 1043 572 q 1081 469 1076 501 q 1086 395 1086 436 l 1086 290 q 1076 182 1086 218 q 1049 114 1067 147 q 999 46 1031 81 q 915 -10 966 11 q 800 -31 864 -31 q 631 0 721 -31 l 656 94 q 761 57 720 61 q 807 54 782 54 q 957 153 913 54 q 978 286 978 197 l 978 385 q 977 423 978 408 q 969 462 975 437 q 947 501 962 486 q 908 531 932 515 q 842 555 884 547 q 745 562 800 562 q 591 498 650 562 q 533 325 533 433 l 533 0 l 410 0 l 410 875 l 245 873 l 138 873 l 107 872 l 49 872 z "},"Ѓ":{"ha":753,"x_min":131,"x_max":693,"o":"m 131 0 l 131 964 l 693 964 l 693 872 l 624 872 l 590 873 l 292 873 l 256 875 l 256 0 l 131 0 m 240 1055 q 361 1126 292 1086 q 446 1175 431 1168 q 475 1182 460 1182 l 570 1182 l 611 1181 q 359 1057 374 1061 q 342 1055 353 1056 l 315 1055 q 295 1055 309 1055 q 275 1054 282 1054 q 240 1055 251 1054 z "},"Є":{"ha":887,"x_min":92,"x_max":817,"o":"m 92 482 q 131 694 92 596 q 235 857 171 793 q 375 958 298 921 q 526 994 452 994 q 612 992 581 994 q 693 980 643 990 q 802 947 743 970 l 781 832 q 668 888 718 871 q 545 905 618 905 q 317 789 406 905 q 218 525 228 672 l 696 525 l 696 439 l 218 439 q 317 175 228 292 q 545 58 406 58 q 588 59 568 58 q 628 64 608 60 q 660 69 647 68 q 689 78 672 71 q 714 87 707 85 q 739 99 721 89 q 760 113 757 110 q 784 128 764 115 q 808 143 804 140 l 817 46 q 687 -15 741 1 q 547 -31 633 -31 q 220 122 349 -31 q 92 482 92 275 z "},"Ѕ":{"ha":770,"x_min":61,"x_max":693,"o":"m 61 65 l 82 180 q 379 65 228 65 q 526 121 469 65 q 582 249 582 176 q 549 348 582 303 q 463 415 517 393 q 290 461 460 416 q 141 552 205 484 q 77 721 77 621 q 163 911 77 828 q 390 994 250 994 q 644 928 521 994 l 625 812 q 517 879 567 857 q 389 901 467 901 q 243 852 298 901 q 187 737 187 803 q 219 648 187 688 q 298 589 250 608 q 399 561 318 581 q 507 530 481 542 q 638 428 584 498 q 693 262 693 358 q 605 57 693 144 q 379 -31 517 -31 q 61 65 212 -31 z "},"І":{"ha":386,"x_min":131,"x_max":256,"o":"m 131 0 l 131 964 l 256 964 l 256 0 l 131 0 z "},"Ї":{"ha":386,"x_min":-4,"x_max":391,"o":"m -4 1055 l -4 1179 l 121 1179 l 121 1055 l -4 1055 m 131 0 l 131 964 l 256 964 l 256 0 l 131 0 m 266 1055 l 266 1179 l 391 1179 l 391 1055 l 266 1055 z "},"Ј":{"ha":655,"x_min":57,"x_max":539,"o":"m 57 28 l 75 132 q 112 100 100 110 q 166 73 123 90 q 254 56 208 56 q 371 92 323 56 q 418 218 418 129 l 418 964 l 539 964 l 539 215 q 517 94 539 144 q 458 17 496 43 q 381 -19 421 -8 q 294 -31 340 -31 q 57 28 172 -31 z "},"Љ":{"ha":1440,"x_min":26,"x_max":1362,"o":"m 26 0 l 26 87 l 79 87 q 111 88 103 87 q 141 94 119 89 q 173 108 163 98 q 201 139 183 118 q 230 189 220 160 q 253 264 240 218 q 275 370 265 310 q 311 964 311 608 l 856 964 l 856 545 l 1036 545 q 1218 504 1146 545 q 1322 408 1282 469 q 1362 271 1362 346 q 1345 184 1362 228 q 1293 97 1328 140 q 1192 27 1258 54 q 1038 0 1125 0 l 732 0 l 732 875 l 400 875 q 345 264 400 507 q 252 54 310 109 q 111 0 193 0 l 26 0 m 856 78 l 1008 78 q 1188 139 1128 78 q 1249 269 1249 200 q 1237 328 1249 298 q 1199 390 1225 358 q 1122 440 1174 421 q 1000 460 1069 460 q 986 459 995 460 q 972 458 978 458 l 857 458 l 856 406 l 856 78 z "},"Њ":{"ha":1418,"x_min":131,"x_max":1339,"o":"m 131 0 l 131 964 l 256 964 l 256 545 l 708 545 l 708 964 l 832 964 l 832 545 l 1014 545 q 1194 504 1122 545 q 1298 408 1258 469 q 1339 271 1339 346 q 1321 183 1339 228 q 1270 97 1304 139 q 1168 27 1235 54 q 1015 0 1101 0 l 708 0 l 708 458 l 256 458 l 256 0 l 131 0 m 832 78 l 985 78 q 1165 139 1104 78 q 1226 269 1226 200 q 1215 328 1226 298 q 1177 390 1203 358 q 1098 440 1150 421 q 977 460 1046 460 q 964 459 972 460 q 950 458 956 458 l 833 458 l 832 407 l 832 78 z "},"Ћ":{"ha":1061,"x_min":49,"x_max":917,"o":"m 49 872 l 49 964 l 873 964 l 873 873 l 553 873 l 485 875 l 485 530 q 704 632 578 632 q 805 615 764 632 q 869 574 847 597 q 902 515 890 551 q 915 454 913 478 q 917 395 917 429 l 917 0 l 808 0 l 808 390 q 804 445 808 422 q 785 494 800 468 q 734 533 770 519 q 643 547 699 547 q 527 486 569 547 q 485 334 485 425 l 485 0 l 361 0 l 361 873 l 127 873 l 100 872 l 49 872 z "},"Ќ":{"ha":964,"x_min":132,"x_max":904,"o":"m 132 0 l 132 964 l 252 964 l 252 449 l 755 964 l 885 964 l 513 583 l 513 582 l 904 0 l 774 0 l 436 504 l 252 317 l 252 0 l 132 0 m 364 1055 l 581 1182 l 675 1182 l 736 1181 q 513 1069 543 1084 q 467 1055 484 1055 l 439 1055 q 419 1055 432 1055 q 399 1054 406 1054 q 364 1055 375 1054 z "},"Ѝ":{"ha":964,"x_min":131,"x_max":832,"o":"m 131 0 l 131 964 l 250 964 l 250 97 l 298 203 l 663 964 l 832 964 l 832 0 l 714 0 l 714 822 l 713 867 l 664 761 l 300 0 l 131 0 m 283 1182 l 439 1182 l 656 1055 l 554 1055 l 534 1057 q 283 1182 506 1068 z "},"Ў":{"ha":926,"x_min":20,"x_max":905,"o":"m 20 964 l 151 964 q 427 439 351 594 q 513 231 503 285 q 596 482 519 294 l 794 964 l 905 964 l 642 339 q 622 293 640 335 q 597 235 604 250 q 571 182 590 220 q 539 124 553 144 q 504 80 525 104 q 461 40 484 56 q 302 0 403 0 l 231 0 l 231 90 l 315 90 q 402 108 372 90 q 456 160 432 126 l 20 964 m 237 1235 l 322 1235 q 343 1182 325 1204 q 387 1151 361 1160 q 433 1138 412 1141 q 472 1135 454 1135 q 512 1138 492 1135 q 558 1151 532 1141 q 603 1182 585 1160 q 623 1235 621 1204 l 708 1235 q 634 1093 705 1145 q 473 1042 564 1042 q 312 1094 383 1042 q 237 1235 240 1146 z "},"Џ":{"ha":964,"x_min":131,"x_max":832,"o":"m 131 0 l 131 964 l 256 964 l 256 93 l 708 93 l 708 964 l 832 964 l 832 0 l 533 0 l 533 -271 l 429 -271 l 429 0 l 131 0 z "},"А":{"ha":926,"x_min":37,"x_max":885,"o":"m 37 0 l 400 964 l 524 964 l 885 0 l 757 0 l 650 283 l 248 283 l 142 0 l 37 0 m 277 361 l 621 361 q 449 867 456 815 q 277 361 431 782 z "},"Б":{"ha":926,"x_min":134,"x_max":847,"o":"m 134 0 l 134 964 l 770 964 l 770 872 l 688 872 l 653 873 l 307 873 l 250 875 l 250 545 l 475 545 q 649 517 573 545 q 766 447 725 490 q 827 359 807 404 q 847 269 847 314 q 760 91 847 166 q 547 3 672 16 q 478 0 524 0 l 134 0 m 250 78 l 447 78 q 662 138 590 78 q 733 269 733 199 q 718 331 733 300 q 671 393 703 363 q 578 441 639 422 q 439 460 518 460 q 423 459 433 460 q 407 458 412 458 l 252 458 l 250 407 l 250 78 z "},"В":{"ha":926,"x_min":134,"x_max":847,"o":"m 134 0 l 134 964 l 441 964 q 612 940 537 964 q 727 879 686 917 q 788 801 768 842 q 808 722 808 761 q 749 593 808 653 q 575 504 689 533 q 767 420 686 486 q 847 261 847 354 q 759 87 847 159 q 549 3 671 16 q 478 0 525 0 l 134 0 m 250 78 l 447 78 q 661 136 589 78 q 733 262 733 195 q 661 393 733 339 q 488 457 589 447 q 416 458 475 458 l 252 458 l 250 407 l 250 78 m 250 545 l 416 545 q 623 599 547 545 q 699 721 699 653 q 627 834 699 782 q 410 886 555 886 l 252 886 l 250 838 l 250 545 z "},"Г":{"ha":753,"x_min":131,"x_max":693,"o":"m 131 0 l 131 964 l 693 964 l 693 872 l 624 872 l 590 873 l 292 873 l 256 875 l 256 0 l 131 0 z "},"Д":{"ha":1010,"x_min":49,"x_max":960,"o":"m 49 93 l 122 93 q 179 166 157 134 q 234 283 201 199 q 285 479 267 368 q 310 889 306 603 l 310 964 l 856 964 l 856 93 l 960 93 l 960 -271 l 871 -271 l 871 0 l 138 0 l 138 -271 l 49 -271 l 49 93 m 236 93 l 730 93 l 730 875 l 400 875 q 399 822 400 868 q 398 753 399 777 q 395 679 397 730 q 389 593 393 628 q 379 506 385 558 q 364 413 374 454 q 341 325 354 372 q 312 235 329 278 q 273 154 294 192 l 236 93 z "},"Е":{"ha":829,"x_min":131,"x_max":771,"o":"m 131 0 l 131 964 l 751 964 l 751 872 l 672 872 l 637 873 l 304 873 l 256 875 l 256 545 l 714 545 l 714 458 l 256 458 l 256 97 l 374 97 l 407 98 l 676 98 l 707 100 l 771 100 l 771 0 l 131 0 z "},"Ж":{"ha":1543,"x_min":57,"x_max":1483,"o":"m 57 0 l 449 583 l 77 964 l 205 964 l 710 449 l 710 964 l 829 964 l 829 449 l 1335 964 l 1464 964 l 1092 583 l 1483 0 l 1353 0 l 1015 504 l 829 317 l 829 0 l 710 0 l 710 317 l 525 504 l 187 0 l 57 0 z "},"З":{"ha":848,"x_min":69,"x_max":790,"o":"m 69 107 l 118 192 q 174 133 155 151 q 228 90 192 115 q 309 56 264 65 q 418 47 354 47 q 607 111 538 47 q 676 253 676 175 q 609 394 676 330 q 401 458 542 458 l 269 458 l 269 545 l 364 545 q 380 543 370 543 q 567 596 492 543 q 642 734 642 650 q 424 917 642 916 q 331 906 375 917 q 262 884 288 895 q 207 848 237 873 q 169 816 176 823 q 138 782 161 808 l 85 875 q 240 966 164 937 q 427 994 317 994 q 547 984 494 994 q 648 948 599 974 q 724 869 697 922 q 751 736 751 815 q 748 699 751 718 q 731 652 745 681 q 692 598 717 623 q 620 547 667 574 q 507 504 572 521 q 709 413 628 483 q 790 252 790 343 q 687 54 790 139 q 416 -31 583 -31 q 230 -3 298 -31 q 69 107 161 25 z "},"И":{"ha":964,"x_min":131,"x_max":832,"o":"m 131 0 l 131 964 l 250 964 l 250 97 l 298 203 l 663 964 l 832 964 l 832 0 l 714 0 l 714 822 l 713 867 l 664 761 l 300 0 l 131 0 z "},"Й":{"ha":964,"x_min":131,"x_max":832,"o":"m 131 0 l 131 964 l 250 964 l 250 97 l 298 203 l 663 964 l 832 964 l 832 0 l 714 0 l 714 822 l 713 867 l 664 761 l 300 0 l 131 0 m 245 1235 l 332 1235 q 368 1169 336 1194 q 427 1140 400 1145 q 481 1135 454 1135 q 536 1140 509 1135 q 596 1169 564 1145 q 632 1235 628 1193 l 717 1235 q 643 1093 714 1145 q 482 1042 572 1042 q 319 1093 391 1042 q 245 1235 248 1145 z "},"К":{"ha":964,"x_min":132,"x_max":904,"o":"m 132 0 l 132 964 l 252 964 l 252 449 l 755 964 l 885 964 l 513 583 l 513 582 l 904 0 l 774 0 l 436 504 l 252 317 l 252 0 l 132 0 z "},"Л":{"ha":987,"x_min":26,"x_max":856,"o":"m 26 0 l 26 87 l 79 87 q 111 88 103 87 q 141 94 119 89 q 173 108 163 98 q 201 139 183 118 q 230 189 220 160 q 253 264 240 218 q 275 370 265 310 q 311 964 311 608 l 856 964 l 856 0 l 732 0 l 732 875 l 400 875 q 345 264 400 507 q 252 54 310 109 q 111 0 193 0 l 26 0 z "},"М":{"ha":1215,"x_min":139,"x_max":1076,"o":"m 139 0 l 139 964 l 297 964 l 511 407 q 607 127 600 165 l 608 127 q 703 406 615 176 l 917 964 l 1076 964 l 1076 0 l 968 0 l 968 822 l 966 867 l 953 815 l 869 587 l 656 31 l 555 31 l 347 571 q 248 867 258 812 l 248 0 l 139 0 z "},"Н":{"ha":964,"x_min":131,"x_max":832,"o":"m 131 0 l 131 964 l 256 964 l 256 545 l 708 545 l 708 964 l 832 964 l 832 0 l 708 0 l 708 458 l 256 458 l 256 0 l 131 0 z "},"О":{"ha":1022,"x_min":77,"x_max":943,"o":"m 77 479 q 205 844 77 694 q 511 994 334 994 q 815 844 686 994 q 943 479 943 694 q 813 115 943 261 q 510 -31 684 -31 q 206 116 335 -31 q 77 479 77 263 m 293 793 q 247 737 293 793 q 201 499 201 681 q 288 188 201 317 q 510 60 374 60 q 731 187 642 60 q 819 498 819 314 q 728 793 819 680 q 510 905 636 905 q 293 793 385 905 z "},"П":{"ha":964,"x_min":131,"x_max":832,"o":"m 131 0 l 131 964 l 832 964 l 832 0 l 708 0 l 708 875 l 256 875 l 256 0 l 131 0 z "},"Р":{"ha":887,"x_min":132,"x_max":808,"o":"m 132 0 l 132 964 l 460 964 q 673 909 587 964 q 773 811 737 869 q 808 685 808 753 q 719 488 808 576 q 465 400 629 400 q 443 401 458 400 q 419 401 428 401 l 257 401 l 257 0 l 132 0 m 253 482 l 437 482 q 564 502 509 482 q 644 553 618 521 q 683 619 671 586 q 696 685 696 652 q 685 747 696 715 q 648 811 673 778 q 568 865 623 844 q 437 886 514 886 l 253 886 l 253 482 z "},"С":{"ha":887,"x_min":92,"x_max":817,"o":"m 92 482 q 131 694 92 596 q 235 857 171 793 q 375 958 298 921 q 526 994 452 994 q 612 992 581 994 q 693 980 643 990 q 802 947 743 970 l 781 832 q 669 887 718 869 q 545 905 619 905 q 311 782 406 905 q 216 482 216 659 q 312 181 216 304 q 549 58 407 58 q 599 60 575 58 q 639 64 623 62 q 676 74 656 66 q 706 83 696 81 q 734 97 715 86 q 758 111 753 109 q 783 127 762 114 q 808 143 804 140 l 817 46 q 687 -15 741 1 q 547 -31 633 -31 q 220 122 349 -31 q 92 482 92 275 z "},"Т":{"ha":944,"x_min":49,"x_max":893,"o":"m 49 872 l 49 964 l 893 964 l 893 872 l 833 872 l 804 873 l 696 873 l 533 875 l 533 0 l 408 0 l 408 875 l 245 873 l 138 873 l 107 872 l 49 872 z "},"У":{"ha":926,"x_min":20,"x_max":905,"o":"m 20 964 l 151 964 q 427 439 351 594 q 513 231 503 285 q 596 482 519 294 l 794 964 l 905 964 l 642 339 q 622 293 640 335 q 597 235 604 250 q 571 182 590 220 q 539 124 553 144 q 504 80 525 104 q 461 40 484 56 q 302 0 403 0 l 231 0 l 231 90 l 315 90 q 402 108 372 90 q 456 160 432 126 l 20 964 z "},"Ф":{"ha":1156,"x_min":77,"x_max":1078,"o":"m 77 501 q 429 851 77 811 q 519 857 461 854 l 519 964 l 636 964 l 636 857 q 847 827 757 852 q 999 734 937 802 q 1078 501 1078 647 q 1060 378 1078 433 q 1016 288 1042 323 q 948 226 990 253 q 871 185 907 199 q 786 162 836 171 q 707 150 736 153 q 636 146 677 147 l 636 0 l 519 0 l 519 146 q 286 183 366 154 q 180 244 225 207 q 77 501 77 334 m 197 503 q 211 410 197 451 q 241 341 224 368 q 290 294 258 314 q 343 263 321 273 q 403 245 366 253 q 455 236 440 237 q 503 232 471 235 q 519 231 513 231 l 519 772 q 473 769 486 770 q 418 761 460 768 q 354 744 376 754 q 297 714 332 734 q 244 667 262 694 q 212 598 227 640 q 197 503 197 555 m 636 231 q 803 260 751 240 q 958 503 958 318 q 944 597 958 555 q 912 665 930 639 q 861 712 895 692 q 806 743 828 733 q 742 760 783 753 q 686 768 701 766 q 636 772 671 770 l 636 231 z "},"Х":{"ha":926,"x_min":20,"x_max":905,"o":"m 20 0 l 392 507 l 392 509 l 39 964 l 184 964 l 453 602 l 714 964 l 847 964 l 513 509 l 513 507 l 905 0 l 760 0 l 453 424 l 153 0 l 20 0 z "},"Ц":{"ha":987,"x_min":131,"x_max":936,"o":"m 131 0 l 131 964 l 256 964 l 256 93 l 708 93 l 708 964 l 832 964 l 832 93 l 936 93 l 936 -271 l 847 -271 l 847 0 l 131 0 z "},"Ч":{"ha":964,"x_min":131,"x_max":832,"o":"m 131 624 l 131 964 l 256 964 l 256 632 q 396 504 256 505 l 708 504 l 708 964 l 832 964 l 832 0 l 708 0 l 708 422 l 400 422 q 193 494 275 422 q 131 624 131 549 z "},"Ш":{"ha":1503,"x_min":131,"x_max":1372,"o":"m 131 0 l 131 964 l 250 964 l 250 93 l 692 93 l 692 964 l 811 964 l 811 93 l 1253 93 l 1253 964 l 1372 964 l 1372 0 l 131 0 z "},"Щ":{"ha":1527,"x_min":131,"x_max":1476,"o":"m 131 0 l 131 964 l 250 964 l 250 93 l 692 93 l 692 964 l 811 964 l 811 93 l 1253 93 l 1253 964 l 1372 964 l 1372 93 l 1476 93 l 1476 -271 l 1388 -271 l 1388 0 l 131 0 z "},"Ъ":{"ha":1205,"x_min":49,"x_max":1126,"o":"m 49 872 l 49 964 l 529 964 l 529 545 l 755 545 q 930 517 854 545 q 1046 447 1006 490 q 1106 359 1086 404 q 1126 269 1126 314 q 1039 91 1126 166 q 827 3 951 16 q 757 0 803 0 l 412 0 l 412 875 l 245 873 l 138 873 l 107 872 l 49 872 m 529 78 l 726 78 q 941 139 869 78 q 1013 269 1013 200 q 997 331 1013 300 q 951 393 982 363 q 859 441 920 422 q 720 460 799 460 q 704 459 714 460 q 688 458 693 458 l 530 458 l 529 406 l 529 78 z "},"Ы":{"ha":1234,"x_min":134,"x_max":1095,"o":"m 134 0 l 134 964 l 250 964 l 250 545 l 475 545 q 649 517 573 545 q 766 447 725 490 q 827 359 807 404 q 847 269 847 314 q 760 91 847 166 q 547 3 672 16 q 478 0 524 0 l 134 0 m 250 78 l 447 78 q 662 138 590 78 q 733 269 733 199 q 718 331 733 300 q 671 393 703 363 q 578 441 639 422 q 439 460 518 460 q 423 459 433 460 q 407 458 412 458 l 252 458 l 250 407 l 250 78 m 970 0 l 970 964 l 1095 964 l 1095 0 l 970 0 z "},"Ь":{"ha":926,"x_min":134,"x_max":847,"o":"m 134 0 l 134 964 l 250 964 l 250 545 l 475 545 q 649 517 573 545 q 766 447 725 490 q 827 359 807 404 q 847 269 847 314 q 760 91 847 166 q 547 3 672 16 q 478 0 524 0 l 134 0 m 250 78 l 447 78 q 662 138 590 78 q 733 269 733 199 q 718 331 733 300 q 671 393 703 363 q 578 441 639 422 q 439 460 518 460 q 423 459 433 460 q 407 458 412 458 l 252 458 l 250 407 l 250 78 z "},"Э":{"ha":887,"x_min":69,"x_max":794,"o":"m 69 46 l 78 143 q 102 128 82 140 q 125 113 122 115 q 147 99 129 110 q 172 87 165 89 q 196 78 179 85 q 226 69 214 71 q 258 64 239 68 q 298 59 278 60 q 342 58 318 58 q 509 117 435 58 q 622 260 583 175 q 668 439 661 345 l 189 439 l 189 525 l 668 525 q 567 792 659 679 q 342 905 475 905 q 217 887 268 905 q 104 832 167 869 l 85 947 q 219 985 164 977 q 359 994 273 994 q 668 841 543 994 q 794 482 794 688 q 666 122 794 275 q 339 -31 538 -31 q 199 -15 253 -31 q 69 46 144 1 z "},"Ю":{"ha":1445,"x_min":131,"x_max":1368,"o":"m 131 0 l 131 964 l 256 964 l 256 521 l 503 521 q 651 869 524 743 q 935 994 778 994 q 1239 846 1109 994 q 1368 479 1368 699 q 1239 117 1368 264 q 935 -31 1109 -31 q 652 92 779 -31 q 503 436 525 215 l 256 436 l 256 0 l 131 0 m 625 498 q 714 186 625 313 q 935 60 803 60 q 1156 187 1067 60 q 1244 498 1244 314 q 1153 793 1244 680 q 935 905 1061 905 q 718 793 810 905 q 625 498 625 680 z "},"Я":{"ha":897,"x_min":37,"x_max":762,"o":"m 37 0 l 378 446 q 158 539 240 463 q 77 713 77 616 q 97 795 77 754 q 158 876 117 836 q 274 940 199 916 q 449 964 350 964 l 762 964 l 762 0 l 642 0 l 642 443 l 494 443 l 174 0 l 37 0 m 189 713 q 201 651 189 681 q 241 591 214 621 q 325 543 269 561 q 456 525 380 525 l 642 525 l 642 886 l 456 886 q 250 833 310 886 q 189 713 189 779 z "},"а":{"ha":667,"x_min":61,"x_max":555,"o":"m 61 157 q 100 247 61 208 q 202 303 139 285 q 326 331 265 322 q 447 340 386 340 l 447 387 q 411 515 444 476 q 323 557 376 557 q 115 486 216 557 l 107 579 q 325 640 212 640 q 485 577 420 640 q 555 424 550 514 l 555 0 l 450 0 l 450 49 q 425 31 445 43 q 346 1 404 18 q 220 -16 288 -16 q 101 41 140 -16 q 61 157 61 97 m 163 158 q 199 96 163 121 q 292 71 236 71 q 399 96 351 71 q 447 180 447 121 l 447 268 q 360 262 404 268 q 268 246 315 257 q 192 212 221 235 q 163 158 163 189 z "},"б":{"ha":694,"x_min":41,"x_max":652,"o":"m 41 328 l 41 382 q 65 690 47 604 q 309 972 114 933 q 597 1003 319 975 l 597 971 q 557 908 597 921 q 446 892 543 904 q 326 876 349 880 q 259 851 289 868 q 210 806 229 833 q 178 754 191 778 q 156 694 165 730 q 144 640 147 657 q 138 590 142 623 q 132 521 132 543 q 349 640 214 640 q 561 542 471 640 q 652 306 652 444 q 561 77 652 170 q 346 -16 471 -16 q 147 62 235 -16 q 45 262 60 140 q 41 328 41 285 m 150 319 q 204 142 150 211 q 346 74 258 74 q 483 137 424 74 q 542 321 542 200 q 486 491 542 428 q 346 554 431 554 q 205 490 260 554 q 150 319 150 425 z "},"в":{"ha":667,"x_min":113,"x_max":619,"o":"m 113 0 l 113 618 l 372 618 q 446 613 414 618 q 514 594 478 608 q 569 547 550 579 q 589 464 589 514 q 563 398 589 425 q 465 340 538 371 q 584 271 549 307 q 619 187 619 235 q 571 56 619 104 q 508 18 546 31 q 439 3 469 5 q 364 0 410 0 l 113 0 m 216 85 l 343 85 q 522 189 522 85 q 470 265 522 231 q 306 300 418 300 l 216 300 l 216 85 m 216 378 l 250 378 q 418 397 342 378 q 494 461 494 416 q 339 536 494 536 l 216 536 l 216 378 z "},"г":{"ha":561,"x_min":111,"x_max":526,"o":"m 111 0 l 111 618 l 526 618 l 526 534 l 272 534 l 220 536 l 220 0 l 111 0 z "},"д":{"ha":748,"x_min":37,"x_max":708,"o":"m 37 85 l 98 85 q 198 271 174 160 q 222 610 222 382 l 222 618 l 616 618 l 616 85 l 708 85 l 708 -225 l 619 -225 l 619 0 l 126 0 l 126 -225 l 37 -225 l 37 85 m 222 85 l 513 85 l 513 532 l 317 532 q 314 460 315 522 q 308 347 313 399 q 281 220 302 296 q 222 85 260 144 z "},"е":{"ha":616,"x_min":47,"x_max":575,"o":"m 47 314 q 131 546 47 452 q 328 640 215 640 q 407 627 369 640 q 483 583 444 614 q 546 492 521 553 q 575 346 571 431 l 575 306 l 144 306 q 208 136 149 201 q 350 71 268 71 q 561 147 456 71 l 570 56 q 350 -16 464 -15 q 133 82 218 -16 q 47 314 47 180 m 151 382 l 496 382 q 466 474 488 436 q 417 527 444 511 q 369 549 390 543 q 328 554 347 554 q 211 500 257 554 q 151 382 165 446 z "},"ж":{"ha":1026,"x_min":22,"x_max":1002,"o":"m 22 0 l 289 378 l 53 618 l 178 618 l 460 332 l 460 618 l 559 618 l 559 328 l 846 618 l 971 618 l 734 378 l 1002 0 l 888 0 l 669 311 l 559 201 l 559 0 l 460 0 l 460 205 l 354 311 l 136 0 l 22 0 z "},"з":{"ha":616,"x_min":39,"x_max":570,"o":"m 39 58 l 78 144 q 169 91 127 107 q 273 74 211 74 q 428 109 382 74 q 473 187 473 143 q 467 223 473 204 q 427 266 460 241 q 336 297 393 290 q 257 300 318 300 l 192 300 l 192 378 l 271 378 q 319 380 294 378 q 378 392 345 383 q 435 420 412 400 q 461 469 458 440 q 273 555 458 555 q 175 544 207 555 q 85 496 143 533 l 46 579 q 155 628 110 616 q 275 640 200 640 q 355 637 321 640 q 437 620 389 633 q 516 574 486 607 q 553 488 546 541 q 553 479 553 485 q 554 471 554 473 q 544 424 554 444 q 512 386 534 403 q 478 363 489 370 q 439 342 467 357 q 531 282 493 322 q 570 184 570 243 q 556 119 570 151 q 513 56 543 87 q 421 4 484 24 q 275 -16 359 -16 q 39 58 143 -16 z "},"и":{"ha":745,"x_min":113,"x_max":631,"o":"m 113 0 l 113 618 l 216 618 l 216 97 l 478 618 l 631 618 l 631 0 l 526 0 l 526 521 l 265 0 l 113 0 z "},"й":{"ha":745,"x_min":113,"x_max":631,"o":"m 113 0 l 113 618 l 216 618 l 216 97 l 478 618 l 631 618 l 631 0 l 526 0 l 526 521 l 265 0 l 113 0 m 138 888 l 222 888 q 243 835 225 857 q 287 803 261 812 q 333 791 313 794 q 372 787 354 787 q 412 791 392 787 q 458 803 432 794 q 503 835 485 812 q 524 888 521 857 l 608 888 q 535 746 606 798 q 374 694 464 694 q 212 747 283 694 q 138 888 140 799 z "},"к":{"ha":679,"x_min":113,"x_max":654,"o":"m 113 0 l 113 618 l 212 618 l 212 328 l 498 618 l 624 618 l 387 379 l 654 0 l 541 0 l 322 311 l 212 201 l 212 0 l 113 0 z "},"л":{"ha":733,"x_min":26,"x_max":618,"o":"m 26 0 l 26 90 l 81 90 q 156 119 130 90 q 203 262 183 149 q 222 587 222 375 l 222 618 l 618 618 l 618 0 l 514 0 l 514 532 l 318 532 q 302 259 318 366 q 253 96 286 151 q 180 20 220 40 q 82 0 140 0 l 26 0 z "},"м":{"ha":929,"x_min":111,"x_max":817,"o":"m 111 0 l 111 618 l 258 618 l 460 127 l 661 618 l 817 618 l 817 0 l 708 0 l 708 547 q 507 16 700 488 l 414 16 q 236 475 260 397 q 220 547 225 513 l 220 0 l 111 0 z "},"н":{"ha":718,"x_min":113,"x_max":602,"o":"m 113 0 l 113 618 l 216 618 l 216 378 l 497 378 l 497 618 l 602 618 l 602 0 l 497 0 l 497 300 l 216 300 l 216 0 l 113 0 z "},"о":{"ha":694,"x_min":41,"x_max":652,"o":"m 41 307 q 131 544 41 448 q 346 640 221 640 q 564 539 477 640 q 652 306 652 439 q 560 76 652 168 q 346 -16 468 -16 q 133 77 224 -16 q 41 307 41 170 m 150 321 q 209 136 150 199 q 346 74 268 74 q 483 137 424 74 q 542 321 542 200 q 483 496 542 437 q 346 554 424 554 q 210 496 269 554 q 150 321 150 437 z "},"п":{"ha":718,"x_min":113,"x_max":602,"o":"m 113 0 l 113 618 l 602 618 l 602 0 l 497 0 l 497 532 l 216 532 l 216 0 l 113 0 z "},"р":{"ha":718,"x_min":113,"x_max":667,"o":"m 113 -271 l 113 618 l 216 618 l 216 550 q 447 632 318 632 q 605 536 543 632 q 667 311 667 440 q 590 76 667 168 q 408 -16 513 -16 q 221 64 305 -16 l 221 -271 l 113 -271 m 221 175 q 260 107 221 144 q 355 69 300 69 q 495 136 433 69 q 557 309 557 203 q 504 473 557 403 q 368 543 452 543 q 339 541 353 543 q 313 534 325 539 q 291 524 301 529 q 272 513 281 519 q 256 502 262 507 q 242 489 249 496 q 233 478 236 482 q 225 469 229 473 l 221 464 l 221 175 z "},"с":{"ha":616,"x_min":49,"x_max":576,"o":"m 49 310 q 132 539 49 439 q 354 640 215 640 q 462 628 419 640 q 570 579 505 615 l 553 488 q 449 541 485 530 q 353 551 409 551 q 208 480 258 551 q 157 310 157 408 q 211 140 157 207 q 351 74 265 74 q 570 149 460 74 l 576 56 q 350 -16 467 -15 q 136 80 222 -16 q 49 310 49 175 z "},"т":{"ha":635,"x_min":35,"x_max":602,"o":"m 35 530 l 35 618 l 602 618 l 602 530 l 543 530 l 514 532 l 372 532 l 372 0 l 264 0 l 264 532 l 122 532 l 93 530 l 35 530 z "},"у":{"ha":640,"x_min":20,"x_max":619,"o":"m 20 618 l 129 618 q 262 298 218 414 q 315 153 307 183 q 330 69 322 123 q 515 618 333 166 l 619 618 l 318 -125 q 243 -251 278 -218 q 158 -285 208 -285 q 57 -273 101 -285 l 50 -183 q 151 -207 124 -207 q 208 -180 189 -207 q 265 -58 227 -153 q 281 -21 275 -35 q 286 1 286 -9 q 279 25 286 11 l 20 618 z "},"ф":{"ha":1063,"x_min":49,"x_max":1014,"o":"m 49 310 q 115 537 49 442 q 285 632 182 632 q 479 559 391 632 l 479 1003 l 583 1003 l 583 559 q 778 632 672 631 q 947 536 881 632 q 1014 310 1014 440 q 941 80 1014 175 q 761 -16 868 -16 q 583 62 664 -16 l 583 -271 l 479 -271 l 479 62 q 298 -16 396 -16 q 121 79 194 -16 q 49 310 49 174 m 157 309 q 216 138 157 205 q 351 71 275 71 q 440 105 401 71 q 479 179 479 139 l 479 444 q 479 461 479 454 q 475 474 478 468 q 471 481 472 479 q 462 491 469 484 q 452 503 454 498 q 350 543 409 543 q 216 477 275 543 q 157 309 157 410 m 583 183 q 584 169 583 175 q 585 158 585 163 q 587 149 585 154 q 591 142 590 144 q 598 133 593 140 q 606 122 603 126 q 711 71 648 71 q 849 141 793 71 q 904 309 904 212 q 845 477 904 410 q 711 543 786 543 q 624 515 665 543 q 583 450 583 486 l 583 183 z "},"х":{"ha":640,"x_min":0,"x_max":639,"o":"m 0 0 l 269 317 l 269 319 l 8 618 l 123 618 l 315 389 l 317 389 l 501 618 l 616 618 l 361 319 l 361 318 l 639 0 l 524 0 l 315 261 l 115 0 l 0 0 z "},"ц":{"ha":761,"x_min":113,"x_max":722,"o":"m 113 0 l 113 618 l 216 618 l 216 85 l 526 85 l 526 618 l 631 618 l 631 85 l 722 85 l 722 -225 l 633 -225 l 633 0 l 113 0 z "},"ч":{"ha":745,"x_min":113,"x_max":631,"o":"m 113 410 l 113 618 l 216 618 l 216 401 q 219 381 216 391 q 228 366 222 372 q 239 354 233 359 q 253 346 244 349 q 267 341 261 343 q 283 338 273 339 q 298 336 293 336 q 311 336 302 336 q 321 335 319 335 l 526 335 l 526 618 l 631 618 l 631 0 l 526 0 l 526 257 l 318 257 l 306 258 q 290 258 295 258 q 271 260 285 258 q 249 264 257 262 q 226 271 240 267 q 202 281 212 275 q 179 296 192 288 q 153 315 165 304 q 123 352 133 334 q 113 380 114 371 q 113 410 113 390 z "},"ш":{"ha":1063,"x_min":113,"x_max":949,"o":"m 113 0 l 113 618 l 216 618 l 216 85 l 479 85 l 479 618 l 583 618 l 583 85 l 844 85 l 844 618 l 949 618 l 949 0 l 113 0 z "},"щ":{"ha":1080,"x_min":113,"x_max":1040,"o":"m 113 0 l 113 618 l 216 618 l 216 85 l 479 85 l 479 618 l 583 618 l 583 85 l 844 85 l 844 618 l 949 618 l 949 85 l 1040 85 l 1040 -225 l 951 -225 l 951 0 l 113 0 z "},"ъ":{"ha":819,"x_min":35,"x_max":772,"o":"m 35 530 l 35 618 l 371 618 l 371 378 l 518 378 q 709 319 646 378 q 772 192 772 261 q 763 129 772 159 q 728 68 753 98 q 649 19 703 37 q 519 0 596 0 l 267 0 l 267 532 l 123 532 l 93 530 l 35 530 m 371 89 l 507 89 q 636 121 597 89 q 675 193 675 153 q 630 267 675 233 q 492 300 585 300 l 371 300 l 371 89 z "},"ы":{"ha":948,"x_min":113,"x_max":833,"o":"m 113 0 l 113 618 l 216 618 l 216 378 l 363 378 q 556 319 494 378 q 619 192 619 261 q 609 129 619 159 q 574 68 599 98 q 495 19 549 37 q 367 0 441 0 l 113 0 m 216 89 l 339 89 q 494 131 452 89 q 522 196 522 159 q 476 267 522 233 q 338 300 431 300 l 216 300 l 216 89 m 729 0 l 729 618 l 833 618 l 833 0 l 729 0 z "},"ь":{"ha":667,"x_min":113,"x_max":619,"o":"m 113 0 l 113 618 l 216 618 l 216 378 l 363 378 q 556 319 494 378 q 619 192 619 261 q 609 129 619 159 q 574 68 599 98 q 495 19 549 37 q 367 0 441 0 l 113 0 m 216 89 l 339 89 q 494 131 452 89 q 522 196 522 159 q 476 267 522 233 q 338 300 431 300 l 216 300 l 216 89 z "},"э":{"ha":616,"x_min":39,"x_max":567,"o":"m 39 56 l 46 149 q 265 74 157 73 q 394 127 336 74 q 458 300 452 180 l 122 300 l 122 378 l 452 378 q 388 502 436 452 q 262 551 340 551 q 225 549 243 551 q 194 547 207 547 q 166 539 182 546 q 144 532 150 533 q 121 522 138 530 q 102 512 104 513 q 81 500 100 511 l 62 488 l 46 579 q 150 628 106 615 q 261 640 193 640 q 484 539 400 640 q 567 310 567 439 q 481 80 567 175 q 265 -16 395 -16 q 39 56 144 -15 z "},"ю":{"ha":1014,"x_min":111,"x_max":971,"o":"m 111 0 l 111 618 l 220 618 l 220 378 l 370 378 q 472 563 391 485 q 667 640 554 640 q 881 543 791 640 q 971 306 971 446 q 883 78 971 172 q 667 -16 794 -16 q 457 72 547 -16 q 363 300 367 160 l 220 300 l 220 0 l 111 0 m 471 321 q 530 136 471 199 q 667 74 589 74 q 804 136 745 74 q 863 321 863 199 q 804 496 863 437 q 667 554 745 554 q 530 496 589 554 q 471 321 471 437 z "},"я":{"ha":715,"x_min":22,"x_max":600,"o":"m 22 0 l 282 275 q 186 306 225 285 q 129 353 147 326 q 103 402 110 379 q 96 450 96 425 q 145 561 96 511 q 310 616 195 610 q 364 618 328 618 l 600 618 l 600 0 l 496 0 l 496 269 l 380 269 l 151 0 l 22 0 m 193 449 q 243 370 193 395 q 375 347 286 347 l 496 347 l 496 532 l 358 532 q 299 530 322 532 q 248 520 275 528 q 207 495 221 513 q 193 449 193 477 z "},"ѐ":{"ha":616,"x_min":47,"x_max":575,"o":"m 47 314 q 131 546 47 452 q 328 640 215 640 q 407 627 369 640 q 483 583 444 614 q 546 492 521 553 q 575 346 571 431 l 575 306 l 144 306 q 208 136 149 201 q 350 71 268 71 q 561 147 456 71 l 570 56 q 350 -16 464 -15 q 133 82 218 -16 q 47 314 47 180 m 151 382 l 496 382 q 466 474 488 436 q 417 527 444 511 q 369 549 390 543 q 328 554 347 554 q 211 500 257 554 q 151 382 165 446 m 212 889 l 319 889 l 505 708 l 420 708 l 212 889 z "},"ё":{"ha":616,"x_min":47,"x_max":575,"o":"m 47 314 q 131 546 47 452 q 328 640 215 640 q 407 627 369 640 q 483 583 444 614 q 546 492 521 553 q 575 346 571 431 l 575 306 l 144 306 q 208 136 149 201 q 350 71 268 71 q 561 147 456 71 l 570 56 q 350 -16 464 -15 q 133 82 218 -16 q 47 314 47 180 m 111 793 l 111 917 l 236 917 l 236 793 l 111 793 m 151 382 l 496 382 q 466 474 488 436 q 417 527 444 511 q 369 549 390 543 q 328 554 347 554 q 211 500 257 554 q 151 382 165 446 m 381 793 l 381 917 l 506 917 l 506 793 l 381 793 z "},"ђ":{"ha":679,"x_min":25,"x_max":628,"o":"m 25 770 l 25 851 l 110 851 l 110 1003 l 215 1003 l 215 851 l 628 851 l 628 770 l 215 770 l 215 529 q 425 632 302 632 q 522 615 481 632 q 582 574 562 597 q 613 515 602 551 q 626 454 624 478 q 628 396 628 429 l 628 328 q 619 193 628 257 q 557 -20 604 81 q 421 -195 510 -121 q 220 -271 332 -269 l 220 -193 q 429 -61 339 -189 q 518 309 518 68 l 518 390 q 517 428 518 414 q 509 468 517 441 q 487 509 501 494 q 442 535 472 524 q 370 547 412 547 q 266 498 311 547 q 220 329 220 449 l 220 0 l 110 0 l 110 770 l 25 770 z "},"ѓ":{"ha":541,"x_min":107,"x_max":525,"o":"m 107 708 l 292 889 l 400 889 l 193 708 l 107 708 m 110 0 l 110 618 l 525 618 l 525 534 l 271 534 l 218 536 l 218 0 l 110 0 z "},"є":{"ha":610,"x_min":41,"x_max":570,"o":"m 41 310 q 125 539 41 439 q 347 640 208 640 q 458 628 416 640 q 562 579 500 615 l 546 488 q 491 522 507 513 q 435 541 475 530 q 346 551 396 551 q 218 500 267 551 q 157 378 170 449 l 486 378 l 486 300 l 150 300 q 214 127 157 180 q 343 74 272 74 q 561 149 454 74 l 570 56 q 343 -16 460 -15 q 129 79 216 -16 q 41 310 41 174 z "},"ѕ":{"ha":532,"x_min":37,"x_max":500,"o":"m 37 47 l 54 142 q 72 131 57 140 q 95 118 87 122 q 120 105 103 114 q 152 92 138 97 q 186 82 167 87 q 227 74 205 77 q 272 72 249 72 q 371 101 341 72 q 401 167 401 131 q 376 224 401 201 q 323 256 351 248 q 262 270 310 260 q 191 286 214 279 q 90 348 134 304 q 46 457 46 392 q 56 517 46 489 q 88 576 65 546 q 159 623 111 606 q 273 640 207 640 q 476 597 373 640 l 461 505 q 445 513 460 507 q 429 521 431 519 q 413 528 427 522 q 395 535 400 533 q 378 541 390 536 q 358 547 366 546 q 338 551 351 547 q 315 555 325 554 q 291 556 304 555 q 261 557 277 557 q 171 531 197 557 q 144 472 144 505 q 181 406 144 426 q 285 374 218 386 q 379 350 351 363 q 465 283 429 328 q 500 176 500 239 q 490 114 500 144 q 458 53 481 83 q 387 3 435 22 q 273 -16 339 -16 q 37 47 151 -15 z "},"і":{"ha":332,"x_min":103,"x_max":228,"o":"m 103 819 l 103 943 l 228 943 l 228 819 l 103 819 m 113 0 l 113 618 l 216 618 l 216 0 l 113 0 z "},"ї":{"ha":332,"x_min":-30,"x_max":364,"o":"m -30 793 l -30 917 l 95 917 l 95 793 l -30 793 m 114 0 l 114 618 l 218 618 l 218 0 l 114 0 m 239 793 l 239 917 l 364 917 l 364 793 l 239 793 z "},"ј":{"ha":370,"x_min":-85,"x_max":258,"o":"m -85 -237 l -64 -153 q 45 -196 -9 -195 q 113 -176 85 -196 q 150 -126 142 -155 q 153 -90 153 -114 l 153 618 l 257 618 l 257 -69 q 203 -235 257 -184 q 82 -285 149 -285 q -85 -237 -3 -285 m 134 819 l 134 943 l 258 943 l 258 819 l 134 819 z "},"љ":{"ha":1048,"x_min":26,"x_max":1003,"o":"m 26 0 l 26 90 l 81 90 q 156 119 130 90 q 203 262 183 149 q 222 587 222 375 l 222 618 l 618 618 l 618 378 l 745 378 q 940 319 877 378 q 1003 192 1003 261 q 993 129 1003 159 q 958 68 983 98 q 879 19 932 37 q 747 0 825 0 l 514 0 l 514 532 l 318 532 q 302 259 318 366 q 253 96 286 151 q 180 20 220 40 q 82 0 140 0 l 26 0 m 618 89 l 721 89 q 867 122 823 89 q 905 193 905 151 q 860 267 905 233 q 722 300 815 300 l 619 300 l 618 222 l 618 89 z "},"њ":{"ha":1062,"x_min":113,"x_max":1014,"o":"m 113 0 l 113 618 l 216 618 l 216 378 l 526 378 l 526 618 l 631 618 l 631 378 l 757 378 q 951 319 889 378 q 1014 192 1014 261 q 1004 129 1014 159 q 969 68 994 98 q 890 19 943 37 q 758 0 836 0 l 526 0 l 526 300 l 216 300 l 216 0 l 113 0 m 631 89 l 733 89 q 879 122 835 89 q 917 193 916 150 q 872 267 917 233 q 734 300 828 300 l 632 300 l 631 222 l 631 89 z "},"ћ":{"ha":718,"x_min":25,"x_max":604,"o":"m 25 770 l 25 851 l 110 851 l 110 1003 l 215 1003 l 215 851 l 550 851 l 550 770 l 215 770 l 215 533 q 414 632 298 631 q 504 615 467 632 q 561 576 542 599 q 590 517 579 553 q 602 458 600 482 q 604 400 604 433 l 604 0 l 496 0 l 496 390 q 495 428 496 414 q 487 467 494 441 q 466 508 479 493 q 426 535 453 524 q 359 547 399 547 q 254 486 289 547 q 218 334 218 425 q 219 329 218 332 q 220 323 220 325 l 220 0 l 110 0 l 110 770 l 25 770 z "},"ќ":{"ha":679,"x_min":113,"x_max":654,"o":"m 113 0 l 113 618 l 212 618 l 212 328 l 498 618 l 624 618 l 387 379 l 654 0 l 541 0 l 322 311 l 212 201 l 212 0 l 113 0 m 180 708 l 366 889 l 473 889 l 267 708 l 180 708 z "},"ѝ":{"ha":745,"x_min":113,"x_max":631,"o":"m 113 0 l 113 618 l 216 618 l 216 97 l 478 618 l 631 618 l 631 0 l 526 0 l 526 521 l 265 0 l 113 0 m 217 889 l 325 889 l 510 708 l 425 708 l 217 889 z "},"ў":{"ha":640,"x_min":20,"x_max":619,"o":"m 20 618 l 129 618 q 262 298 218 414 q 315 153 307 183 q 330 69 322 123 q 515 618 333 166 l 619 618 l 318 -125 q 243 -251 278 -218 q 158 -285 208 -285 q 57 -273 101 -285 l 50 -183 q 151 -207 124 -207 q 208 -180 189 -207 q 265 -58 227 -153 q 281 -21 275 -35 q 286 1 286 -9 q 279 25 286 11 l 20 618 m 86 888 l 171 888 q 192 835 174 857 q 235 803 210 812 q 282 791 261 794 q 321 787 302 787 q 360 791 340 787 q 407 803 380 794 q 451 835 433 812 q 472 888 469 857 l 557 888 q 483 746 554 798 q 322 694 412 694 q 160 747 232 694 q 86 888 89 799 z "},"џ":{"ha":745,"x_min":113,"x_max":631,"o":"m 113 0 l 113 618 l 216 618 l 216 85 l 526 85 l 526 618 l 631 618 l 631 0 l 416 0 l 416 -225 l 328 -225 l 328 0 l 113 0 z "},"Ѡ":{"ha":1272,"x_min":92,"x_max":1179,"o":"m 92 482 q 113 698 92 604 q 166 846 134 791 q 243 935 199 900 q 329 981 288 970 q 414 994 370 993 l 414 905 q 216 479 216 896 q 236 265 216 353 q 289 135 256 176 q 353 76 322 93 q 421 60 385 60 q 578 102 511 60 l 578 501 l 694 501 l 694 102 q 850 60 761 60 l 852 60 q 919 77 887 60 q 984 136 951 94 q 1036 266 1017 178 q 1055 479 1055 354 q 1037 692 1055 604 q 987 824 1018 781 q 924 886 956 868 q 857 905 893 904 l 857 994 q 1019 944 951 993 q 1119 818 1086 896 q 1165 663 1152 739 q 1179 505 1179 587 l 1179 482 q 1157 261 1179 357 q 1101 112 1135 165 q 1022 24 1068 58 q 936 -20 977 -9 q 850 -31 895 -31 q 735 -15 779 -31 q 635 46 692 1 q 536 -15 582 1 q 422 -31 490 -31 q 337 -19 378 -31 q 249 25 296 -8 q 170 113 203 58 q 114 262 136 167 q 92 482 92 357 z "},"ѡ":{"ha":1137,"x_min":92,"x_max":1044,"o":"m 92 310 q 172 565 92 484 q 380 648 252 646 l 380 562 q 253 504 298 559 q 201 353 208 449 l 200 307 q 269 100 205 159 q 389 58 315 58 l 410 58 l 515 378 l 621 378 l 726 58 l 747 58 q 833 76 798 58 q 888 119 869 94 q 918 183 907 144 q 932 247 929 221 q 936 307 935 272 q 931 381 935 355 q 912 450 928 407 q 867 521 896 493 q 755 562 827 559 l 755 648 q 830 641 794 648 q 906 610 865 633 q 977 552 947 587 q 1025 453 1006 517 q 1044 309 1044 390 q 970 60 1044 151 q 751 -31 896 -31 q 570 18 652 -31 l 568 18 q 386 -31 486 -31 q 166 60 240 -31 q 92 310 92 150 z "},"Ѣ":{"ha":1080,"x_min":11,"x_max":1003,"o":"m 11 794 l 11 886 l 289 886 l 289 1042 l 406 1042 l 406 886 l 875 886 l 875 794 l 758 794 l 722 796 l 406 796 l 406 545 l 631 545 q 851 496 764 545 q 962 398 922 457 q 1003 271 1003 339 q 984 185 1003 229 q 926 99 965 142 q 810 28 886 56 q 633 0 733 0 l 289 0 l 289 796 l 114 796 l 82 794 l 11 794 m 406 78 l 567 78 q 687 85 653 79 q 775 114 721 90 q 889 269 889 174 q 874 331 889 300 q 826 393 859 363 q 734 441 794 422 q 595 460 673 460 q 579 459 589 460 q 562 458 568 458 l 406 458 l 406 78 z "},"ѣ":{"ha":694,"x_min":25,"x_max":647,"o":"m 25 536 l 25 618 l 140 618 l 140 888 l 244 888 l 244 618 l 436 618 l 436 536 l 244 536 l 244 378 l 390 378 q 584 319 521 378 q 647 192 647 261 q 637 129 647 159 q 602 68 627 98 q 523 19 576 37 q 395 0 469 0 l 140 0 l 140 536 l 25 536 m 244 89 l 366 89 q 522 131 479 89 q 549 196 549 157 q 504 267 549 233 q 366 300 458 300 l 244 300 l 244 89 z "},"Ѥ":{"ha":1311,"x_min":131,"x_max":1242,"o":"m 131 0 l 131 964 l 256 964 l 256 525 l 518 525 q 555 688 522 607 q 642 839 587 770 q 784 951 697 908 q 972 994 871 994 q 1226 947 1097 994 l 1206 832 q 1093 888 1143 871 q 968 905 1042 905 q 741 789 829 905 q 643 525 653 672 l 1121 525 l 1121 439 l 643 439 q 742 175 652 292 q 970 58 831 58 q 1014 59 994 58 q 1053 64 1034 60 q 1085 69 1072 68 q 1115 78 1097 71 q 1139 87 1132 85 q 1164 99 1146 89 q 1185 113 1182 110 q 1209 128 1189 115 q 1234 143 1229 140 l 1242 46 q 1112 -15 1165 0 q 970 -31 1059 -31 q 736 42 841 -31 q 578 219 632 114 q 518 439 524 325 l 256 439 l 256 0 l 131 0 z "},"ѥ":{"ha":944,"x_min":111,"x_max":899,"o":"m 111 0 l 111 618 l 220 618 l 220 378 l 376 378 q 382 406 378 389 q 409 469 387 424 q 460 549 431 514 q 547 612 490 583 q 673 640 604 640 q 771 630 728 640 q 832 612 814 621 q 890 579 850 603 l 875 488 q 765 542 804 532 q 673 551 726 551 q 547 500 594 551 q 486 378 500 449 l 815 378 l 815 300 l 479 300 q 543 128 486 182 q 671 74 600 74 q 890 149 779 74 l 899 56 q 671 -15 791 -15 q 463 72 550 -16 q 370 300 375 160 l 220 300 l 220 0 l 111 0 z "},"Ѧ":{"ha":1172,"x_min":37,"x_max":1132,"o":"m 37 0 l 521 964 l 648 964 l 1132 0 l 997 0 l 819 357 l 746 355 l 623 355 l 623 0 l 521 0 l 521 355 l 399 355 l 323 357 l 146 0 l 37 0 m 364 433 l 781 433 l 600 802 l 572 867 l 482 673 l 364 433 z "},"ѧ":{"ha":933,"x_min":20,"x_max":914,"o":"m 20 0 l 400 618 l 533 618 l 914 0 l 796 0 l 675 196 l 513 196 l 513 0 l 416 0 l 416 196 l 253 196 l 132 0 l 20 0 m 301 273 l 627 273 q 464 547 478 517 q 301 273 412 454 z "},"Ѩ":{"ha":1634,"x_min":131,"x_max":1634,"o":"m 131 0 l 131 964 l 256 964 l 256 437 l 700 437 l 983 964 l 1114 964 l 1634 0 l 1497 0 l 1305 355 l 1283 355 l 1283 353 l 1086 353 l 1086 0 l 985 0 l 985 353 l 762 353 l 574 0 l 463 0 l 653 353 l 256 353 l 256 0 l 131 0 m 810 437 l 1261 437 q 1035 867 1055 826 l 961 724 l 810 437 z "},"ѩ":{"ha":1299,"x_min":111,"x_max":1307,"o":"m 111 0 l 111 618 l 220 618 l 220 273 l 541 273 l 765 618 l 901 618 l 1307 0 l 1187 0 l 1059 196 l 880 196 l 880 0 l 785 0 l 785 196 l 604 196 l 475 0 l 359 0 l 488 196 l 220 196 l 220 0 l 111 0 m 654 273 l 1007 273 l 831 547 l 654 273 z "},"Ѫ":{"ha":1311,"x_min":22,"x_max":1286,"o":"m 22 0 l 244 370 q 287 431 269 410 q 340 480 304 453 q 431 522 375 507 q 570 542 488 536 l 237 964 l 1071 964 l 741 542 q 879 520 823 535 q 971 478 936 505 q 1024 431 1007 452 q 1064 372 1040 411 l 1286 0 l 1161 0 l 946 372 q 915 417 926 404 q 852 444 904 429 q 708 458 800 458 l 708 0 l 600 0 l 600 458 q 484 452 528 458 q 414 430 439 446 q 384 406 390 414 q 364 372 378 397 l 147 0 l 22 0 m 416 875 l 657 566 l 900 875 l 416 875 z "},"ѫ":{"ha":1103,"x_min":22,"x_max":1078,"o":"m 22 0 l 210 237 q 262 295 239 273 q 341 341 285 317 q 473 375 397 366 l 203 618 l 897 618 l 627 375 q 705 360 680 366 q 776 333 730 354 q 856 278 822 311 q 1078 0 876 258 l 961 0 q 762 267 774 257 q 751 273 760 268 q 597 300 717 294 l 597 0 l 504 0 l 504 300 q 370 284 401 294 q 310 235 339 273 l 139 0 l 22 0 m 390 532 q 550 378 538 391 q 710 532 574 407 l 390 532 z "},"Ѭ":{"ha":1773,"x_min":131,"x_max":1750,"o":"m 131 0 l 131 964 l 256 964 l 256 545 l 1031 545 l 701 964 l 1535 964 l 1204 542 q 1343 520 1286 535 q 1435 478 1400 505 q 1488 431 1471 452 q 1527 372 1504 411 l 1750 0 l 1625 0 l 1409 372 q 1377 417 1389 404 q 1315 445 1365 431 q 1173 458 1264 458 l 1173 0 l 1064 0 l 1064 458 q 919 444 971 458 q 856 417 867 429 q 827 372 844 404 l 611 0 l 486 0 l 705 366 q 777 458 744 429 l 256 458 l 256 0 l 131 0 m 880 875 l 1121 566 l 1364 875 l 880 875 z "},"ѭ":{"ha":1508,"x_min":111,"x_max":1483,"o":"m 111 0 l 111 618 l 220 618 l 220 378 l 875 378 l 610 618 l 1303 618 l 1034 375 q 1112 360 1088 366 q 1182 332 1136 354 q 1263 277 1229 310 q 1483 0 1282 257 l 1367 0 q 1168 268 1181 257 q 1157 275 1165 269 q 1003 300 1125 295 l 1003 0 l 909 0 l 909 300 q 776 285 806 294 q 717 235 746 275 l 546 0 l 429 0 l 644 272 l 675 300 l 220 300 l 220 0 l 111 0 m 798 532 q 869 465 799 530 q 956 378 940 399 q 1116 532 979 407 l 798 532 z "},"Ѯ":{"ha":758,"x_min":20,"x_max":713,"o":"m 20 -171 q 75 -65 20 -110 q 130 -35 96 -48 q 326 37 163 -22 q 456 85 406 66 q 566 150 525 110 q 607 268 607 191 q 363 458 607 458 l 269 458 l 269 545 l 339 545 q 428 554 401 545 q 516 617 477 571 q 555 736 555 663 q 387 917 555 916 q 262 879 319 917 q 191 761 205 840 l 83 781 q 136 893 93 846 q 222 960 179 940 q 311 987 265 979 l 147 1171 l 233 1171 l 387 1018 l 541 1171 l 625 1171 l 464 990 q 673 734 673 964 q 622 598 673 661 q 464 504 571 536 q 645 420 576 487 q 713 241 713 354 q 707 182 713 210 q 689 132 701 154 q 665 93 676 110 q 632 60 653 75 q 598 35 611 45 q 562 14 586 25 q 529 -1 538 3 q 495 -14 519 -5 q 469 -22 471 -22 q 155 -139 158 -138 q 123 -195 123 -159 q 172 -249 123 -242 l 136 -285 q 47 -246 74 -282 q 20 -171 20 -210 z "},"ѯ":{"ha":604,"x_min":25,"x_max":570,"o":"m 25 -157 q 58 -64 25 -102 q 136 -7 90 -25 q 227 21 172 7 q 319 45 281 35 q 394 72 357 56 q 452 113 432 87 q 472 175 472 139 q 414 275 472 240 q 277 300 369 300 l 199 300 l 199 378 l 260 378 q 384 402 339 378 q 429 465 429 427 q 294 547 429 547 q 143 469 175 546 l 47 478 q 124 580 68 541 q 249 629 179 619 l 282 632 l 254 632 q 215 651 243 632 q 57 768 186 671 l 143 768 l 294 668 l 449 768 l 533 768 l 374 650 q 350 635 354 636 q 322 632 346 633 q 491 581 444 631 q 538 467 538 532 q 460 347 538 399 q 570 174 570 294 q 562 119 570 144 q 544 77 554 94 q 516 44 533 60 q 485 18 498 28 q 450 -1 471 8 q 418 -13 429 -9 q 389 -22 407 -17 q 370 -28 371 -28 q 163 -90 176 -83 q 126 -151 127 -113 q 199 -225 126 -215 l 139 -285 q 54 -244 82 -282 q 25 -157 25 -205 z "},"Ѱ":{"ha":1080,"x_min":77,"x_max":1002,"o":"m 77 766 l 77 852 l 178 852 q 215 850 201 852 q 247 830 229 847 q 274 778 264 812 q 286 676 283 743 q 292 546 289 608 q 310 419 296 484 q 365 306 323 354 q 478 237 407 257 l 478 964 l 595 964 l 595 236 q 651 259 625 244 q 695 290 676 273 q 729 329 714 306 q 753 371 743 353 q 769 419 762 389 q 780 466 777 449 q 785 515 783 484 q 788 558 787 546 q 789 600 789 571 q 789 635 789 629 q 799 757 790 711 q 825 823 807 803 q 860 848 843 843 q 908 852 876 852 l 1002 852 l 1002 766 q 948 746 968 764 q 919 694 928 728 q 908 631 911 661 q 904 554 905 600 q 900 484 903 509 q 811 261 883 353 q 595 149 739 170 l 595 0 l 478 0 l 478 149 l 476 149 q 424 159 450 153 q 354 189 399 165 q 277 247 310 212 q 215 346 244 281 q 176 496 186 411 q 174 558 175 515 q 170 631 172 602 q 158 693 167 660 q 129 745 150 726 q 77 766 109 764 z "},"ѱ":{"ha":887,"x_min":37,"x_max":847,"o":"m 37 547 l 37 632 q 49 633 41 632 q 61 633 57 633 q 190 584 151 633 q 228 484 228 534 q 217 386 228 473 q 207 261 207 298 q 256 131 207 179 q 390 74 304 83 l 390 1003 l 494 1003 l 494 74 q 628 131 579 83 q 676 261 676 179 q 667 385 676 298 q 657 484 657 472 q 667 542 657 511 q 718 603 677 572 q 823 633 758 633 q 835 633 827 633 q 847 632 843 632 l 847 547 l 819 547 q 765 482 765 547 q 775 389 765 473 q 786 258 786 304 q 770 160 786 204 q 729 88 754 115 q 673 41 704 61 q 612 11 643 21 q 557 -5 582 0 q 515 -12 532 -11 l 498 -14 l 498 -271 l 390 -271 l 390 -14 q 245 21 305 -7 q 154 90 184 49 q 111 172 123 131 q 98 258 98 212 q 109 388 98 304 q 119 481 119 471 q 66 547 119 547 l 37 547 z "},"Ѳ":{"ha":1022,"x_min":77,"x_max":943,"o":"m 77 479 q 205 844 77 694 q 511 994 334 994 q 815 844 686 994 q 943 479 943 694 q 813 115 943 261 q 510 -31 684 -31 q 206 116 335 -31 q 77 479 77 263 m 201 545 l 818 545 q 778 706 808 636 q 712 812 747 777 q 634 871 677 848 q 562 900 591 895 q 510 905 533 905 q 309 814 392 905 q 207 589 227 722 l 201 545 m 203 458 q 221 337 203 403 q 276 208 240 272 q 373 102 311 144 q 510 60 435 60 q 718 169 629 60 q 818 458 807 278 l 203 458 z "},"ѳ":{"ha":694,"x_min":41,"x_max":652,"o":"m 41 307 q 132 551 41 453 q 346 648 222 648 q 560 550 468 648 q 652 307 652 452 q 560 66 652 163 q 346 -31 468 -31 q 131 68 220 -31 q 41 307 41 167 m 143 293 q 198 131 143 204 q 346 57 253 57 q 484 117 422 57 q 550 300 546 178 l 143 300 l 143 293 m 150 378 l 542 378 q 467 515 522 468 q 347 562 411 562 q 226 516 282 562 q 150 378 170 469 z "},"Ѵ":{"ha":1002,"x_min":20,"x_max":964,"o":"m 20 964 l 149 964 l 366 408 q 473 97 465 135 q 545 311 480 142 l 688 686 q 707 736 694 703 q 738 817 728 791 q 767 878 749 843 q 799 927 785 913 q 836 953 814 942 q 884 964 857 964 l 964 964 l 964 879 q 881 867 897 879 q 842 800 864 854 l 526 0 l 399 0 l 20 964 z "},"ѵ":{"ha":683,"x_min":20,"x_max":654,"o":"m 20 618 l 131 618 q 322 97 311 144 q 390 296 329 130 q 486 549 450 461 q 607 632 526 632 l 654 632 l 654 547 l 652 547 q 598 539 609 547 q 575 500 587 532 l 383 0 l 256 0 l 20 618 z "},"Ѷ":{"ha":1002,"x_min":20,"x_max":964,"o":"m 20 964 l 149 964 l 366 408 q 473 97 465 135 q 545 311 480 142 l 688 686 q 707 736 694 703 q 738 817 728 791 q 767 878 749 843 q 799 927 785 913 q 836 953 814 942 q 884 964 857 964 l 964 964 l 964 879 q 881 867 897 879 q 842 800 864 854 l 526 0 l 399 0 l 20 964 m 92 1182 l 245 1182 l 464 1055 l 363 1055 l 343 1057 q 92 1182 314 1068 m 323 1182 l 478 1182 l 694 1055 l 595 1055 l 575 1057 q 323 1182 546 1068 z "},"ѷ":{"ha":683,"x_min":-7,"x_max":656,"o":"m -7 889 l 102 889 l 286 708 l 201 708 l -7 889 m 21 618 l 132 618 q 323 97 313 144 q 453 458 333 143 q 527 604 498 575 q 615 632 557 632 l 656 632 l 656 547 q 607 531 627 545 q 580 504 587 517 q 562 464 572 490 l 385 0 l 257 0 l 21 618 m 225 889 l 334 889 l 518 708 l 433 708 l 225 889 z "},"Ѻ":{"ha":1311,"x_min":77,"x_max":1234,"o":"m 77 476 q 90 631 77 561 q 138 769 103 701 q 231 885 174 838 q 381 962 288 932 q 597 993 475 991 l 599 994 q 654 1051 604 1051 q 693 1037 680 1051 q 708 1008 707 1022 l 711 994 l 713 993 q 1234 476 1234 986 q 1214 301 1234 379 q 1162 173 1194 224 q 1086 84 1131 122 q 996 26 1042 46 q 897 -6 950 5 q 803 -23 844 -18 q 718 -31 761 -28 q 711 -31 714 -31 q 656 -87 706 -87 q 617 -73 631 -87 q 600 -45 603 -58 l 599 -31 q 502 -22 541 -26 q 403 -3 463 -17 q 303 31 343 11 q 216 90 262 52 q 142 178 170 127 q 95 306 114 229 q 77 476 77 382 m 201 507 q 208 373 201 429 q 248 248 215 317 q 340 136 281 179 q 597 61 431 71 l 597 139 l 711 139 l 711 61 q 855 85 792 65 q 959 129 918 104 q 1029 193 1000 154 q 1074 266 1059 232 q 1097 347 1089 300 q 1107 425 1105 395 q 1108 498 1108 456 q 1099 621 1108 566 q 1063 729 1089 676 q 993 818 1036 782 q 879 878 950 854 q 711 904 807 901 l 711 827 l 597 827 l 597 904 q 400 868 481 900 q 278 779 319 836 q 219 657 236 722 q 201 507 201 592 z "}}}
